<?xml version="1.0" standalone="no"?>
<!DOCTYPE svg PUBLIC "-//W3C//DTD SVG 1.1//EN" "http://www.w3.org/Graphics/SVG/1.1/DTD/svg11.dtd" >
<svg xmlns="http://www.w3.org/2000/svg">
<metadata></metadata>
<defs>
<font id="etelka_textbold" horiz-adv-x="1208" >
<font-face units-per-em="2048" ascent="1638" descent="-410" />
<missing-glyph horiz-adv-x="526" />
<glyph unicode="ff" horiz-adv-x="1429" d="M1122 1047h324v-271h-324v-776h-315v776h-322v-776h-313v776h-170v271h170v51q0 92 23 162t61 112.5t94.5 68.5t115.5 36t132 10q200 0 352 -57q92 59 256 59q78 0 166 -14t150 -37q-15 -47 -40 -140t-28 -104q-89 29 -184 29q-79 0 -113.5 -33.5t-34.5 -108.5v-34z M485 1047h322v55q0 64 10 100q-93 21 -162 21q-94 0 -132 -34t-38 -112v-30z" />
<glyph unicode="fi" horiz-adv-x="1257" d="M1122 1049v-1049h-315v778h-322v-778h-313v778h-170v271h170v49q0 92 24 160t67.5 112t110.5 71t145.5 37.5t180.5 10.5q220 0 404 -59l-70 -244q-125 37 -284 37q-136 0 -200.5 -30.5t-64.5 -115.5v-28h637z" />
<glyph unicode="fl" horiz-adv-x="1269" d="M1122 1430v-1125q0 -145 70 -254l-283 -102q-102 127 -102 348v909q-83 17 -152 17q-91 0 -130.5 -31.5t-39.5 -114.5v-28h234v-271h-234v-778h-313v778h-170v271h170v49q0 92 23 160.5t63.5 112.5t103.5 70.5t135.5 37t166.5 10.5q231 0 458 -59z" />
<glyph unicode="ffi" horiz-adv-x="1892" d="M1757 1047v-1047h-313v776h-322v-776h-315v776h-322v-776h-313v776h-170v271h170v51q0 91 22.5 160.5t59.5 112.5t92 70t113.5 37.5t130.5 10.5q176 0 375 -72q125 72 370 72q211 0 404 -62l-68 -241q-129 37 -287 37q-144 0 -203 -33t-59 -119v-24h635zM485 1047h322v51 q0 58 12 102q-87 23 -164 23q-94 0 -132 -34t-38 -112v-30z" />
<glyph unicode="ffl" horiz-adv-x="1904" d="M1757 1430v-1125q0 -142 72 -254l-285 -102q-100 124 -100 348v909q-83 17 -154 17q-91 0 -129.5 -31t-38.5 -115v-28h232v-271h-232v-778h-315v778h-322v-778h-313v778h-170v271h170v49q0 91 22.5 160.5t59.5 112.5t92 70t113.5 37.5t130.5 10.5q184 0 368 -68 q115 68 340 68q232 0 459 -59zM807 1098q0 61 14 104q-96 21 -166 21q-91 0 -130.5 -31.5t-39.5 -114.5v-28h322v49z" />
<glyph unicode="fj" horiz-adv-x="1257" d="M807 -12v788h-322v-776h-313v776h-170v271h170v51q0 92 25 160.5t69 112.5t111.5 70.5t144.5 37t176 10.5q213 0 406 -62q-12 -40 -35 -120.5t-35 -120.5q-125 37 -286 37q-134 0 -198.5 -31t-64.5 -115v-30h637v-1049q0 -118 -28.5 -198t-89 -128t-146.5 -68t-211 -20 v256q81 0 120.5 35t39.5 113z" />
<glyph unicode="fk" horiz-adv-x="1875" d="M1122 0h-315v1206q-83 17 -152 17q-91 0 -130.5 -31.5t-39.5 -114.5v-28h234v-271h-234v-778h-313v778h-170v271h170v49q0 92 23 160.5t63.5 112.5t103.5 70.5t135.5 37t166.5 10.5q231 0 458 -59v-1430zM1878 0h-365q-170 272 -263 404.5t-128 150.5q92 85 363 494h364 q-126 -190 -222.5 -315t-139.5 -161q42 -28 148 -179.5t243 -393.5z" />
<glyph unicode="ffk" horiz-adv-x="2512" d="M1757 0h-313v1206q-87 17 -154 17q-93 0 -130.5 -33.5t-37.5 -112.5v-30h232v-271h-232v-776h-315v776h-322v-776h-313v776h-170v271h170v51q0 91 22.5 160t59.5 111.5t92.5 69.5t114.5 37.5t131 10.5q191 0 366 -66q117 68 340 68q234 0 459 -62v-1427zM2513 0h-365 q-326 520 -391 553q92 85 363 494h364q-123 -186 -220.5 -312.5t-139.5 -163.5q41 -29 147 -180.5t242 -390.5zM485 1047h322v51q0 58 12 102q-87 23 -164 23q-94 0 -132 -34t-38 -112v-30z" />
<glyph unicode="Th" horiz-adv-x="2269" d="M2144 608v-608h-315v477q0 138 -16.5 205.5t-52.5 92t-109 24.5q-65 0 -110.5 -17.5t-45.5 -48.5v-733h-315v1139h-369v-1139h-334v1139h-475v288h1493v-415q146 65 279 65q73 0 125.5 -10.5t101 -41t78.5 -82t47.5 -135.5t17.5 -200z" />
<glyph unicode=" "  horiz-adv-x="526" />
<glyph unicode="&#x09;" horiz-adv-x="526" />
<glyph unicode="&#xa0;" horiz-adv-x="526" />
<glyph unicode="!" horiz-adv-x="681" d="M152 1427h376l-75 -946h-226zM342 336q111 0 150.5 -32t39.5 -136q0 -113 -39 -147.5t-151 -34.5q-109 0 -147.5 34.5t-38.5 147.5q0 104 39 136t147 32z" />
<glyph unicode="&#x22;" horiz-adv-x="823" d="M92 1427h264l-39 -501h-202zM473 1427h258l-39 -501h-200z" />
<glyph unicode="#" horiz-adv-x="1511" d="M80 870l16 250h252l21 310h288l-20 -310h256l20 310h289l-20 -310h268l-14 -250h-271l-20 -290h272l-16 -248h-271l-22 -332h-289l23 332h-256l-23 -332h-289l23 332h-252l18 248h248l21 290h-252zM621 870l-19 -290h254l21 290h-256z" />
<glyph unicode="$" horiz-adv-x="1273" d="M526 1690h209v-281q239 -3 395 -59l-65 -271q-136 39 -330 45v-278q210 -33 315 -128.5t105 -271.5q0 -208 -99.5 -307t-320.5 -121v-299h-209v291q-241 3 -403 60l67 272q130 -40 336 -47v289q-205 28 -311 113.5t-106 254.5q0 205 102 313t315 134v291zM850 426 q0 55 -22.5 83t-92.5 42v-248q61 12 88 40.5t27 82.5zM410 993q0 -52 24 -77.5t92 -38.5v237q-62 -12 -89 -41t-27 -80z" />
<glyph unicode="%" horiz-adv-x="2064" d="M1339 1427h287l-913 -1427h-285zM457 516q-150 0 -235 43t-126 148t-41 292q0 138 21 227t71.5 142t123.5 73.5t186 20.5q114 0 187 -20.5t123.5 -73.5t71.5 -141.5t21 -227.5q0 -141 -21 -233t-71 -148t-124 -79t-187 -23zM457 1245q-55 0 -80 -16t-37 -68t-12 -164 q0 -115 12 -170t37.5 -73.5t79.5 -18.5q55 0 80.5 19t37 73t11.5 170q0 112 -11.5 163.5t-36.5 68t-81 16.5zM1606 -29q-151 0 -236 43.5t-125.5 148t-40.5 290.5q0 139 21 228.5t71 142.5t123 73.5t187 20.5t187 -20.5t123.5 -73.5t71.5 -142.5t21 -228.5 q0 -186 -40.5 -290.5t-126 -148t-236.5 -43.5zM1606 700q-55 0 -80 -16.5t-37 -68t-12 -162.5q0 -115 12 -170t37.5 -74t79.5 -19q55 0 80 19t36 73.5t11 170.5q0 112 -11 163t-35.5 67.5t-80.5 16.5z" />
<glyph unicode="&#x26;" horiz-adv-x="1669" d="M1604 807q0 -267 -201 -494q87 -112 229 -313h-377q-64 94 -88 125q-243 -154 -524 -154q-159 0 -263.5 20t-170.5 68t-93.5 123t-27.5 189q0 343 393 360q-76 7 -129.5 25.5t-87 46t-52.5 69.5t-25.5 87.5t-6.5 109.5q0 82 13.5 141t47.5 109t92.5 80t148.5 46.5 t216 16.5q201 0 315 -38t160 -114.5t46 -209.5q0 -155 -78.5 -238.5t-263.5 -97.5q130 -9 323 -217q64 121 64 260h340zM645 240q103 0 186 24.5t164 79.5q-193 252 -344 252q-114 0 -162.5 -38.5t-48.5 -139.5q0 -102 42.5 -140t162.5 -38zM692 872q99 0 146 36.5t47 125.5 q0 91 -41.5 122.5t-143.5 31.5q-104 0 -145 -31.5t-41 -122.5t40 -126.5t138 -35.5z" />
<glyph unicode="'" horiz-adv-x="448" d="M92 1427h264l-39 -501h-202z" />
<glyph unicode="(" horiz-adv-x="669" d="M139 565q0 237 35.5 432.5t100 333t148.5 228t187 133.5l144 -232q-65 -35 -114.5 -99.5t-88.5 -169.5t-59.5 -262.5t-20.5 -363.5q0 -740 283 -893l-144 -231q-213 90 -342 374.5t-129 749.5z" />
<glyph unicode=")" horiz-adv-x="669" d="M530 565q0 -237 -36 -432.5t-100.5 -332t-148.5 -226.5t-186 -133l-143 231q65 35 114.5 99.5t88.5 169t59.5 262t20.5 362.5q0 742 -283 895l143 232q102 -43 186 -133.5t148.5 -227.5t100.5 -333t36 -433z" />
<glyph unicode="*" horiz-adv-x="1089" d="M61 940v254h263l-134 229l224 127l131 -229l129 229l225 -129l-135 -227h264v-254h-264l133 -225l-225 -127l-127 223l-131 -223l-224 129l132 223h-261z" />
<glyph unicode="+" horiz-adv-x="1153" d="M74 594v301h350v352h301v-352h352v-301h-352v-350h-301v350h-350z" />
<glyph unicode="," horiz-adv-x="612" d="M528 215l-241 -541h-281l162 541h360z" />
<glyph unicode="-" horiz-adv-x="649" d="M55 432v301h539v-301h-539z" />
<glyph unicode="." horiz-adv-x="612" d="M305 336q111 0 150 -32t39 -136q0 -59 -9 -94.5t-32.5 -55t-57 -26t-90.5 -6.5q-109 0 -147.5 34.5t-38.5 147.5q0 104 39 136t147 32z" />
<glyph unicode="/" horiz-adv-x="997" d="M733 1427h336l-731 -1427h-334z" />
<glyph unicode="0" horiz-adv-x="1286" d="M643 -29q-112 0 -197 22.5t-153.5 76t-112.5 141t-67 217.5t-23 305q0 172 23.5 298t66.5 208.5t112.5 132t153.5 70t197 20.5t197 -20.5t153 -70t112 -132t66 -208.5t23 -298q0 -175 -23 -305t-66.5 -217.5t-112 -140.5t-153 -76t-196.5 -23zM643 1163q-50 0 -80.5 -4.5 t-58 -21.5t-41.5 -43.5t-24.5 -77t-13.5 -116.5t-3 -167q0 -103 3.5 -172t13.5 -123t24.5 -84t41 -49t58 -25t80.5 -6q50 0 82 6t59 25.5t41.5 49t24.5 83.5t13 122.5t3 172.5q0 101 -3 166.5t-13.5 116.5t-24 77.5t-41.5 43.5t-59 21.5t-82 4.5z" />
<glyph unicode="1" horiz-adv-x="1286" d="M881 0h-326v1071l-319 -129l-86 279l731 272v-1493z" />
<glyph unicode="2" horiz-adv-x="1286" d="M195 1108l-68 283q91 32 221 51.5t264 19.5q112 0 193 -11.5t148.5 -40t108.5 -77t63 -123t22 -178.5q0 -79 -8.5 -135.5t-36.5 -115t-66 -105t-113 -110t-161 -124.5t-225 -153h616v-289h-1071v268q143 106 225.5 168t169 130.5t128.5 104t85.5 79.5t58 67t28.5 57.5 t16 59.5t2 65q0 96 -46.5 130t-170.5 34q-97 0 -205 -15.5t-178 -39.5z" />
<glyph unicode="3" horiz-adv-x="1286" d="M821 752q99 -4 166 -30.5t103.5 -76t51.5 -112t15 -150.5q0 -228 -133 -320t-449 -92q-114 0 -251 13.5t-234 35.5l62 293q58 -18 161.5 -28.5t184.5 -10.5q126 0 189.5 15t86.5 48t23 99q0 95 -43.5 129.5t-151.5 34.5h-221v283h215q103 0 141.5 28.5t38.5 112.5 q0 55 -21 82.5t-80 41t-175 13.5q-80 0 -182 -10.5t-160 -28.5l-62 289q227 51 482 51q213 0 331.5 -36.5t168.5 -115.5t50 -218q0 -80 -12.5 -135t-45 -101t-94 -71.5t-155.5 -32.5z" />
<glyph unicode="4" horiz-adv-x="1282" d="M723 340h-707v113q137 243 306 521.5t292 452.5h424v-811h185v-276h-185v-340h-315v340zM723 616v506q-139 -188 -315 -506h315z" />
<glyph unicode="5" horiz-adv-x="1286" d="M182 1427h924v-288h-612v-246q135 6 139 6q205 0 319 -45t160.5 -139.5t46.5 -261.5q0 -114 -19 -194.5t-58.5 -137t-107.5 -89t-158.5 -47t-219.5 -14.5q-107 0 -249.5 14t-229.5 33q6 30 28.5 134t32.5 159q54 -16 157 -26.5t183 -10.5q75 0 120.5 4t79.5 13.5 t50.5 29.5t23.5 47.5t7 71.5q0 47 -6 74.5t-21.5 49.5t-48.5 32t-80 15t-123 5q-193 0 -338 -22v833z" />
<glyph unicode="6" horiz-adv-x="1286" d="M752 1462q97 0 210.5 -14.5t196.5 -36.5l-63 -291q-119 39 -344 39q-54 0 -90 -3.5t-70.5 -13.5t-55.5 -28.5t-38.5 -49.5t-26.5 -75t-14 -106q91 16 219 16q206 0 321 -45t163 -139.5t48 -261.5q0 -142 -27.5 -233t-94 -147.5t-168 -79t-259.5 -22.5q-159 0 -262 35.5 t-171.5 123.5t-97 231t-28.5 364q0 148 14 257.5t47.5 193t82.5 137.5t124 87.5t167 47.5t217 14zM659 274q123 0 164 35t41 131q0 72 -16.5 108.5t-66.5 54.5t-148 18q-81 0 -180 -15q2 -108 14 -174t39 -100.5t61.5 -46t91.5 -11.5z" />
<glyph unicode="7" horiz-adv-x="1286" d="M1251 1427v-94q-129 -205 -321 -624.5t-287 -708.5h-375q118 324 272 654.5t271 484.5h-696v288h1136z" />
<glyph unicode="8" horiz-adv-x="1286" d="M645 240q119 0 162 38t43 140q0 107 -44.5 151.5t-160.5 44.5q-119 0 -164 -44.5t-45 -151.5q0 -102 44 -140t165 -38zM645 870q100 0 144.5 37t44.5 127q0 91 -42 122.5t-147 31.5q-108 0 -150 -31.5t-42 -122.5t44.5 -127.5t147.5 -36.5zM645 -29h-2 q-210 0 -329.5 41.5t-170.5 129.5t-51 241q0 89 14.5 151t50.5 111.5t102.5 76t166.5 30.5q-94 7 -155.5 32.5t-94 71.5t-45 101t-12.5 135q0 67 9 117t31.5 93t61 72t96.5 49.5t138.5 29.5t187.5 9t187.5 -9t138.5 -29.5t96.5 -49.5t61 -72t31.5 -93t9 -117 q0 -80 -12.5 -135t-45 -101t-94 -71.5t-155.5 -32.5q100 -4 166.5 -30.5t102.5 -76t50.5 -111.5t14.5 -151q0 -153 -50.5 -241t-169.5 -129.5t-329 -41.5z" />
<glyph unicode="9" horiz-adv-x="1286" d="M629 537q-206 0 -320.5 43t-162.5 136t-48 259q0 142 27 233.5t93.5 149.5t168.5 81t260 23q114 0 197 -10t146 -34t103 -59.5t65 -93t34.5 -127t9.5 -167.5q0 -145 -34 -279t-99.5 -254.5t-145.5 -224.5t-188 -213h-403q314 321 424 541q-50 -4 -127 -4zM850 940 q0 97 -17.5 143t-58 62t-127.5 16q-124 0 -165.5 -37.5t-41.5 -138.5q0 -45 5.5 -72.5t19 -48t41 -30.5t66 -14.5t100.5 -4.5q95 0 168 8q10 46 10 117z" />
<glyph unicode=":" horiz-adv-x="612" d="M305 336q111 0 150 -32t39 -136q0 -59 -9 -94.5t-32.5 -55t-57 -26t-90.5 -6.5q-109 0 -147.5 34.5t-38.5 147.5q0 104 39 136t147 32zM305 1065q112 0 150.5 -31t38.5 -135q0 -59 -9 -94.5t-32.5 -55t-57 -26t-90.5 -6.5q-109 0 -147.5 34.5t-38.5 147.5 q0 103 38.5 134.5t147.5 31.5z" />
<glyph unicode=";" horiz-adv-x="612" d="M528 215l-241 -541h-281l162 541h360zM305 1065q112 0 150.5 -31t38.5 -135q0 -59 -9 -94.5t-32.5 -55t-57 -26t-90.5 -6.5q-109 0 -147.5 34.5t-38.5 147.5q0 103 38.5 134.5t147.5 31.5z" />
<glyph unicode="&#x3c;" horiz-adv-x="1153" d="M1053 1167l-496 -419l496 -429l-162 -229l-746 578v151l744 576z" />
<glyph unicode="=" horiz-adv-x="1153" d="M74 895v301h1003v-301h-1003zM74 283v301h1003v-301h-1003z" />
<glyph unicode="&#x3e;" horiz-adv-x="1153" d="M145 319l496 420l-496 426l162 232l748 -578v-151l-744 -576z" />
<glyph unicode="?" horiz-adv-x="1193" d="M643 569v-127h-311v375h127q76 0 125 5t83.5 15.5t51.5 32t24 50t7 73.5q0 103 -45.5 134.5t-188.5 31.5q-222 0 -362 -39l-60 295q225 47 445 47q161 0 265 -22.5t172.5 -78.5t97 -147t28.5 -233q0 -120 -29 -201t-89.5 -127t-142 -65t-198.5 -19zM477 336 q111 0 150 -32t39 -136q0 -59 -9 -94.5t-32.5 -55t-57 -26t-90.5 -6.5q-109 0 -147.5 34.5t-38.5 147.5q0 104 39 136t147 32z" />
<glyph unicode="@" horiz-adv-x="1929" d="M897 881q118 0 229 -21q-2 55 -11.5 87t-36 54.5t-71.5 30.5t-120 8q-105 0 -174.5 -6.5t-130.5 -26t-96 -52.5t-60.5 -88.5t-35 -130.5t-9.5 -183q0 -113 10 -191t37.5 -138.5t67.5 -96.5t108.5 -59t153 -31t207.5 -8q122 0 208.5 11t154.5 38.5t110 70.5t69.5 112 t38 156.5t10.5 211.5q0 250 -40 354h272q39 -140 39 -365q0 -195 -32 -336.5t-96 -239.5t-169 -156.5t-241 -84.5t-322 -26q-158 0 -277 15t-218.5 50t-167 92.5t-114 143.5t-67.5 201.5t-21 267.5q0 178 36 309.5t100 215.5t164.5 134.5t216 70t268.5 19.5q102 0 173.5 -9 t133.5 -32.5t100.5 -64t66 -105.5t39 -154t11.5 -212q0 -87 -4.5 -153t-17 -120.5t-29 -92t-45.5 -66t-62 -45.5t-83 -27.5t-103.5 -14t-128.5 -3.5q-126 0 -203 15t-126.5 55.5t-68 105t-18.5 170.5q0 107 18 172t65 103t114 51.5t178 13.5zM969 668q-88 0 -119 -22 t-31 -97t30.5 -99t127.5 -24q84 0 116.5 28.5t32.5 112.5v90q-86 11 -157 11z" />
<glyph unicode="A" horiz-adv-x="1411" d="M1112 0q-66 158 -119 315h-590l-92 -315h-354q91 300 238 713.5t270 713.5h510q101 -334 244.5 -740t259.5 -687h-367zM729 1141h-53q-94 -248 -187 -541h408q-84 249 -168 541z" />
<glyph unicode="B" horiz-adv-x="1480" d="M897 281q53 0 78.5 37.5t25.5 119.5q0 170 -112 170h-391v-327h399zM887 877q48 0 70 31.5t22 103.5t-22 103.5t-70 31.5h-389v-270h389zM1028 752q100 -4 166.5 -30t102 -75.5t49.5 -111t14 -150.5q0 -206 -97 -295.5t-280 -89.5h-815v1427h809q105 0 175.5 -21.5 t109.5 -67t55 -105.5t16 -148q0 -80 -12 -134t-44.5 -98.5t-93.5 -69t-155 -31.5z" />
<glyph unicode="C" horiz-adv-x="1204" d="M100 727q0 146 18 257.5t56 193t91.5 136t131.5 87.5t169 47t210 14q101 0 217.5 -14t196.5 -37l-64 -291q-109 39 -280 39q-59 0 -100 -2.5t-82.5 -10t-68.5 -21t-53 -36.5t-41 -54.5t-26.5 -76.5t-16.5 -102.5t-5 -132.5q0 -99 8.5 -169.5t30 -121t49.5 -80.5t76 -47 t100 -23t129 -6q68 0 148 11t132 28l64 -297q-180 -47 -414 -47q-142 0 -247 23t-188.5 75.5t-135 140t-78.5 215.5t-27 302z" />
<glyph unicode="D" horiz-adv-x="1542" d="M168 1427h596q142 0 246.5 -20t189 -68t136 -129t79 -202t27.5 -287t-27 -288t-79.5 -205.5t-136 -134t-189 -72t-246.5 -21.5h-596v1427zM1090 717q0 73 -3.5 127.5t-13 99t-22.5 74.5t-35.5 52.5t-47.5 35.5t-64.5 20.5t-79.5 10t-99 2.5h-227v-848h227q77 0 128 5.5 t94.5 23t68.5 46t43 77.5t24.5 114t6.5 160z" />
<glyph unicode="E" horiz-adv-x="1282" d="M168 1427h1065v-288h-735v-256h526v-283h-526v-311h735v-289h-1065v1427z" />
<glyph unicode="F" d="M168 1427h1040v-288h-710v-332h526v-283h-526v-524h-330v1427z" />
<glyph unicode="G" horiz-adv-x="1458" d="M981 287v299h-283v282h621v-829q-90 -28 -248 -48t-295 -20q-142 0 -247 23t-188.5 75.5t-135 140t-78.5 215.5t-27 302q0 173 31.5 300.5t89.5 210.5t150.5 133t203 70.5t259.5 20.5q105 0 236.5 -14.5t209.5 -36.5l-59 -291q-50 17 -164.5 29t-190.5 12q-84 0 -138 -5 t-105 -21t-79.5 -45t-51 -78t-31 -119t-8.5 -170q0 -99 8.5 -169.5t30 -121t49.5 -80.5t76 -47t100 -23t129 -6q33 0 135 11z" />
<glyph unicode="H" horiz-adv-x="1531" d="M498 602v-602h-330v1427h330v-520h536v520h330v-1427h-330v602h-536z" />
<glyph unicode="I" horiz-adv-x="665" d="M168 1427h330v-1427h-330v1427z" />
<glyph unicode="J" horiz-adv-x="966" d="M807 1427v-1034q0 -96 -26 -171t-69 -121.5t-103 -76.5t-122.5 -41.5t-134.5 -11.5q-189 0 -346 54l55 294q112 -40 252 -40q160 0 160 167v981h334z" />
<glyph unicode="K" horiz-adv-x="1400" d="M498 1427v-1427h-330v1427h330zM1434 0h-398q-180 329 -326 527.5t-210 226.5q67 54 206.5 236t294.5 437h394q-162 -251 -294.5 -426.5t-189.5 -228.5q60 -47 206 -251.5t317 -520.5z" />
<glyph unicode="L" horiz-adv-x="1132" d="M168 1427h330v-1136h643v-291h-973v1427z" />
<glyph unicode="M" horiz-adv-x="1923" d="M977 592q164 434 356 835h422v-1427h-319v965q-168 -371 -353 -846h-262q-241 637 -334 846v-965h-319v1427h442q176 -352 367 -835z" />
<glyph unicode="N" horiz-adv-x="1630" d="M1460 1427v-1427h-407q-244 452 -564 975v-975h-321v1427h430q277 -453 535 -940v940h327z" />
<glyph unicode="O" horiz-adv-x="1587" d="M795 -29q-179 0 -303.5 36t-215 122t-133.5 234t-43 366q0 173 29 299t83 209.5t141 133.5t193 70.5t249 20.5t248.5 -20.5t192.5 -70.5t141 -133.5t83 -209.5t29 -299q0 -218 -43 -366t-133.5 -234t-215 -122t-302.5 -36zM795 1159q-78 0 -126 -4.5t-90.5 -22 t-63.5 -44.5t-37 -78t-20.5 -117t-4.5 -168q0 -104 5 -171.5t20 -121t37 -82.5t63.5 -48t90.5 -24.5t126 -5.5t126 5.5t90.5 24.5t63.5 48t37 82.5t20 121t5 171.5q0 102 -4.5 168t-20.5 117t-37 78t-63.5 44.5t-90.5 22t-126 4.5z" />
<glyph unicode="P" horiz-adv-x="1400" d="M498 717h352q143 0 143 209q0 114 -35 166.5t-104 52.5h-356v-428zM498 0h-330v1427h801q186 0 286.5 -133.5t100.5 -367.5q0 -133 -42.5 -240.5t-132.5 -174.5t-214 -67h-469v-444z" />
<glyph unicode="Q" horiz-adv-x="1601" d="M801 1462q143 0 248.5 -20.5t192.5 -70.5t141 -133.5t83 -209.5t29 -299q0 -313 -92 -473.5t-277 -202.5q138 -43 420 -446h-381q-108 174 -202.5 265t-163.5 99q-142 1 -248 23.5t-192.5 75.5t-140.5 139.5t-83 215.5t-29 304q0 173 29 299t83 209.5t141 133.5t193 70.5 t249 20.5zM801 272q77 0 126 5.5t90.5 24.5t63.5 48t37 82.5t20 121t5 171.5q0 101 -4.5 167t-20.5 117t-37 78.5t-63 44.5t-90.5 22t-126.5 5t-126.5 -5t-90.5 -22t-63 -44.5t-37 -78.5t-20.5 -117t-4.5 -167q0 -104 5 -171.5t20 -121t37 -82.5t63.5 -48t90.5 -24.5 t126 -5.5z" />
<glyph unicode="R" horiz-adv-x="1478" d="M498 1145v-367h366q52 0 87.5 42.5t35.5 137.5q0 187 -119 187h-370zM999 612q50 -18 106 -76.5t141.5 -185t219.5 -350.5h-409q-163 285 -254.5 396.5t-157.5 111.5h-147v-508h-330v1427h797q107 0 184.5 -31.5t121.5 -89.5t64.5 -131t20.5 -165q0 -81 -18.5 -147.5 t-58.5 -122.5t-111 -89.5t-169 -38.5z" />
<glyph unicode="S" horiz-adv-x="1273" d="M713 1462q271 0 456 -67l-67 -283q-162 47 -391 47q-156 0 -215.5 -32t-59.5 -107q0 -48 20.5 -74t82.5 -44t186 -32q247 -28 359 -130t112 -304q0 -132 -35.5 -221t-115 -143.5t-195.5 -77.5t-287 -23q-272 0 -463 68l68 283q177 -48 391 -48q161 0 221 29.5t60 110.5 q0 49 -20.5 76.5t-88 49t-199.5 35.5q-235 25 -341.5 115t-106.5 283q0 261 152.5 375t476.5 114z" />
<glyph unicode="T" horiz-adv-x="1288" d="M811 0h-334v1139h-475v288h1284v-288h-475v-1139z" />
<glyph unicode="U" horiz-adv-x="1525" d="M1042 463v964h332v-1028q0 -101 -28.5 -176.5t-79 -123t-129 -76.5t-168 -40.5t-207.5 -11.5t-208 11.5t-168.5 40.5t-128.5 76.5t-78.5 123t-28.5 176.5v1028h333v-966q0 -101 63 -141.5t216 -40.5q155 0 217.5 40.5t62.5 143.5z" />
<glyph unicode="V" horiz-adv-x="1337" d="M676 354q156 399 350 1073h352q-85 -293 -234.5 -706t-279.5 -721h-422q-107 354 -249 757t-259 670h365q88 -208 199.5 -525.5t177.5 -547.5z" />
<glyph unicode="W" horiz-adv-x="2070" d="M1458 428q158 494 262 999h346q-68 -290 -186 -702t-221 -725h-422q-56 298 -195 862q-80 -368 -231 -862h-420q-87 361 -199 762t-204 665h358q71 -208 149 -486t132 -513q197 650 266 999h299q183 -617 266 -999z" />
<glyph unicode="X" horiz-adv-x="1409" d="M410 1427q107 -141 309 -413q185 267 274 413h412q-177 -271 -481 -702q303 -422 506 -725h-416q-198 295 -297 434q-227 -306 -330 -434h-410q177 224 533 721q-364 496 -530 706h430z" />
<glyph unicode="Y" horiz-adv-x="1337" d="M324 1427q172 -222 368 -505q236 332 340 505h406q-233 -362 -586 -845v-582h-330v580q-426 597 -633 847h435z" />
<glyph unicode="Z" horiz-adv-x="1286" d="M31 0v70q147 210 358 532t344 537h-661v288h1185v-65q-125 -214 -352 -562t-350 -511h698v-289h-1222z" />
<glyph unicode="[" horiz-adv-x="774" d="M188 1659h625v-273h-299v-1648h299v-270h-625v2191z" />
<glyph unicode="\" horiz-adv-x="997" d="M-41 1427h336l729 -1427h-334z" />
<glyph unicode="]" horiz-adv-x="774" d="M-39 1659h625v-2191h-625v270h299v1648h-299v273z" />
<glyph unicode="^" horiz-adv-x="1148" d="M778 606l-207 473l-204 -473h-336l393 821h295l399 -821h-340z" />
<glyph unicode="_" horiz-adv-x="1038" d="M55 -377v301h928v-301h-928z" />
<glyph unicode="`" horiz-adv-x="972" d="M754 1163h-265l-309 264h324z" />
<glyph unicode="a" horiz-adv-x="1165" d="M1040 670v-617q-104 -38 -241.5 -60t-255.5 -22q-134 0 -217 15.5t-136.5 56t-74.5 106t-21 170.5q0 87 19.5 149t52 99.5t87 59t112.5 28.5t139 7q102 0 237 -27q0 58 -8 91t-34 56t-71.5 31t-123.5 8q-166 0 -326 -49l-49 250q215 55 451 55q243 0 351.5 -90 t108.5 -317zM741 233v199q-55 14 -170 14q-90 0 -121.5 -21t-31.5 -95q0 -79 28 -102t121 -23q98 0 174 28z" />
<glyph unicode="b" horiz-adv-x="1220" d="M711 1077q106 0 180 -25.5t128 -87t79.5 -167t25.5 -262.5q0 -214 -55.5 -338t-165 -175t-293.5 -51q-123 0 -256.5 21t-218.5 53v1434h316v-461q47 25 118 42t142 17zM610 223q49 0 79 6t55.5 23.5t38 52.5t19.5 88.5t7 134.5q0 164 -40.5 221.5t-150.5 57.5 q-72 0 -119.5 -20.5t-47.5 -53.5v-483q73 -27 159 -27z" />
<glyph unicode="c" horiz-adv-x="966" d="M881 289l65 -264q-60 -25 -153.5 -39.5t-176.5 -14.5q-97 0 -174.5 16.5t-144 56.5t-110.5 103.5t-68.5 159.5t-24.5 223q0 156 37 264.5t108.5 169.5t162.5 87t214 26q86 0 178.5 -12t151.5 -33l-65 -266q-110 43 -238 43q-52 0 -84 -5t-63 -21t-47.5 -47t-26.5 -83 t-10 -129q0 -91 13.5 -147.5t45 -86t70.5 -39t102 -9.5q127 0 238 47z" />
<glyph unicode="d" horiz-adv-x="1220" d="M539 1077q125 0 231 -45v447h315v-1434q-87 -32 -220 -53t-255 -21q-138 0 -231.5 26.5t-159 90.5t-95.5 171.5t-30 268.5q0 154 32 263t93.5 170.5t139.5 88.5t180 27zM610 236q102 0 160 24v481q0 34 -47.5 57t-116.5 23q-111 0 -152.5 -61.5t-41.5 -227.5 q0 -127 19.5 -190.5t59 -84.5t119.5 -21z" />
<glyph unicode="e" horiz-adv-x="1138" d="M588 1077q92 0 159 -10.5t126 -37t97 -73t63.5 -117.5t33.5 -172t0 -235h-649q3 -120 56 -159.5t175 -39.5q59 0 146.5 10t144.5 25l47 -239q-77 -26 -183 -42t-196 -16q-116 0 -205.5 27.5t-161 90t-109.5 173.5t-38 268q0 155 34 263t101 169.5t154 88t205 26.5z M602 840q-96 0 -132 -37t-50 -139h348q-3 107 -37.5 141.5t-128.5 34.5z" />
<glyph unicode="f" horiz-adv-x="792" d="M485 1047h324v-271h-324v-776h-313v776h-170v271h170v55q0 91 21.5 159.5t56.5 111t87.5 69.5t108 37t123.5 10q172 0 316 -51l-68 -244q-89 29 -182 29q-81 0 -115.5 -32t-34.5 -110v-34z" />
<glyph unicode="g" horiz-adv-x="1220" d="M1085 1004v-920q0 -88 -15 -159.5t-41.5 -123.5t-67.5 -90.5t-87.5 -63t-107.5 -39.5t-123 -20.5t-137 -5.5q-99 0 -204 17.5t-179 44.5l55 245q177 -47 322 -47q136 0 203 43t67 152q-118 -60 -254 -60q-106 0 -180.5 25t-131 85t-83.5 166.5t-27 262.5q0 160 30 268 t95.5 173t159 92.5t231.5 27.5q123 0 256 -20.5t219 -52.5zM770 315v484q-69 28 -160 28q-49 0 -79 -6t-55 -23.5t-38 -52.5t-19.5 -88.5t-6.5 -134.5q0 -165 39.5 -222.5t150.5 -57.5q71 0 119.5 20t48.5 53z" />
<glyph unicode="h" horiz-adv-x="1222" d="M729 1077q73 0 126 -10.5t101.5 -40.5t78.5 -81t47.5 -135t17.5 -200v-610h-316v590q0 64 -12.5 106.5t-38 64.5t-55 30t-72.5 8q-65 0 -110 -17.5t-45 -48.5v-733h-316v1479h316v-467q137 65 278 65z" />
<glyph unicode="i" horiz-adv-x="581" d="M451 1049v-1049h-316v1049h316zM293 1503q104 0 141 -28t37 -121q0 -102 -37 -134t-141 -32q-105 0 -141.5 31.5t-36.5 134.5q0 94 36.5 121.5t141.5 27.5z" />
<glyph unicode="j" horiz-adv-x="581" d="M293 1501q105 0 140.5 -27t35.5 -120q0 -104 -36.5 -136t-139.5 -32q-105 0 -141.5 32t-36.5 136q0 93 36 120t142 27zM449 1047v-1049q0 -118 -27 -197t-86 -127.5t-146 -69t-215 -20.5v256q80 0 120 35t40 113v1059h314z" />
<glyph unicode="k" horiz-adv-x="1204" d="M1206 0h-364q-327 521 -391 555v-555h-316v1479h316v-924q90 83 362 494h363q-123 -189 -220 -314t-141 -162q42 -28 148 -179.5t243 -393.5z" />
<glyph unicode="l" horiz-adv-x="598" d="M451 1479v-1174q0 -147 69 -254l-282 -102q-103 124 -103 348v1182h316z" />
<glyph unicode="m" horiz-adv-x="1824" d="M451 778v-778h-316v983q259 94 520 94q173 0 263 -67q191 67 362 67q150 0 239.5 -45.5t135 -155t45.5 -296.5v-580h-314v555q0 144 -34 193t-140 49q-76 0 -157 -19q20 -92 20 -198v-580h-313v555q0 144 -34 193t-140 49q-72 0 -137 -19z" />
<glyph unicode="n" horiz-adv-x="1222" d="M451 778v-778h-316v983q109 40 254.5 67t278.5 27q112 0 190 -25t133.5 -82t82 -153.5t26.5 -236.5v-580h-316v555q0 145 -35 193.5t-149 48.5q-68 0 -149 -19z" />
<glyph unicode="o" d="M602 -29q-131 0 -222.5 27t-157.5 91t-97 172.5t-31 268.5q0 159 31.5 266t98 168.5t157 87t221.5 25.5q133 0 224.5 -25.5t158 -87t98 -168.5t31.5 -266q0 -160 -31 -268.5t-97.5 -172.5t-158.5 -91t-225 -27zM602 831q-60 0 -92.5 -9t-57 -42t-32.5 -92.5t-8 -163.5 q0 -133 18 -198t56 -87t116 -22q80 0 118.5 22t56.5 87t18 198q0 84 -6 137.5t-18 88.5t-37 52t-54 23t-78 6z" />
<glyph unicode="p" horiz-adv-x="1220" d="M680 -29q-122 0 -229 47v-411h-316v1397q84 32 218 52.5t257 20.5q110 0 190.5 -16.5t143.5 -55t102 -102.5t58.5 -157.5t19.5 -221.5q0 -155 -32 -264.5t-93 -171.5t-139 -89.5t-180 -27.5zM610 815q-96 0 -159 -24v-482q0 -35 46 -57.5t115 -22.5q113 0 155 61t42 226 q0 127 -19.5 191t-59.5 86t-120 22z" />
<glyph unicode="q" horiz-adv-x="1220" d="M508 -29q-106 0 -180 26t-128.5 87.5t-80 168t-25.5 263.5q0 160 30 268t95.5 173t159 92.5t231.5 27.5q123 0 256 -20.5t219 -52.5v-1397h-315v428q-118 -64 -262 -64zM610 827q-49 0 -79 -6t-55 -23.5t-38 -52.5t-19.5 -88.5t-6.5 -134.5q0 -165 39.5 -222.5 t150.5 -57.5q71 0 119.5 20t48.5 53v484q-69 28 -160 28z" />
<glyph unicode="r" horiz-adv-x="813" d="M705 1077q49 0 104 -6v-293q-58 17 -147 17t-150 -28.5t-61 -78.5v-688h-316v1049h316v-82q63 110 254 110z" />
<glyph unicode="s" horiz-adv-x="991" d="M838 786q-160 45 -310 45q-82 0 -114.5 -16.5t-32.5 -73.5q0 -42 35 -58.5t155 -31.5q190 -24 271.5 -93.5t81.5 -225.5q0 -83 -24 -146.5t-65 -104t-101.5 -65.5t-128 -35t-150.5 -10q-88 0 -195.5 16t-177.5 42l61 237q146 -43 297 -43q101 0 141 17t40 75 q0 30 -16 47.5t-61 29.5t-132 20t-146 25.5t-103.5 51.5t-65.5 91t-21 139q0 83 23.5 146.5t64 103t101 64.5t127 34.5t149.5 9.5q86 0 186 -15.5t172 -41.5z" />
<glyph unicode="t" horiz-adv-x="874" d="M829 776h-327v-411q0 -65 34 -96t107 -31q77 0 168 26l51 -241q-143 -52 -315 -52q-91 0 -153.5 16t-111.5 57.5t-72.5 117.5t-23.5 190v424h-170v271h170v155l316 129v-284h327v-271z" />
<glyph unicode="u" horiz-adv-x="1222" d="M776 272v777h311v-983q-108 -40 -253 -67.5t-277 -27.5q-150 0 -242 46t-140 156t-48 296v580h311v-557q0 -143 36.5 -191.5t150.5 -48.5q72 0 151 20z" />
<glyph unicode="v" horiz-adv-x="1048" d="M524 319q158 452 226 730h311q-151 -515 -367 -1049h-377q-164 582 -342 1049h320q115 -298 229 -730z" />
<glyph unicode="w" horiz-adv-x="1716" d="M1731 1049q-173 -589 -361 -1049h-377q-72 358 -137 608q-56 -263 -170 -608h-377q-140 517 -334 1049h322q126 -339 219 -721q45 135 108 357.5t97 363.5h285q44 -138 102 -354t92 -367q153 447 215 721h316z" />
<glyph unicode="x" horiz-adv-x="1064" d="M739 1047h342q-111 -171 -356 -517q237 -338 358 -530h-346q-58 101 -188 287q-136 -186 -219 -287h-342q121 143 399 522q-227 321 -395 525h360q56 -70 205 -277q59 82 182 277z" />
<glyph unicode="y" horiz-adv-x="1048" d="M748 1047h313q-210 -738 -549 -1440h-346q79 135 172 342q-143 520 -361 1098h318q116 -303 229 -730q157 450 224 730z" />
<glyph unicode="z" horiz-adv-x="1019" d="M55 1047h938v-52q-97 -160 -242.5 -375.5t-246.5 -349.5h465v-270h-951v49q124 163 274.5 385.5t219.5 341.5h-457v271z" />
<glyph unicode="{" horiz-adv-x="774" d="M428 565q28 -8 57.5 -40.5t58 -89t46.5 -148.5t18 -203q0 -144 23 -229t63 -123.5t115 -67.5l-150 -227q-56 19 -102.5 43.5t-94.5 67.5t-80.5 98t-53.5 137.5t-21 183.5q0 233 -64.5 351t-162.5 118v260q98 0 162.5 117t64.5 350q0 415 352 533l150 -234 q-53 -20 -87 -45.5t-61.5 -72t-40 -121t-12.5 -183.5q0 -110 -18 -201.5t-46.5 -146.5t-58 -87t-57.5 -40z" />
<glyph unicode="|" horiz-adv-x="821" d="M246 1546h329v-2070h-329v2070z" />
<glyph unicode="}" horiz-adv-x="774" d="M694 436q-98 0 -162.5 -118t-64.5 -351q0 -101 -21 -183.5t-53.5 -137.5t-80.5 -98t-94.5 -67.5t-102.5 -43.5l-150 231q54 21 87.5 46.5t61.5 72t40 120.5t12 183q0 111 18 202.5t46.5 146t58 86.5t57.5 40q-63 19 -121.5 145t-58.5 337q0 110 -11.5 183t-38.5 119 t-61 71t-90 48l150 228q352 -118 352 -533q0 -233 64.5 -350t162.5 -117v-260z" />
<glyph unicode="~" horiz-adv-x="1153" d="M913 932l197 -158q-40 -106 -128 -177t-208 -71q-58 0 -120 26.5t-106.5 58.5t-98.5 58.5t-97 26.5q-39 0 -69 -25t-58 -91l-178 174q58 99 129 154t168 55q66 0 133.5 -26t113 -57t97.5 -57t92 -26q47 0 75.5 28.5t57.5 106.5z" />
<glyph unicode="&#xa1;" horiz-adv-x="681" d="M530 -362h-374l73 944h228zM340 729q-112 0 -151 31t-39 135q0 113 39 147.5t151 34.5q109 0 147.5 -34.5t38.5 -147.5q0 -103 -38.5 -134.5t-147.5 -31.5z" />
<glyph unicode="&#xa2;" horiz-adv-x="931" d="M483 1534h242v-219q96 -6 193 -39l-64 -252q-50 21 -129 25v-557q79 4 129 28l64 -252q-82 -31 -193 -45v-246h-242v246q-92 14 -161 49.5t-121.5 99.5t-79.5 165t-27 237q0 135 27.5 235t80.5 162.5t121.5 96.5t159.5 47v219zM383 770q0 -205 100 -254v512 q-50 -26 -75 -85t-25 -173z" />
<glyph unicode="&#xa3;" horiz-adv-x="1259" d="M61 573v261h115v131q0 253 141.5 375t454.5 122q263 0 457 -67l-68 -283q-162 47 -391 47q-105 0 -163 -18.5t-79.5 -53.5t-21.5 -98v-155h407v-261h-407v-284h672v-289h-1002v573h-115z" />
<glyph unicode="&#xa4;" horiz-adv-x="1409" d="M715 170q-105 0 -178 23l-150 -193l-270 184l151 201q-63 120 -63 344q0 207 55 326l-147 192l293 180l131 -172q84 23 178 23q85 0 174 -21l110 170l293 -178l-127 -182q62 -124 62 -338q0 -218 -62 -342l142 -203l-293 -184l-127 190q-73 -20 -172 -20zM715 1016 q-51 0 -80 -4.5t-57 -20t-41 -47.5t-21 -85.5t-8 -135.5q0 -79 8 -131.5t21.5 -85t40.5 -48.5t57 -21t80 -5t80 5t57 21t40.5 48.5t21.5 85t8 131.5q0 82 -8 135.5t-21 85.5t-41 47.5t-57 20t-80 4.5z" />
<glyph unicode="&#xa5;" horiz-adv-x="1337" d="M184 532v224h211q-336 459 -508 671h439q185 -243 366 -505q252 355 340 505h408q-203 -311 -463 -671h192v-224h-317v-139h317v-223h-317v-170h-330v170h-338v223h338v139h-338z" />
<glyph unicode="&#xa6;" horiz-adv-x="821" d="M246 1546h329v-751h-329v751zM246 227h329v-751h-329v751z" />
<glyph unicode="&#xa7;" horiz-adv-x="1273" d="M1147 1397l-64 -264q-144 45 -364 45q-146 0 -203 -30.5t-57 -100.5q0 -46 19.5 -70t77 -40.5t175.5 -29.5q237 -27 357 -122.5t120 -278.5q0 -132 -100 -244q68 -83 68 -217q0 -240 -156 -350.5t-461 -110.5q-255 0 -426 64l64 266q150 -47 364 -47q146 0 203 31.5 t57 101.5q0 46 -20 70t-77 40t-175 29q-237 27 -357 122t-120 280q0 142 92 252q-62 80 -62 208q0 240 157 350.5t462 110.5q117 0 232 -17.5t194 -47.5zM440 647q-39 -26 -39 -86q0 -35 11 -56t46.5 -39t98 -29t170.5 -21q65 -6 111 -21q41 38 41 90q0 46 -22.5 71 t-92.5 43.5t-211 31.5q-62 3 -113 16z" />
<glyph unicode="&#xa8;" horiz-adv-x="1003" d="M254 1421q83 0 112 -24.5t29 -106.5q0 -89 -29.5 -117t-111.5 -28q-81 0 -110 28t-29 117q0 82 29 106.5t110 24.5zM717 1421q81 0 110 -24.5t29 -106.5q0 -89 -29 -117t-110 -28q-84 0 -113 27.5t-29 117.5q0 82 28.5 106.5t113.5 24.5z" />
<glyph unicode="&#xa9;" horiz-adv-x="1677" d="M840 -29q-148 0 -259.5 22.5t-203.5 75.5t-150 139.5t-89.5 216t-31.5 304.5q0 172 31.5 299t89.5 210t150.5 133t203 70.5t259.5 20.5q147 0 257.5 -20.5t202.5 -70.5t150 -133t89.5 -210t31.5 -299q0 -175 -31 -304.5t-89 -216t-149.5 -139.5t-203 -75.5t-258.5 -22.5z M838 1237q-71 0 -121.5 -3t-99.5 -12.5t-81.5 -25.5t-62.5 -43t-47.5 -64t-30.5 -89.5t-18.5 -118.5t-5.5 -152q0 -118 9.5 -201.5t34 -144t57.5 -97t89 -57.5t119.5 -28.5t157.5 -7.5q95 0 158.5 7.5t120 28.5t89.5 57.5t57.5 97t34 144t9.5 201.5q0 86 -5.5 152 t-18.5 118.5t-30.5 89.5t-47.5 64t-62.5 43t-82 25.5t-100.5 12.5t-122 3zM1104 545l53 -209q-111 -43 -260 -43q-115 0 -188.5 17.5t-128.5 64.5t-79 131.5t-24 216.5q0 105 16.5 179t47.5 122t84 75t116.5 37.5t155.5 10.5q154 0 260 -39l-53 -211q-79 27 -186 27 q-52 0 -81.5 -6.5t-53 -28t-32 -62t-8.5 -108.5q0 -85 18.5 -129t54 -59t102.5 -15q110 0 186 29z" />
<glyph unicode="&#xaa;" horiz-adv-x="921" d="M799 1184v-449q-72 -27 -173.5 -42t-187.5 -15q-185 0 -250 50t-65 196q0 76 19.5 125.5t60.5 74t88.5 33t120.5 8.5q78 0 163 -16q0 78 -29.5 102.5t-133.5 24.5q-127 0 -228 -33l-34 180q164 39 315 39q171 0 252.5 -62.5t81.5 -215.5zM575 862v142q-39 10 -114 10 q-61 0 -84 -15t-23 -67q0 -53 20.5 -71.5t82.5 -18.5q63 0 118 20z" />
<glyph unicode="&#xab;" horiz-adv-x="1443" d="M782 1057l-319 -400l319 -407l-176 -184l-559 585l555 586zM1397 1057l-322 -400l322 -407l-178 -184l-557 585l555 586z" />
<glyph unicode="&#xac;" horiz-adv-x="1087" d="M55 602v301h973v-903h-328v602h-645z" />
<glyph unicode="&#xad;" horiz-adv-x="649" d="M55 432v301h539v-301h-539z" />
<glyph unicode="&#xae;" horiz-adv-x="1173" d="M707 1217q74 0 112.5 -51.5t38.5 -131.5q0 -89 -36 -124.5t-109 -35.5q46 -21 76 -65t42 -141h-192q-4 56 -26.5 99.5t-43.5 43.5h-26v-143h-185v549h349zM633 1071h-90v-96h90q35 0 35 49q0 47 -35 47zM588 1462q134 0 225 -24t156 -83t95 -160.5t30 -254.5 q0 -151 -29.5 -252t-94.5 -161t-156.5 -85.5t-225.5 -25.5t-226 25.5t-157 85.5t-95 161.5t-30 251.5q0 153 30 254.5t96 160.5t157 83t225 24zM588 1288q-62 0 -104 -4.5t-80 -18.5t-60 -37.5t-38.5 -62.5t-23 -93.5t-6.5 -131.5q0 -108 15.5 -175t54 -106t94.5 -53 t148 -14q93 0 149.5 14t95.5 53.5t54.5 106t15.5 174.5q0 77 -6.5 131t-23 93.5t-39 63t-60.5 37.5t-80.5 18.5t-105.5 4.5z" />
<glyph unicode="&#xaf;" horiz-adv-x="1052" d="M238 1171v218h598v-218h-598z" />
<glyph unicode="&#xb0;" horiz-adv-x="917" d="M457 516q-150 0 -235 43t-126 148t-41 292q0 138 21 227t71.5 142t123.5 73.5t186 20.5q114 0 187 -20.5t123.5 -73.5t71.5 -141.5t21 -227.5q0 -141 -21 -233t-71 -148t-124 -79t-187 -23zM457 1245q-55 0 -80 -16t-37 -68t-12 -164q0 -115 12 -170t37.5 -73.5 t79.5 -18.5q55 0 80.5 19t37 73t11.5 170q0 112 -11.5 163.5t-36.5 68t-81 16.5z" />
<glyph unicode="&#xb1;" horiz-adv-x="1153" d="M74 16v301h1003v-301h-1003zM74 760v301h350v350h301v-350h352v-301h-352v-350h-301v350h-350z" />
<glyph unicode="&#xb2;" horiz-adv-x="929" d="M141 1192l-41 225q53 19 140.5 31t173.5 12q196 0 291.5 -65.5t95.5 -220.5q0 -91 -32 -160.5t-103 -98.5q-43 -17 -94 -34t-78.5 -26t-55 -21.5t-40.5 -28.5t-17 -39h422v-217h-729q12 186 69 285t185 161q30 14 70.5 30.5t60.5 25.5t41.5 23t30 31.5t8.5 43.5 q0 42 -31.5 59t-114.5 17q-55 0 -131.5 -10.5t-120.5 -22.5z" />
<glyph unicode="&#xb3;" horiz-adv-x="915" d="M584 1012q123 -6 175 -63t52 -169q0 -140 -103.5 -199t-310.5 -59q-160 0 -305 31l39 211q37 -12 102 -19.5t115 -7.5q105 0 139.5 17t34.5 63q0 53 -24.5 70.5t-91.5 17.5h-130v199h125q63 0 85 16t22 60q0 40 -30.5 53.5t-131.5 13.5q-131 0 -211 -26l-39 206 q132 33 301 33q204 0 299 -53.5t95 -179.5q0 -102 -45.5 -154t-161.5 -61z" />
<glyph unicode="&#xb4;" horiz-adv-x="972" d="M446 1163h-266l252 264h322z" />
<glyph unicode="&#xb6;" horiz-adv-x="1400" d="M1233 0h-285v444h-164v-444h-284v444h-66q-97 0 -172.5 38.5t-122 106t-70.5 153t-24 184.5q0 473 350 495q83 6 168 6h670v-1427z" />
<glyph unicode="&#xb7;" horiz-adv-x="643" d="M319 801q122 0 163.5 -33t41.5 -145q0 -121 -42 -159t-163 -38q-118 0 -159 38t-41 159q0 112 40.5 145t159.5 33z" />
<glyph unicode="&#xb8;" horiz-adv-x="1300" d="M678 0h117v-80q110 0 162.5 -37.5t52.5 -124.5q0 -99 -65 -136.5t-228 -37.5q-119 0 -193 27l49 123q43 -19 127 -19q40 0 55 10.5t15 36.5q0 22 -15.5 33t-52.5 14t-98 -2z" />
<glyph unicode="&#xb9;" horiz-adv-x="813" d="M584 553h-256v582l-195 -80l-70 215l521 211v-928z" />
<glyph unicode="&#xba;" horiz-adv-x="962" d="M479 647q-185 0 -277.5 94.5t-92.5 315.5q0 220 93 312.5t277 92.5q189 0 282 -92.5t93 -312.5q0 -221 -93.5 -315.5t-281.5 -94.5zM479 1274q-54 0 -81 -15.5t-40.5 -63t-13.5 -142.5q0 -91 13 -137.5t41 -64t81 -17.5q80 0 108.5 43.5t28.5 175.5q0 95 -13.5 142.5 t-41 63t-82.5 15.5z" />
<glyph unicode="&#xbb;" horiz-adv-x="1443" d="M662 248l319 399l-319 408l178 184l557 -588l-555 -583zM49 248l320 399l-320 408l176 184l557 -588l-555 -583z" />
<glyph unicode="&#xbc;" horiz-adv-x="1845" d="M1133 1427h303l-920 -1427h-303zM539 1481v-928h-254v582l-197 -80l-68 215zM1397 410v284q-119 -155 -191 -284h191zM1649 899v-489h116v-224h-116v-186h-252v186h-469v115q179 305 393 598h328z" />
<glyph unicode="&#xbd;" horiz-adv-x="1845" d="M1128 1427h304l-920 -1427h-303zM535 1481v-928h-254v582l-197 -80l-68 215zM1405 911q196 0 292.5 -65.5t96.5 -218.5q0 -216 -162 -275q-22 -7 -51.5 -16.5t-46.5 -15.5t-39 -13.5t-35 -12.5t-28 -12t-23.5 -13.5t-16.5 -14.5t-12 -16.5t-6 -18.5h422v-219h-729 q12 194 73.5 293.5t202.5 163.5q15 7 55.5 24t55.5 25t38 23.5t31.5 32.5t8.5 38q0 44 -31.5 61t-116.5 17q-58 0 -131 -11t-118 -24l-41 225q53 19 140 31t171 12z" />
<glyph unicode="&#xbe;" horiz-adv-x="1845" d="M1268 1427h303l-920 -1427h-303zM1440 186h-467v113q82 141 193 310.5t200 289.5h328v-489h114v-224h-114v-186h-254v186zM1440 410v284q-106 -139 -191 -284h191zM217 905v199h150q49 3 65.5 19.5t16.5 56.5q0 38 -30.5 51.5t-129.5 13.5q-137 0 -213 -24 q-20 116 -39 206q150 33 303 33q203 0 297 -53.5t94 -179.5q0 -102 -45 -154t-160 -61q122 -6 174 -63.5t52 -170.5q0 -138 -103.5 -198t-308.5 -60q-153 0 -307 33l39 209q91 -25 217 -25h24q91 3 121.5 21t30.5 59q0 53 -25 70.5t-94 17.5h-129z" />
<glyph unicode="&#xbf;" horiz-adv-x="1193" d="M553 496v125h311v-375h-127q-127 0 -186.5 -14.5t-82 -49.5t-22.5 -110q0 -104 45.5 -135t188.5 -31q232 0 362 39l60 -295q-209 -47 -445 -47q-162 0 -265.5 22t-172 78t-97 147.5t-28.5 233.5q0 120 29 201t89.5 127t142 65t198.5 19zM719 729q-112 0 -150.5 31 t-38.5 135q0 59 9 94.5t32.5 55t57 26t90.5 6.5q109 0 147.5 -34.5t38.5 -147.5q0 -103 -38.5 -134.5t-147.5 -31.5z" />
<glyph unicode="&#xc0;" horiz-adv-x="1411" d="M1112 0q-66 158 -119 315h-590l-92 -315h-354q91 300 238 713.5t270 713.5h510q101 -334 244.5 -740t259.5 -687h-367zM729 1141h-53q-94 -248 -187 -541h408q-84 249 -168 541zM924 1530h-273l-321 264h327z" />
<glyph unicode="&#xc1;" horiz-adv-x="1411" d="M1112 0q-66 158 -119 315h-590l-92 -315h-354q91 300 238 713.5t270 713.5h510q101 -334 244.5 -740t259.5 -687h-367zM729 1141h-53q-94 -248 -187 -541h408q-84 249 -168 541zM748 1530h-265l260 264h326z" />
<glyph unicode="&#xc2;" horiz-adv-x="1411" d="M1112 0q-66 158 -119 315h-590l-92 -315h-354q91 300 238 713.5t270 713.5h510q101 -334 244.5 -740t259.5 -687h-367zM842 1530l-137 147l-132 -147h-266l250 264h301l258 -264h-274zM729 1141h-53q-94 -248 -187 -541h408q-84 249 -168 541z" />
<glyph unicode="&#xc3;" horiz-adv-x="1411" d="M1112 0q-66 158 -119 315h-590l-92 -315h-354q91 300 238 713.5t270 713.5h510q101 -334 244.5 -740t259.5 -687h-367zM940 1812l147 -118q-30 -84 -97 -138.5t-159 -54.5q-55 0 -107 24t-98.5 48t-86.5 24q-30 0 -53 -20.5t-46 -71.5l-133 131q91 162 225 162 q64 0 120.5 -23t102 -46t83.5 -23q36 0 57.5 22t44.5 84zM729 1141h-53q-94 -248 -187 -541h408q-84 249 -168 541z" />
<glyph unicode="&#xc4;" horiz-adv-x="1411" d="M1112 0q-66 158 -119 315h-590l-92 -315h-354q91 300 238 713.5t270 713.5h510q101 -334 244.5 -740t259.5 -687h-367zM729 1141h-53q-94 -248 -187 -541h408q-84 249 -168 541zM473 1786q83 0 112 -23.5t29 -105.5q0 -91 -29 -118.5t-112 -27.5q-82 0 -110.5 27.5 t-28.5 118.5q0 82 28 105.5t111 23.5zM936 1786q82 0 110.5 -24t28.5 -105q0 -91 -29 -118.5t-110 -27.5q-84 0 -112.5 27.5t-28.5 118.5q0 82 28 105.5t113 23.5z" />
<glyph unicode="&#xc5;" horiz-adv-x="1411" d="M1112 0q-66 158 -119 315h-590l-92 -315h-354q91 300 238 713.5t270 713.5h510q101 -334 244.5 -740t259.5 -687h-367zM707 1841q133 0 192 -45t59 -160t-58.5 -159.5t-192.5 -44.5q-135 0 -195.5 44.5t-60.5 159.5q0 116 58.5 160.5t197.5 44.5zM729 1141h-53 q-94 -248 -187 -541h408q-84 249 -168 541zM707 1714q-58 0 -77.5 -17.5t-19.5 -62.5t19.5 -62.5t77.5 -17.5q56 0 75 18t19 62q0 45 -19 62.5t-75 17.5z" />
<glyph unicode="&#xc6;" horiz-adv-x="1990" d="M670 1427h1272v-288h-734v-256h428v-283h-428v-311h734v-289h-1063v315h-605l-198 -315h-398q194 302 481 715.5t511 711.5zM459 600h420v541h-52q-173 -245 -368 -541z" />
<glyph unicode="&#xc7;" horiz-adv-x="1204" d="M100 727q0 146 18 257.5t56 193t91.5 136t131.5 87.5t169 47t210 14q101 0 217.5 -14t196.5 -37l-64 -291q-109 39 -280 39q-59 0 -100 -2.5t-82.5 -10t-68.5 -21t-53 -36.5t-41 -54.5t-26.5 -76.5t-16.5 -102.5t-5 -132.5q0 -99 8.5 -169.5t30 -121t49.5 -80.5t76 -47 t100 -23t129 -6q68 0 148 11t132 28l64 -297q-168 -44 -389 -47v-51q110 0 162.5 -37.5t52.5 -124.5q0 -99 -65 -136.5t-228 -37.5q-119 0 -193 27l50 123q43 -19 127 -19q39 0 54 10.5t15 36.5q0 22 -15.5 33t-52.5 14t-98 -2l64 168q-150 10 -254.5 53t-177.5 131 t-107.5 227.5t-34.5 340.5z" />
<glyph unicode="&#xc8;" horiz-adv-x="1282" d="M168 1427h1065v-288h-735v-256h526v-283h-526v-311h735v-289h-1065v1427zM989 1530h-272l-322 264h328z" />
<glyph unicode="&#xc9;" horiz-adv-x="1282" d="M168 1427h1065v-288h-735v-256h526v-283h-526v-311h735v-289h-1065v1427zM766 1530h-264l260 264h325z" />
<glyph unicode="&#xca;" horiz-adv-x="1282" d="M168 1427h1065v-288h-735v-256h526v-283h-526v-311h735v-289h-1065v1427zM848 1530l-137 147l-131 -147h-267l250 264h301l258 -264h-274z" />
<glyph unicode="&#xcb;" horiz-adv-x="1282" d="M168 1427h1065v-288h-735v-256h526v-283h-526v-311h735v-289h-1065v1427zM479 1786q84 0 113 -24t29 -105q0 -91 -29.5 -118.5t-112.5 -27.5q-82 0 -110.5 27.5t-28.5 118.5q0 82 28 105.5t111 23.5zM942 1786q82 0 110.5 -24t28.5 -105q0 -91 -29 -118.5t-110 -27.5 q-84 0 -112.5 27.5t-28.5 118.5q0 82 28 105.5t113 23.5z" />
<glyph unicode="&#xcc;" horiz-adv-x="665" d="M168 1427h330v-1427h-330v1427zM535 1530h-273l-321 264h327z" />
<glyph unicode="&#xcd;" horiz-adv-x="665" d="M168 1427h330v-1427h-330v1427zM406 1530h-265l260 264h326z" />
<glyph unicode="&#xce;" horiz-adv-x="665" d="M168 1427h330v-1427h-330v1427zM465 1530l-137 147l-131 -147h-267l250 264h301l258 -264h-274z" />
<glyph unicode="&#xcf;" horiz-adv-x="665" d="M168 1427h330v-1427h-330v1427zM104 1786q84 0 113 -24t29 -105q0 -91 -29.5 -118.5t-112.5 -27.5q-82 0 -110.5 27.5t-28.5 118.5q0 82 28 105.5t111 23.5zM567 1786q82 0 111 -24t29 -105q0 -90 -29.5 -118t-110.5 -28q-84 0 -112.5 27.5t-28.5 118.5q0 82 28 105.5 t113 23.5z" />
<glyph unicode="&#xd0;" horiz-adv-x="1542" d="M61 614v226h107v587h596q142 0 246.5 -20t189 -68t136 -129t79 -202t27.5 -287t-27 -288t-79.5 -205.5t-136 -134t-189 -72t-246.5 -21.5h-596v614h-107zM1090 717q0 73 -3.5 127.5t-13 98.5t-22 74t-35.5 52.5t-48 35t-64.5 20t-79.5 10t-99 2.5h-227v-297h323v-226 h-323v-323h227q77 0 128 5.5t94.5 23t68.5 46t43 77.5t24.5 114t6.5 160z" />
<glyph unicode="&#xd1;" horiz-adv-x="1630" d="M1460 1427v-1427h-407q-244 452 -564 975v-975h-321v1427h430q277 -453 535 -940v940h327zM1059 1812l147 -118q-30 -84 -97 -138.5t-159 -54.5q-55 0 -107.5 24t-99 48t-86.5 24q-30 0 -52.5 -20.5t-45.5 -71.5l-133 131q91 162 225 162q51 0 97.5 -14.5t76 -31.5 t65 -31.5t66.5 -14.5q36 0 58 22t45 84z" />
<glyph unicode="&#xd2;" horiz-adv-x="1587" d="M795 -29q-179 0 -303.5 36t-215 122t-133.5 234t-43 366q0 173 29 299t83 209.5t141 133.5t193 70.5t249 20.5t248.5 -20.5t192.5 -70.5t141 -133.5t83 -209.5t29 -299q0 -218 -43 -366t-133.5 -234t-215 -122t-302.5 -36zM795 1159q-78 0 -126 -4.5t-90.5 -22 t-63.5 -44.5t-37 -78t-20.5 -117t-4.5 -168q0 -104 5 -171.5t20 -121t37 -82.5t63.5 -48t90.5 -24.5t126 -5.5t126 5.5t90.5 24.5t63.5 48t37 82.5t20 121t5 171.5q0 102 -4.5 168t-20.5 117t-37 78t-63.5 44.5t-90.5 22t-126 4.5zM1014 1530h-273l-321 264h328z" />
<glyph unicode="&#xd3;" horiz-adv-x="1587" d="M795 -29q-179 0 -303.5 36t-215 122t-133.5 234t-43 366q0 173 29 299t83 209.5t141 133.5t193 70.5t249 20.5t248.5 -20.5t192.5 -70.5t141 -133.5t83 -209.5t29 -299q0 -218 -43 -366t-133.5 -234t-215 -122t-302.5 -36zM795 1159q-78 0 -126 -4.5t-90.5 -22 t-63.5 -44.5t-37 -78t-20.5 -117t-4.5 -168q0 -104 5 -171.5t20 -121t37 -82.5t63.5 -48t90.5 -24.5t126 -5.5t126 5.5t90.5 24.5t63.5 48t37 82.5t20 121t5 171.5q0 102 -4.5 168t-20.5 117t-37 78t-63.5 44.5t-90.5 22t-126 4.5zM766 1530h-264l260 264h325z" />
<glyph unicode="&#xd4;" horiz-adv-x="1587" d="M795 -29q-179 0 -303.5 36t-215 122t-133.5 234t-43 366q0 173 29 299t83 209.5t141 133.5t193 70.5t249 20.5t248.5 -20.5t192.5 -70.5t141 -133.5t83 -209.5t29 -299q0 -218 -43 -366t-133.5 -234t-215 -122t-302.5 -36zM795 1159q-78 0 -126 -4.5t-90.5 -22 t-63.5 -44.5t-37 -78t-20.5 -117t-4.5 -168q0 -104 5 -171.5t20 -121t37 -82.5t63.5 -48t90.5 -24.5t126 -5.5t126 5.5t90.5 24.5t63.5 48t37 82.5t20 121t5 171.5q0 102 -4.5 168t-20.5 117t-37 78t-63.5 44.5t-90.5 22t-126 4.5zM922 1530l-138 147l-131 -147h-266 l250 264h301l258 -264h-274z" />
<glyph unicode="&#xd5;" horiz-adv-x="1587" d="M795 -29q-179 0 -303.5 36t-215 122t-133.5 234t-43 366q0 173 29 299t83 209.5t141 133.5t193 70.5t249 20.5t248.5 -20.5t192.5 -70.5t141 -133.5t83 -209.5t29 -299q0 -218 -43 -366t-133.5 -234t-215 -122t-302.5 -36zM795 1159q-78 0 -126 -4.5t-90.5 -22 t-63.5 -44.5t-37 -78t-20.5 -117t-4.5 -168q0 -104 5 -171.5t20 -121t37 -82.5t63.5 -48t90.5 -24.5t126 -5.5t126 5.5t90.5 24.5t63.5 48t37 82.5t20 121t5 171.5q0 102 -4.5 168t-20.5 117t-37 78t-63.5 44.5t-90.5 22t-126 4.5zM1036 1812l148 -118q-30 -84 -97 -138.5 t-159 -54.5q-55 0 -107.5 24t-99 48t-86.5 24q-30 0 -52.5 -20.5t-45.5 -71.5l-134 131q91 162 226 162q51 0 97.5 -14.5t76 -31.5t65 -31.5t66.5 -14.5q36 0 57.5 22t44.5 84z" />
<glyph unicode="&#xd6;" horiz-adv-x="1587" d="M795 -29q-179 0 -303.5 36t-215 122t-133.5 234t-43 366q0 173 29 299t83 209.5t141 133.5t193 70.5t249 20.5t248.5 -20.5t192.5 -70.5t141 -133.5t83 -209.5t29 -299q0 -218 -43 -366t-133.5 -234t-215 -122t-302.5 -36zM795 1159q-78 0 -126 -4.5t-90.5 -22 t-63.5 -44.5t-37 -78t-20.5 -117t-4.5 -168q0 -104 5 -171.5t20 -121t37 -82.5t63.5 -48t90.5 -24.5t126 -5.5t126 5.5t90.5 24.5t63.5 48t37 82.5t20 121t5 171.5q0 102 -4.5 168t-20.5 117t-37 78t-63.5 44.5t-90.5 22t-126 4.5zM559 1786q83 0 112 -23.5t29 -105.5 q0 -91 -29 -118.5t-112 -27.5q-82 0 -110.5 27.5t-28.5 118.5q0 82 28 105.5t111 23.5zM1022 1786q82 0 110.5 -24t28.5 -105q0 -91 -29 -118.5t-110 -27.5q-84 0 -112.5 27.5t-28.5 118.5q0 82 28 105.5t113 23.5z" />
<glyph unicode="&#xd7;" horiz-adv-x="1153" d="M328 285l-213 213l245 247l-247 248l213 213l247 -248l248 250l215 -215l-250 -248l248 -247l-213 -213l-248 247z" />
<glyph unicode="&#xd8;" horiz-adv-x="1587" d="M1253 1427h336l-196 -223q94 -166 94 -475q0 -175 -28.5 -304.5t-82.5 -216.5t-140.5 -139.5t-192.5 -75t-248 -22.5q-259 0 -410 80l-45 -51h-334l195 223q-103 177 -103 506q0 173 29 299t83.5 209.5t141.5 133.5t193.5 70.5t249.5 20.5q266 0 417 -84zM795 1159 q-77 0 -125.5 -5t-90 -22.5t-63.5 -44.5t-37.5 -77t-20.5 -114t-5 -161q0 -124 16 -209l522 602q-63 31 -196 31zM795 272q70 0 116 5t87.5 21.5t64.5 44t41 74.5t24.5 112.5t6.5 158.5q0 118 -15 205l-514 -592q57 -29 189 -29z" />
<glyph unicode="&#xd9;" horiz-adv-x="1525" d="M1042 463v964h332v-1028q0 -101 -28.5 -176.5t-79 -123t-129 -76.5t-168 -40.5t-207.5 -11.5t-208 11.5t-168.5 40.5t-128.5 76.5t-78.5 123t-28.5 176.5v1028h333v-966q0 -101 63 -141.5t216 -40.5q155 0 217.5 40.5t62.5 143.5zM1008 1530h-273l-321 264h327z" />
<glyph unicode="&#xda;" horiz-adv-x="1525" d="M1042 463v964h332v-1028q0 -101 -28.5 -176.5t-79 -123t-129 -76.5t-168 -40.5t-207.5 -11.5t-208 11.5t-168.5 40.5t-128.5 76.5t-78.5 123t-28.5 176.5v1028h333v-966q0 -101 63 -141.5t216 -40.5q155 0 217.5 40.5t62.5 143.5zM786 1530h-264l260 264h326z" />
<glyph unicode="&#xdb;" horiz-adv-x="1525" d="M1042 463v964h332v-1028q0 -101 -28.5 -176.5t-79 -123t-129 -76.5t-168 -40.5t-207.5 -11.5t-208 11.5t-168.5 40.5t-128.5 76.5t-78.5 123t-28.5 176.5v1028h333v-966q0 -101 63 -141.5t216 -40.5q155 0 217.5 40.5t62.5 143.5zM887 1530l-137 147l-132 -147h-266 l250 264h301l258 -264h-274z" />
<glyph unicode="&#xdc;" horiz-adv-x="1525" d="M1042 463v964h332v-1028q0 -101 -28.5 -176.5t-79 -123t-129 -76.5t-168 -40.5t-207.5 -11.5t-208 11.5t-168.5 40.5t-128.5 76.5t-78.5 123t-28.5 176.5v1028h333v-966q0 -101 63 -141.5t216 -40.5q155 0 217.5 40.5t62.5 143.5zM526 1786q84 0 113 -24t29 -105 q0 -91 -29.5 -118.5t-112.5 -27.5q-82 0 -110.5 27.5t-28.5 118.5q0 82 28 105.5t111 23.5zM989 1786q82 0 110.5 -24t28.5 -105q0 -91 -29 -118.5t-110 -27.5q-84 0 -112.5 27.5t-28.5 118.5q0 82 28 105.5t113 23.5z" />
<glyph unicode="&#xdd;" horiz-adv-x="1337" d="M324 1427q172 -222 368 -505q236 332 340 505h406q-233 -362 -586 -845v-582h-330v580q-426 597 -633 847h435zM741 1530h-264l260 264h326z" />
<glyph unicode="&#xde;" horiz-adv-x="1400" d="M168 1427h330v-196h467q391 0 391 -502q0 -99 -24 -184t-70.5 -152t-122 -105t-172.5 -38h-469v-250h-330v1427zM498 520h352q145 0 145 209q0 219 -141 219h-356v-428z" />
<glyph unicode="&#xdf;" horiz-adv-x="1378" d="M682 1462q309 0 440 -84.5t131 -287.5q0 -79 -12.5 -134t-44.5 -100.5t-93.5 -71.5t-154.5 -34q99 -4 165.5 -30t103 -75.5t51 -112t14.5 -151.5q0 -227 -132.5 -318.5t-447.5 -91.5q-80 0 -159 9q6 51 19.5 146t17.5 122q78 -8 139 -8q126 0 172.5 42t46.5 136 q0 109 -50 151.5t-157 42.5h-94v256h47q140 0 188 36.5t48 129.5q0 87 -52 118.5t-188 31.5q-229 0 -229 -168v-1016h-316v1069q0 110 37 187t110.5 122t170.5 64.5t229 19.5z" />
<glyph unicode="&#xe0;" horiz-adv-x="1165" d="M1040 670v-617q-104 -38 -241.5 -60t-255.5 -22q-134 0 -217 15.5t-136.5 56t-74.5 106t-21 170.5q0 87 19.5 149t52 99.5t87 59t112.5 28.5t139 7q102 0 237 -27q0 58 -8 91t-34 56t-71.5 31t-123.5 8q-166 0 -326 -49l-49 250q215 55 451 55q243 0 351.5 -90 t108.5 -317zM741 233v199q-55 14 -170 14q-90 0 -121.5 -21t-31.5 -95q0 -79 28 -102t121 -23q98 0 174 28zM776 1163h-264l-309 264h323z" />
<glyph unicode="&#xe1;" horiz-adv-x="1165" d="M1040 670v-617q-104 -38 -241.5 -60t-255.5 -22q-134 0 -217 15.5t-136.5 56t-74.5 106t-21 170.5q0 87 19.5 149t52 99.5t87 59t112.5 28.5t139 7q102 0 237 -27q0 58 -8 91t-34 56t-71.5 31t-123.5 8q-166 0 -326 -49l-49 250q215 55 451 55q243 0 351.5 -90 t108.5 -317zM741 233v199q-55 14 -170 14q-90 0 -121.5 -21t-31.5 -95q0 -79 28 -102t121 -23q98 0 174 28zM643 1163h-266l252 264h321z" />
<glyph unicode="&#xe2;" horiz-adv-x="1165" d="M1040 670v-617q-104 -38 -241.5 -60t-255.5 -22q-134 0 -217 15.5t-136.5 56t-74.5 106t-21 170.5q0 87 19.5 149t52 99.5t87 59t112.5 28.5t139 7q102 0 237 -27q0 58 -8 91t-34 56t-71.5 31t-123.5 8q-166 0 -326 -49l-49 250q215 55 451 55q243 0 351.5 -90 t108.5 -317zM741 233v199q-55 14 -170 14q-90 0 -121.5 -21t-31.5 -95q0 -79 28 -102t121 -23q98 0 174 28zM715 1163l-135 146l-131 -146h-269l250 264h301l258 -264h-274z" />
<glyph unicode="&#xe3;" horiz-adv-x="1165" d="M1040 670v-617q-104 -38 -241.5 -60t-255.5 -22q-134 0 -217 15.5t-136.5 56t-74.5 106t-21 170.5q0 87 19.5 149t52 99.5t87 59t112.5 28.5t139 7q102 0 237 -27q0 58 -8 91t-34 56t-71.5 31t-123.5 8q-166 0 -326 -49l-49 250q215 55 451 55q243 0 351.5 -90 t108.5 -317zM741 233v199q-55 14 -170 14q-90 0 -121.5 -21t-31.5 -95q0 -79 28 -102t121 -23q98 0 174 28zM805 1450l147 -119q-32 -85 -96.5 -138.5t-157.5 -53.5q-55 0 -106 24t-96.5 48t-85.5 24q-30 0 -53.5 -21t-45.5 -73l-135 133q92 164 227 164q51 0 97.5 -15 t74 -32.5t62 -32.5t65.5 -15q36 0 58 22.5t45 84.5z" />
<glyph unicode="&#xe4;" horiz-adv-x="1165" d="M1040 670v-617q-104 -38 -241.5 -60t-255.5 -22q-134 0 -217 15.5t-136.5 56t-74.5 106t-21 170.5q0 87 19.5 149t52 99.5t87 59t112.5 28.5t139 7q102 0 237 -27q0 58 -8 91t-34 56t-71.5 31t-123.5 8q-166 0 -326 -49l-49 250q215 55 451 55q243 0 351.5 -90 t108.5 -317zM741 233v199q-55 14 -170 14q-90 0 -121.5 -21t-31.5 -95q0 -79 28 -102t121 -23q98 0 174 28zM336 1421q83 0 112 -24.5t29 -106.5q0 -89 -29.5 -117t-111.5 -28q-81 0 -110 28t-29 117q0 82 29 106.5t110 24.5zM799 1421q81 0 110 -24.5t29 -106.5 q0 -89 -29 -117t-110 -28q-84 0 -113 27.5t-29 117.5q0 82 28.5 106.5t113.5 24.5z" />
<glyph unicode="&#xe5;" horiz-adv-x="1165" d="M1040 670v-617q-104 -38 -241.5 -60t-255.5 -22q-134 0 -217 15.5t-136.5 56t-74.5 106t-21 170.5q0 87 19.5 149t52 99.5t87 59t112.5 28.5t139 7q102 0 237 -27q0 58 -8 91t-34 56t-71.5 31t-123.5 8q-166 0 -326 -49l-49 250q215 55 451 55q243 0 351.5 -90 t108.5 -317zM741 233v199q-55 14 -170 14q-90 0 -121.5 -21t-31.5 -95q0 -79 28 -102t121 -23q98 0 174 28zM580 1520q133 0 192 -45t59 -160t-59 -160t-192 -45q-135 0 -195.5 45t-60.5 160q0 116 58.5 160.5t197.5 44.5zM580 1393q-58 0 -77.5 -17.5t-19.5 -62.5 q0 -44 19.5 -61t77.5 -17q56 0 75 17.5t19 60.5q0 46 -18.5 63t-75.5 17z" />
<glyph unicode="&#xe6;" horiz-adv-x="1767" d="M1217 1077q111 0 186.5 -15.5t137.5 -56.5t95.5 -113.5t47 -185.5t4.5 -274h-641q3 -120 56 -159.5t175 -39.5q60 0 148 10.5t143 24.5l49 -239q-79 -26 -184 -42t-195 -16q-177 0 -285 64q-85 -30 -198 -47t-213 -17q-134 0 -217 15.5t-136.5 56t-74.5 106t-21 170.5 q0 87 19.5 149t52 99.5t87 59t112.5 28.5t139 7q102 0 237 -27q0 47 -5 75t-18 50.5t-40.5 33t-68 16t-105.5 5.5q-186 0 -326 -43l-49 250q215 55 451 55q121 0 200 -22t129 -72q97 94 308 94zM770 242q-33 83 -33 190q-55 14 -162 14q-91 0 -122 -20.5t-31 -95.5 q0 -78 26.5 -101.5t120.5 -23.5q45 0 108.5 11.5t92.5 25.5zM1241 840q-97 0 -138 -37t-54 -139h364q-3 106 -40 141t-132 35z" />
<glyph unicode="&#xe7;" horiz-adv-x="966" d="M881 289l65 -264q-122 -50 -309 -54v-51q110 0 162.5 -37.5t52.5 -124.5q0 -99 -65 -136.5t-228 -37.5q-119 0 -192 27l49 123q43 -19 127 -19q39 0 54 10.5t15 36.5q0 22 -15.5 33t-52.5 14t-98 -2l64 170q-202 21 -309 150.5t-107 402.5q0 156 37 264.5t108.5 169.5 t162.5 87t214 26q86 0 178.5 -12t151.5 -33l-65 -266q-110 43 -238 43q-52 0 -84 -5t-63 -21t-47.5 -47t-26.5 -83t-10 -129q0 -91 13.5 -147.5t45 -86t70.5 -39t102 -9.5q127 0 238 47z" />
<glyph unicode="&#xe8;" horiz-adv-x="1138" d="M588 1077q92 0 159 -10.5t126 -37t97 -73t63.5 -117.5t33.5 -172t0 -235h-649q3 -120 56 -159.5t175 -39.5q59 0 146.5 10t144.5 25l47 -239q-77 -26 -183 -42t-196 -16q-116 0 -205.5 27.5t-161 90t-109.5 173.5t-38 268q0 155 34 263t101 169.5t154 88t205 26.5z M602 840q-96 0 -132 -37t-50 -139h348q-3 107 -37.5 141.5t-128.5 34.5zM811 1163h-264l-309 264h323z" />
<glyph unicode="&#xe9;" horiz-adv-x="1138" d="M588 1077q92 0 159 -10.5t126 -37t97 -73t63.5 -117.5t33.5 -172t0 -235h-649q3 -120 56 -159.5t175 -39.5q59 0 146.5 10t144.5 25l47 -239q-77 -26 -183 -42t-196 -16q-116 0 -205.5 27.5t-161 90t-109.5 173.5t-38 268q0 155 34 263t101 169.5t154 88t205 26.5z M602 840q-96 0 -132 -37t-50 -139h348q-3 107 -37.5 141.5t-128.5 34.5zM668 1163h-267l252 264h322z" />
<glyph unicode="&#xea;" horiz-adv-x="1138" d="M588 1077q92 0 159 -10.5t126 -37t97 -73t63.5 -117.5t33.5 -172t0 -235h-649q3 -120 56 -159.5t175 -39.5q59 0 146.5 10t144.5 25l47 -239q-77 -26 -183 -42t-196 -16q-116 0 -205.5 27.5t-161 90t-109.5 173.5t-38 268q0 155 34 263t101 169.5t154 88t205 26.5z M602 840q-96 0 -132 -37t-50 -139h348q-3 107 -37.5 141.5t-128.5 34.5zM739 1163l-135 146l-131 -146h-268l250 264h301l258 -264h-275z" />
<glyph unicode="&#xeb;" horiz-adv-x="1138" d="M588 1077q92 0 159 -10.5t126 -37t97 -73t63.5 -117.5t33.5 -172t0 -235h-649q3 -120 56 -159.5t175 -39.5q59 0 146.5 10t144.5 25l47 -239q-77 -26 -183 -42t-196 -16q-116 0 -205.5 27.5t-161 90t-109.5 173.5t-38 268q0 155 34 263t101 169.5t154 88t205 26.5z M602 840q-96 0 -132 -37t-50 -139h348q-3 107 -37.5 141.5t-128.5 34.5zM373 1421q83 0 112 -24.5t29 -106.5q0 -89 -29.5 -117t-111.5 -28q-81 0 -110.5 28t-29.5 117q0 82 29 106.5t111 24.5zM836 1421q81 0 110 -24.5t29 -106.5q0 -89 -29 -117t-110 -28q-84 0 -113 27.5 t-29 117.5q0 82 28.5 106.5t113.5 24.5z" />
<glyph unicode="&#xec;" horiz-adv-x="581" d="M492 1163h-265l-309 264h324zM451 1049v-1049h-316v1049h316z" />
<glyph unicode="&#xed;" horiz-adv-x="581" d="M348 1163h-266l252 264h321zM451 1049v-1049h-316v1049h316z" />
<glyph unicode="&#xee;" horiz-adv-x="581" d="M451 1049v-1049h-316v1049h316zM424 1163l-135 146l-131 -146h-269l250 264h301l258 -264h-274z" />
<glyph unicode="&#xef;" horiz-adv-x="581" d="M63 1421q83 0 112.5 -24.5t29.5 -106.5q0 -89 -29.5 -117t-112.5 -28q-81 0 -110 28t-29 117q0 82 29 106.5t110 24.5zM526 1421q82 0 111 -24.5t29 -106.5q0 -89 -29.5 -117t-110.5 -28q-84 0 -112.5 27.5t-28.5 117.5q0 82 28 106.5t113 24.5zM451 1049v-1049h-316 v1049h316z" />
<glyph unicode="&#xf0;" horiz-adv-x="1212" d="M590 1507q102 -55 166 -106l157 61l82 -162l-98 -38q221 -266 221 -695q0 -76 -6 -139t-21 -125.5t-40 -111t-64.5 -90.5t-92.5 -69.5t-125.5 -43t-162.5 -15.5q-121 0 -212 26t-147.5 70t-91.5 110.5t-48 139t-13 164.5q0 96 12 171t45 144.5t87.5 114.5t142 72 t205.5 27q44 0 112 -11q-40 79 -96 146l-186 -72l-80 162l127 49q-54 48 -125 98zM797 510q0 132 -17 242q-99 18 -182 18q-116 0 -153 -54t-37 -212q0 -170 39 -230.5t159 -60.5q114 0 152.5 63.5t38.5 233.5z" />
<glyph unicode="&#xf1;" horiz-adv-x="1222" d="M451 778v-778h-316v983q109 40 254.5 67t278.5 27q112 0 190 -25t133.5 -82t82 -153.5t26.5 -236.5v-580h-316v555q0 145 -35 193.5t-149 48.5q-68 0 -149 -19zM854 1450l147 -119q-32 -85 -96 -138.5t-157 -53.5q-55 0 -106.5 24t-97 48t-85.5 24q-30 0 -53.5 -21 t-45.5 -73l-135 133q92 164 228 164q51 0 97.5 -15t74 -32.5t62 -32.5t65.5 -15q36 0 57.5 22.5t44.5 84.5z" />
<glyph unicode="&#xf2;" d="M602 -29q-131 0 -222.5 27t-157.5 91t-97 172.5t-31 268.5q0 159 31.5 266t98 168.5t157 87t221.5 25.5q133 0 224.5 -25.5t158 -87t98 -168.5t31.5 -266q0 -160 -31 -268.5t-97.5 -172.5t-158.5 -91t-225 -27zM602 831q-60 0 -92.5 -9t-57 -42t-32.5 -92.5t-8 -163.5 q0 -133 18 -198t56 -87t116 -22q80 0 118.5 22t56.5 87t18 198q0 84 -6 137.5t-18 88.5t-37 52t-54 23t-78 6zM823 1163h-264l-309 264h323z" />
<glyph unicode="&#xf3;" d="M602 -29q-131 0 -222.5 27t-157.5 91t-97 172.5t-31 268.5q0 159 31.5 266t98 168.5t157 87t221.5 25.5q133 0 224.5 -25.5t158 -87t98 -168.5t31.5 -266q0 -160 -31 -268.5t-97.5 -172.5t-158.5 -91t-225 -27zM602 831q-60 0 -92.5 -9t-57 -42t-32.5 -92.5t-8 -163.5 q0 -133 18 -198t56 -87t116 -22q80 0 118.5 22t56.5 87t18 198q0 84 -6 137.5t-18 88.5t-37 52t-54 23t-78 6zM651 1163h-266l252 264h321z" />
<glyph unicode="&#xf4;" d="M602 -29q-131 0 -222.5 27t-157.5 91t-97 172.5t-31 268.5q0 159 31.5 266t98 168.5t157 87t221.5 25.5q133 0 224.5 -25.5t158 -87t98 -168.5t31.5 -266q0 -160 -31 -268.5t-97.5 -172.5t-158.5 -91t-225 -27zM602 831q-60 0 -92.5 -9t-57 -42t-32.5 -92.5t-8 -163.5 q0 -133 18 -198t56 -87t116 -22q80 0 118.5 22t56.5 87t18 198q0 84 -6 137.5t-18 88.5t-37 52t-54 23t-78 6zM729 1163l-135 146l-131 -146h-268l249 264h301l259 -264h-275z" />
<glyph unicode="&#xf5;" d="M602 -29q-131 0 -222.5 27t-157.5 91t-97 172.5t-31 268.5q0 159 31.5 266t98 168.5t157 87t221.5 25.5q133 0 224.5 -25.5t158 -87t98 -168.5t31.5 -266q0 -160 -31 -268.5t-97.5 -172.5t-158.5 -91t-225 -27zM602 831q-60 0 -92.5 -9t-57 -42t-32.5 -92.5t-8 -163.5 q0 -133 18 -198t56 -87t116 -22q80 0 118.5 22t56.5 87t18 198q0 84 -6 137.5t-18 88.5t-37 52t-54 23t-78 6zM842 1450l147 -119q-32 -85 -96.5 -138.5t-157.5 -53.5q-55 0 -106.5 24t-97 48t-85.5 24q-30 0 -52.5 -21t-45.5 -73l-135 133q92 164 227 164q51 0 97.5 -15 t74 -32.5t62 -32.5t65.5 -15q36 0 58 22.5t45 84.5z" />
<glyph unicode="&#xf6;" d="M602 -29q-131 0 -222.5 27t-157.5 91t-97 172.5t-31 268.5q0 159 31.5 266t98 168.5t157 87t221.5 25.5q133 0 224.5 -25.5t158 -87t98 -168.5t31.5 -266q0 -160 -31 -268.5t-97.5 -172.5t-158.5 -91t-225 -27zM602 831q-60 0 -92.5 -9t-57 -42t-32.5 -92.5t-8 -163.5 q0 -133 18 -198t56 -87t116 -22q80 0 118.5 22t56.5 87t18 198q0 84 -6 137.5t-18 88.5t-37 52t-54 23t-78 6zM371 1421q83 0 112 -24.5t29 -106.5q0 -89 -29.5 -117t-111.5 -28q-81 0 -110.5 28t-29.5 117q0 82 29 106.5t111 24.5zM834 1421q81 0 110 -24.5t29 -106.5 q0 -89 -29 -117t-110 -28q-84 0 -113 27.5t-29 117.5q0 82 28.5 106.5t113.5 24.5z" />
<glyph unicode="&#xf7;" horiz-adv-x="1153" d="M74 594v301h1003v-301h-1003zM567 475q113 0 152 -32t39 -136q0 -59 -9 -94.5t-33 -55t-57.5 -26t-91.5 -6.5q-56 0 -88 6.5t-55.5 26t-32 55t-8.5 94.5q0 104 38 136t146 32zM567 1374q113 0 152 -31t39 -135q0 -59 -9 -94.5t-33 -55t-57.5 -26t-91.5 -6.5 q-56 0 -88 6.5t-55.5 26t-32 55t-8.5 94.5q0 104 37.5 135t146.5 31z" />
<glyph unicode="&#xf8;" d="M928 1047h278l-155 -175q63 -123 63 -344q0 -160 -31 -268.5t-97.5 -171.5t-158.5 -90t-225 -27q-180 0 -295 56l-24 -27h-279l154 174q-66 129 -66 354q0 127 21 221t61 157t103.5 101t142 54t182.5 16q193 0 301 -57zM602 831q-55 0 -87.5 -7.5t-57.5 -31t-35 -68 t-10 -118.5t6 -141l299 344q-40 22 -115 22zM602 217q71 0 110.5 16.5t61 65.5t21.5 141q0 60 -7 135l-296 -339q37 -19 110 -19z" />
<glyph unicode="&#xf9;" horiz-adv-x="1222" d="M776 272v777h311v-983q-108 -40 -253 -67.5t-277 -27.5q-150 0 -242 46t-140 156t-48 296v580h311v-557q0 -143 36.5 -191.5t150.5 -48.5q72 0 151 20zM821 1163h-264l-309 264h323z" />
<glyph unicode="&#xfa;" horiz-adv-x="1222" d="M776 272v777h311v-983q-108 -40 -253 -67.5t-277 -27.5q-150 0 -242 46t-140 156t-48 296v580h311v-557q0 -143 36.5 -191.5t150.5 -48.5q72 0 151 20zM668 1163h-267l252 264h322z" />
<glyph unicode="&#xfb;" horiz-adv-x="1222" d="M776 272v777h311v-983q-108 -40 -253 -67.5t-277 -27.5q-150 0 -242 46t-140 156t-48 296v580h311v-557q0 -143 36.5 -191.5t150.5 -48.5q72 0 151 20zM748 1163l-136 146l-131 -146h-268l250 264h301l258 -264h-274z" />
<glyph unicode="&#xfc;" horiz-adv-x="1222" d="M776 272v777h311v-983q-108 -40 -253 -67.5t-277 -27.5q-150 0 -242 46t-140 156t-48 296v580h311v-557q0 -143 36.5 -191.5t150.5 -48.5q72 0 151 20zM377 1421q83 0 112 -24.5t29 -106.5q0 -89 -29.5 -117t-111.5 -28q-81 0 -110 28t-29 117q0 82 29 106.5t110 24.5z M840 1421q81 0 110 -24.5t29 -106.5q0 -89 -29 -117t-110 -28q-84 0 -113 27.5t-29 117.5q0 82 28.5 106.5t113.5 24.5z" />
<glyph unicode="&#xfd;" horiz-adv-x="1048" d="M748 1047h313q-210 -738 -549 -1440h-346q79 135 172 342q-143 520 -361 1098h318q116 -303 229 -730q157 450 224 730zM614 1163h-266l252 264h322z" />
<glyph unicode="&#xfe;" horiz-adv-x="1220" d="M680 -29q-122 0 -229 47v-411h-316v1833h316v-375q77 12 159 12q110 0 190.5 -16.5t143.5 -55t102 -102.5t58.5 -157.5t19.5 -221.5q0 -155 -32 -264.5t-93 -171.5t-139 -89.5t-180 -27.5zM610 815q-96 0 -159 -24v-482q0 -35 46 -57.5t115 -22.5q113 0 155 61t42 226 q0 127 -19.5 191t-59.5 86t-120 22z" />
<glyph unicode="&#xff;" horiz-adv-x="1048" d="M748 1047h313q-210 -738 -549 -1440h-346q79 135 172 342q-143 520 -361 1098h318q116 -303 229 -730q157 450 224 730zM303 1421q83 0 112 -24.5t29 -106.5q0 -89 -29.5 -117t-111.5 -28q-81 0 -110 28t-29 117q0 82 29 106.5t110 24.5zM766 1421q81 0 110 -24.5 t29 -106.5q0 -89 -29 -117t-110 -28q-84 0 -112.5 27.5t-28.5 117.5q0 82 28 106.5t113 24.5z" />
<glyph unicode="&#x100;" horiz-adv-x="1411" d="M1112 0q-66 158 -119 315h-590l-92 -315h-354q91 300 238 713.5t270 713.5h510q101 -334 244.5 -740t259.5 -687h-367zM408 1526v219h598v-219h-598zM729 1141h-53q-94 -248 -187 -541h408q-84 249 -168 541z" />
<glyph unicode="&#x101;" horiz-adv-x="1165" d="M1040 670v-617q-104 -38 -241.5 -60t-255.5 -22q-134 0 -217 15.5t-136.5 56t-74.5 106t-21 170.5q0 87 19.5 149t52 99.5t87 59t112.5 28.5t139 7q102 0 237 -27q0 58 -8 91t-34 56t-71.5 31t-123.5 8q-166 0 -326 -49l-49 250q215 55 451 55q243 0 351.5 -90 t108.5 -317zM741 233v199q-55 14 -170 14q-90 0 -121.5 -21t-31.5 -95q0 -79 28 -102t121 -23q98 0 174 28zM276 1171v218h598v-218h-598z" />
<glyph unicode="&#x102;" horiz-adv-x="1411" d="M1112 0q-66 158 -119 315h-590l-92 -315h-354q91 300 238 713.5t270 713.5h510q101 -334 244.5 -740t259.5 -687h-367zM379 1784h207q0 -63 28.5 -85t94.5 -22q64 0 93 22t29 85h193q0 -293 -324 -293q-154 0 -237.5 72.5t-83.5 220.5zM729 1141h-53q-94 -248 -187 -541 h408q-84 249 -168 541z" />
<glyph unicode="&#x103;" horiz-adv-x="1165" d="M1040 670v-617q-104 -38 -241.5 -60t-255.5 -22q-134 0 -217 15.5t-136.5 56t-74.5 106t-21 170.5q0 87 19.5 149t52 99.5t87 59t112.5 28.5t139 7q102 0 237 -27q0 58 -8 91t-34 56t-71.5 31t-123.5 8q-166 0 -326 -49l-49 250q215 55 451 55q243 0 351.5 -90 t108.5 -317zM741 233v199q-55 14 -170 14q-90 0 -121.5 -21t-31.5 -95q0 -79 28 -102t121 -23q98 0 174 28zM254 1427h207q0 -63 28.5 -84.5t94.5 -21.5q65 0 94 22t29 84h192q0 -292 -324 -292q-155 0 -238 72.5t-83 219.5z" />
<glyph unicode="&#x104;" horiz-adv-x="1411" d="M1112 0q-66 158 -119 315h-590l-92 -315h-354q91 300 238 713.5t270 713.5h510q101 -334 244.5 -740t259.5 -687h-133q-72 -48 -97.5 -86t-25.5 -90q0 -42 24 -60t92 -18q97 0 160 53l80 -143q-50 -35 -125.5 -53.5t-148.5 -18.5q-155 0 -216 44t-61 139q0 73 49 133.5 t146 99.5h-111zM729 1141h-53q-94 -248 -187 -541h408q-84 249 -168 541z" />
<glyph unicode="&#x105;" horiz-adv-x="1165" d="M1040 670v-617q-56 -19 -92 -28h4q-98 -60 -131 -101.5t-33 -99.5q0 -42 24.5 -60t92.5 -18q97 0 160 53l80 -143q-50 -35 -126 -53.5t-149 -18.5q-155 0 -215.5 44t-60.5 139q0 67 42 124.5t124 96.5q-129 -17 -217 -17q-134 0 -217 15.5t-136.5 56t-74.5 106t-21 170.5 q0 87 19.5 149t52 99.5t87 59t112.5 28.5t139 7q102 0 237 -27q0 58 -8 91t-34 56t-71.5 31t-123.5 8q-166 0 -326 -49l-49 250q215 55 451 55q243 0 351.5 -90t108.5 -317zM741 233v199q-55 14 -170 14q-90 0 -121.5 -21t-31.5 -95q0 -79 28 -102t121 -23q98 0 174 28z" />
<glyph unicode="&#x106;" horiz-adv-x="1204" d="M100 727q0 146 18 257.5t56 193t91.5 136t131.5 87.5t169 47t210 14q101 0 217.5 -14t196.5 -37l-64 -291q-109 39 -280 39q-59 0 -100 -2.5t-82.5 -10t-68.5 -21t-53 -36.5t-41 -54.5t-26.5 -76.5t-16.5 -102.5t-5 -132.5q0 -99 8.5 -169.5t30 -121t49.5 -80.5t76 -47 t100 -23t129 -6q68 0 148 11t132 28l64 -297q-180 -47 -414 -47q-142 0 -247 23t-188.5 75.5t-135 140t-78.5 215.5t-27 302zM750 1530h-265l260 264h326z" />
<glyph unicode="&#x107;" horiz-adv-x="966" d="M881 289l65 -264q-60 -25 -153.5 -39.5t-176.5 -14.5q-97 0 -174.5 16.5t-144 56.5t-110.5 103.5t-68.5 159.5t-24.5 223q0 156 37 264.5t108.5 169.5t162.5 87t214 26q86 0 178.5 -12t151.5 -33l-65 -266q-110 43 -238 43q-52 0 -84 -5t-63 -21t-47.5 -47t-26.5 -83 t-10 -129q0 -91 13.5 -147.5t45 -86t70.5 -39t102 -9.5q127 0 238 47zM629 1163h-267l252 264h322z" />
<glyph unicode="&#x108;" horiz-adv-x="1204" d="M100 727q0 146 18 257.5t56 193t91.5 136t131.5 87.5t169 47t210 14q101 0 217.5 -14t196.5 -37l-64 -291q-109 39 -280 39q-59 0 -100 -2.5t-82.5 -10t-68.5 -21t-53 -36.5t-41 -54.5t-26.5 -76.5t-16.5 -102.5t-5 -132.5q0 -99 8.5 -169.5t30 -121t49.5 -80.5t76 -47 t100 -23t129 -6q68 0 148 11t132 28l64 -297q-180 -47 -414 -47q-142 0 -247 23t-188.5 75.5t-135 140t-78.5 215.5t-27 302zM897 1530l-137 147l-131 -147h-267l250 264h301l258 -264h-274z" />
<glyph unicode="&#x109;" horiz-adv-x="966" d="M881 289l65 -264q-60 -25 -153.5 -39.5t-176.5 -14.5q-97 0 -174.5 16.5t-144 56.5t-110.5 103.5t-68.5 159.5t-24.5 223q0 156 37 264.5t108.5 169.5t162.5 87t214 26q86 0 178.5 -12t151.5 -33l-65 -266q-110 43 -238 43q-52 0 -84 -5t-63 -21t-47.5 -47t-26.5 -83 t-10 -129q0 -91 13.5 -147.5t45 -86t70.5 -39t102 -9.5q127 0 238 47zM731 1163l-135 146l-131 -146h-268l249 264h302l258 -264h-275z" />
<glyph unicode="&#x10a;" horiz-adv-x="1204" d="M100 727q0 146 18 257.5t56 193t91.5 136t131.5 87.5t169 47t210 14q101 0 217.5 -14t196.5 -37l-64 -291q-109 39 -280 39q-59 0 -100 -2.5t-82.5 -10t-68.5 -21t-53 -36.5t-41 -54.5t-26.5 -76.5t-16.5 -102.5t-5 -132.5q0 -99 8.5 -169.5t30 -121t49.5 -80.5t76 -47 t100 -23t129 -6q68 0 148 11t132 28l64 -297q-180 -47 -414 -47q-142 0 -247 23t-188.5 75.5t-135 140t-78.5 215.5t-27 302zM778 1796q83 0 112.5 -24.5t29.5 -106.5q0 -89 -29.5 -117t-112.5 -28q-81 0 -110 28t-29 117q0 82 29 106.5t110 24.5z" />
<glyph unicode="&#x10b;" horiz-adv-x="966" d="M881 289l65 -264q-60 -25 -153.5 -39.5t-176.5 -14.5q-97 0 -174.5 16.5t-144 56.5t-110.5 103.5t-68.5 159.5t-24.5 223q0 156 37 264.5t108.5 169.5t162.5 87t214 26q86 0 178.5 -12t151.5 -33l-65 -266q-110 43 -238 43q-52 0 -84 -5t-63 -21t-47.5 -47t-26.5 -83 t-10 -129q0 -91 13.5 -147.5t45 -86t70.5 -39t102 -9.5q127 0 238 47zM598 1421q83 0 111 -24.5t28 -106.5q0 -90 -28.5 -117.5t-110.5 -27.5t-111.5 28t-29.5 117q0 82 29 106.5t112 24.5z" />
<glyph unicode="&#x10c;" horiz-adv-x="1204" d="M100 727q0 146 18 257.5t56 193t91.5 136t131.5 87.5t169 47t210 14q101 0 217.5 -14t196.5 -37l-64 -291q-109 39 -280 39q-59 0 -100 -2.5t-82.5 -10t-68.5 -21t-53 -36.5t-41 -54.5t-26.5 -76.5t-16.5 -102.5t-5 -132.5q0 -99 8.5 -169.5t30 -121t49.5 -80.5t76 -47 t100 -23t129 -6q68 0 148 11t132 28l64 -297q-180 -47 -414 -47q-142 0 -247 23t-188.5 75.5t-135 140t-78.5 215.5t-27 302zM612 1794l138 -147l133 147h266l-250 -264h-301l-258 264h272z" />
<glyph unicode="&#x10d;" horiz-adv-x="966" d="M881 289l65 -264q-60 -25 -153.5 -39.5t-176.5 -14.5q-97 0 -174.5 16.5t-144 56.5t-110.5 103.5t-68.5 159.5t-24.5 223q0 156 37 264.5t108.5 169.5t162.5 87t214 26q86 0 178.5 -12t151.5 -33l-65 -266q-110 43 -238 43q-52 0 -84 -5t-63 -21t-47.5 -47t-26.5 -83 t-10 -129q0 -91 13.5 -147.5t45 -86t70.5 -39t102 -9.5q127 0 238 47zM465 1427l135 -145l131 145h268l-249 -264h-301l-259 264h275z" />
<glyph unicode="&#x10e;" horiz-adv-x="1542" d="M168 1427h596q142 0 246.5 -20t189 -68t136 -129t79 -202t27.5 -287t-27 -288t-79.5 -205.5t-136 -134t-189 -72t-246.5 -21.5h-596v1427zM1090 717q0 73 -3.5 127.5t-13 99t-22.5 74.5t-35.5 52.5t-47.5 35.5t-64.5 20.5t-79.5 10t-99 2.5h-227v-848h227q77 0 128 5.5 t94.5 23t68.5 46t43 77.5t24.5 114t6.5 160zM586 1794l137 -147l133 147h266l-250 -264h-301l-258 264h273z" />
<glyph unicode="&#x10f;" horiz-adv-x="1220" d="M539 1077q125 0 231 -45v447h315v-1434q-87 -32 -220 -53t-255 -21q-138 0 -231.5 26.5t-159 90.5t-95.5 171.5t-30 268.5q0 154 32 263t93.5 170.5t139.5 88.5t180 27zM610 236q102 0 160 24v481q0 34 -47.5 57t-116.5 23q-111 0 -152.5 -61.5t-41.5 -227.5 q0 -127 19.5 -190.5t59 -84.5t119.5 -21zM1200 1479h266l-118 -394h-187z" />
<glyph unicode="&#x110;" horiz-adv-x="1542" d="M61 614v226h107v587h596q142 0 246.5 -20t189 -68t136 -129t79 -202t27.5 -287t-27 -288t-79.5 -205.5t-136 -134t-189 -72t-246.5 -21.5h-596v614h-107zM1090 717q0 73 -3.5 127.5t-13 98.5t-22 74t-35.5 52.5t-48 35t-64.5 20t-79.5 10t-99 2.5h-227v-297h323v-226 h-323v-323h227q77 0 128 5.5t94.5 23t68.5 46t43 77.5t24.5 114t6.5 160z" />
<glyph unicode="&#x111;" horiz-adv-x="1220" d="M608 1171v215h162v93h315v-93h103v-215h-103v-1126q-87 -32 -220 -53t-255 -21q-138 0 -231.5 26.5t-159 90.5t-95.5 171.5t-30 268.5q0 154 32 263t93.5 170.5t139.5 88.5t180 27q125 0 231 -45v139h-162zM610 236q102 0 160 24v481q0 34 -47.5 57t-116.5 23 q-111 0 -152.5 -61.5t-41.5 -227.5q0 -127 19.5 -190.5t59 -84.5t119.5 -21z" />
<glyph unicode="&#x112;" horiz-adv-x="1282" d="M168 1427h1065v-288h-735v-256h526v-283h-526v-311h735v-289h-1065v1427zM401 1526v219h598v-219h-598z" />
<glyph unicode="&#x113;" horiz-adv-x="1138" d="M588 1077q92 0 159 -10.5t126 -37t97 -73t63.5 -117.5t33.5 -172t0 -235h-649q3 -120 56 -159.5t175 -39.5q59 0 146.5 10t144.5 25l47 -239q-77 -26 -183 -42t-196 -16q-116 0 -205.5 27.5t-161 90t-109.5 173.5t-38 268q0 155 34 263t101 169.5t154 88t205 26.5z M602 840q-96 0 -132 -37t-50 -139h348q-3 107 -37.5 141.5t-128.5 34.5zM311 1171v218h598v-218h-598z" />
<glyph unicode="&#x114;" horiz-adv-x="1282" d="M168 1427h1065v-288h-735v-256h526v-283h-526v-311h735v-289h-1065v1427zM406 1784h206q0 -63 28.5 -85t94.5 -22q64 0 93.5 22t29.5 85h193q0 -293 -324 -293q-154 0 -237.5 72.5t-83.5 220.5z" />
<glyph unicode="&#x115;" horiz-adv-x="1138" d="M588 1077q92 0 159 -10.5t126 -37t97 -73t63.5 -117.5t33.5 -172t0 -235h-649q3 -120 56 -159.5t175 -39.5q59 0 146.5 10t144.5 25l47 -239q-77 -26 -183 -42t-196 -16q-116 0 -205.5 27.5t-161 90t-109.5 173.5t-38 268q0 155 34 263t101 169.5t154 88t205 26.5z M602 840q-96 0 -132 -37t-50 -139h348q-3 107 -37.5 141.5t-128.5 34.5zM276 1427h207q0 -63 28.5 -84.5t94.5 -21.5q65 0 94 22t29 84h193q0 -292 -324 -292q-155 0 -238.5 72.5t-83.5 219.5z" />
<glyph unicode="&#x116;" horiz-adv-x="1282" d="M168 1427h1065v-288h-735v-256h526v-283h-526v-311h735v-289h-1065v1427zM741 1796q83 0 112.5 -24.5t29.5 -106.5q0 -89 -29.5 -117t-112.5 -28q-81 0 -110 28t-29 117q0 82 29 106.5t110 24.5z" />
<glyph unicode="&#x117;" horiz-adv-x="1138" d="M588 1077q92 0 159 -10.5t126 -37t97 -73t63.5 -117.5t33.5 -172t0 -235h-649q3 -120 56 -159.5t175 -39.5q59 0 146.5 10t144.5 25l47 -239q-77 -26 -183 -42t-196 -16q-116 0 -205.5 27.5t-161 90t-109.5 173.5t-38 268q0 155 34 263t101 169.5t154 88t205 26.5z M602 840q-96 0 -132 -37t-50 -139h348q-3 107 -37.5 141.5t-128.5 34.5zM604 1421q83 0 111 -24.5t28 -106.5q0 -90 -28.5 -117.5t-110.5 -27.5t-111.5 28t-29.5 117q0 82 29 106.5t112 24.5z" />
<glyph unicode="&#x118;" horiz-adv-x="1282" d="M168 1427h1065v-288h-735v-256h526v-283h-526v-311h735v-289h-115q-72 -48 -97.5 -86t-25.5 -90q0 -42 24.5 -60t92.5 -18q97 0 160 53l80 -143q-50 -35 -126 -53.5t-149 -18.5q-155 0 -215.5 44t-60.5 139q0 73 48.5 133.5t145.5 99.5h-827v1427z" />
<glyph unicode="&#x119;" horiz-adv-x="1138" d="M588 1077q92 0 159 -10.5t126 -37t97 -73t63.5 -117.5t33.5 -172t0 -235h-649q3 -120 56 -159.5t175 -39.5q59 0 146.5 10t144.5 25l47 -239q-20 -8 -88 -25q-78 -49 -104.5 -87.5t-26.5 -92.5q0 -42 24.5 -60t92.5 -18q96 0 159 53l80 -143q-50 -35 -125.5 -53.5 t-148.5 -18.5q-155 0 -216 44t-61 139q0 132 148 210q-59 -6 -113 -6q-116 0 -205.5 27.5t-161 90t-109.5 173.5t-38 268q0 155 34 263t101 169.5t154 88t205 26.5zM602 840q-96 0 -132 -37t-50 -139h348q-3 107 -37.5 141.5t-128.5 34.5z" />
<glyph unicode="&#x11a;" horiz-adv-x="1282" d="M168 1427h1065v-288h-735v-256h526v-283h-526v-311h735v-289h-1065v1427zM586 1794l137 -147l133 147h266l-250 -264h-301l-258 264h273z" />
<glyph unicode="&#x11b;" horiz-adv-x="1138" d="M588 1077q92 0 159 -10.5t126 -37t97 -73t63.5 -117.5t33.5 -172t0 -235h-649q3 -120 56 -159.5t175 -39.5q59 0 146.5 10t144.5 25l47 -239q-77 -26 -183 -42t-196 -16q-116 0 -205.5 27.5t-161 90t-109.5 173.5t-38 268q0 155 34 263t101 169.5t154 88t205 26.5z M602 840q-96 0 -132 -37t-50 -139h348q-3 107 -37.5 141.5t-128.5 34.5zM469 1427l135 -145l131 145h269l-250 -264h-301l-258 264h274z" />
<glyph unicode="&#x11c;" horiz-adv-x="1458" d="M981 287v299h-283v282h621v-829q-90 -28 -248 -48t-295 -20q-142 0 -247 23t-188.5 75.5t-135 140t-78.5 215.5t-27 302q0 173 31.5 300.5t89.5 210.5t150.5 133t203 70.5t259.5 20.5q105 0 236.5 -14.5t209.5 -36.5l-59 -291q-50 17 -164.5 29t-190.5 12q-84 0 -138 -5 t-105 -21t-79.5 -45t-51 -78t-31 -119t-8.5 -170q0 -99 8.5 -169.5t30 -121t49.5 -80.5t76 -47t100 -23t129 -6q33 0 135 11zM930 1530l-137 147l-131 -147h-267l250 264h301l258 -264h-274z" />
<glyph unicode="&#x11d;" horiz-adv-x="1220" d="M1085 1004v-920q0 -88 -15 -159.5t-41.5 -123.5t-67.5 -90.5t-87.5 -63t-107.5 -39.5t-123 -20.5t-137 -5.5q-99 0 -204 17.5t-179 44.5l55 245q177 -47 322 -47q136 0 203 43t67 152q-118 -60 -254 -60q-106 0 -180.5 25t-131 85t-83.5 166.5t-27 262.5q0 160 30 268 t95.5 173t159 92.5t231.5 27.5q123 0 256 -20.5t219 -52.5zM770 315v484q-69 28 -160 28q-49 0 -79 -6t-55 -23.5t-38 -52.5t-19.5 -88.5t-6.5 -134.5q0 -165 39.5 -222.5t150.5 -57.5q71 0 119.5 20t48.5 53zM752 1163l-136 146l-131 -146h-268l250 264h301l258 -264h-274z " />
<glyph unicode="&#x11e;" horiz-adv-x="1458" d="M981 287v299h-283v282h621v-829q-90 -28 -248 -48t-295 -20q-142 0 -247 23t-188.5 75.5t-135 140t-78.5 215.5t-27 302q0 173 31.5 300.5t89.5 210.5t150.5 133t203 70.5t259.5 20.5q105 0 236.5 -14.5t209.5 -36.5l-59 -291q-50 17 -164.5 29t-190.5 12q-84 0 -138 -5 t-105 -21t-79.5 -45t-51 -78t-31 -119t-8.5 -170q0 -99 8.5 -169.5t30 -121t49.5 -80.5t76 -47t100 -23t129 -6q33 0 135 11zM465 1784h207q0 -63 28.5 -85t94.5 -22q64 0 93.5 22t29.5 85h192q0 -293 -324 -293q-154 0 -237.5 72.5t-83.5 220.5z" />
<glyph unicode="&#x11f;" horiz-adv-x="1220" d="M1085 1004v-920q0 -88 -15 -159.5t-41.5 -123.5t-67.5 -90.5t-87.5 -63t-107.5 -39.5t-123 -20.5t-137 -5.5q-99 0 -204 17.5t-179 44.5l55 245q177 -47 322 -47q136 0 203 43t67 152q-118 -60 -254 -60q-106 0 -180.5 25t-131 85t-83.5 166.5t-27 262.5q0 160 30 268 t95.5 173t159 92.5t231.5 27.5q123 0 256 -20.5t219 -52.5zM770 315v484q-69 28 -160 28q-49 0 -79 -6t-55 -23.5t-38 -52.5t-19.5 -88.5t-6.5 -134.5q0 -165 39.5 -222.5t150.5 -57.5q71 0 119.5 20t48.5 53zM293 1427h207q0 -63 28.5 -84.5t94.5 -21.5q65 0 93.5 21.5 t28.5 84.5h193q0 -292 -324 -292q-155 0 -238 72.5t-83 219.5z" />
<glyph unicode="&#x120;" horiz-adv-x="1458" d="M981 287v299h-283v282h621v-829q-90 -28 -248 -48t-295 -20q-142 0 -247 23t-188.5 75.5t-135 140t-78.5 215.5t-27 302q0 173 31.5 300.5t89.5 210.5t150.5 133t203 70.5t259.5 20.5q105 0 236.5 -14.5t209.5 -36.5l-59 -291q-50 17 -164.5 29t-190.5 12q-84 0 -138 -5 t-105 -21t-79.5 -45t-51 -78t-31 -119t-8.5 -170q0 -99 8.5 -169.5t30 -121t49.5 -80.5t76 -47t100 -23t129 -6q33 0 135 11zM821 1796q83 0 112.5 -24.5t29.5 -106.5q0 -89 -29.5 -117t-112.5 -28q-81 0 -110 28t-29 117q0 82 29 106.5t110 24.5z" />
<glyph unicode="&#x121;" horiz-adv-x="1220" d="M1085 1004v-920q0 -88 -15 -159.5t-41.5 -123.5t-67.5 -90.5t-87.5 -63t-107.5 -39.5t-123 -20.5t-137 -5.5q-99 0 -204 17.5t-179 44.5l55 245q177 -47 322 -47q136 0 203 43t67 152q-118 -60 -254 -60q-106 0 -180.5 25t-131 85t-83.5 166.5t-27 262.5q0 160 30 268 t95.5 173t159 92.5t231.5 27.5q123 0 256 -20.5t219 -52.5zM770 315v484q-69 28 -160 28q-49 0 -79 -6t-55 -23.5t-38 -52.5t-19.5 -88.5t-6.5 -134.5q0 -165 39.5 -222.5t150.5 -57.5q71 0 119.5 20t48.5 53zM604 1421q83 0 111 -24.5t28 -106.5q0 -90 -28.5 -117.5 t-110.5 -27.5t-111.5 28t-29.5 117q0 82 29 106.5t112 24.5z" />
<glyph unicode="&#x122;" horiz-adv-x="1458" d="M981 287v299h-283v282h621v-829q-90 -28 -248 -48t-295 -20q-142 0 -247 23t-188.5 75.5t-135 140t-78.5 215.5t-27 302q0 173 31.5 300.5t89.5 210.5t150.5 133t203 70.5t259.5 20.5q105 0 236.5 -14.5t209.5 -36.5l-59 -291q-50 17 -164.5 29t-190.5 12q-84 0 -138 -5 t-105 -21t-79.5 -45t-51 -78t-31 -119t-8.5 -170q0 -99 8.5 -169.5t30 -121t49.5 -80.5t76 -47t100 -23t129 -6q33 0 135 11zM997 -104l-211 -342h-243l131 342h323z" />
<glyph unicode="&#x123;" horiz-adv-x="1220" d="M418 1202l211 342h243l-131 -342h-323zM1085 1004v-920q0 -88 -15 -159.5t-41.5 -123.5t-67.5 -90.5t-87.5 -63t-107.5 -39.5t-123 -20.5t-137 -5.5q-99 0 -204 17.5t-179 44.5l55 245q177 -47 322 -47q136 0 203 43t67 152q-118 -60 -254 -60q-106 0 -180.5 25t-131 85 t-83.5 166.5t-27 262.5q0 160 30 268t95.5 173t159 92.5t231.5 27.5q123 0 256 -20.5t219 -52.5zM770 315v484q-69 28 -160 28q-49 0 -79 -6t-55 -23.5t-38 -52.5t-19.5 -88.5t-6.5 -134.5q0 -165 39.5 -222.5t150.5 -57.5q71 0 119.5 20t48.5 53z" />
<glyph unicode="&#x124;" horiz-adv-x="1531" d="M498 602v-602h-330v1427h330v-520h536v520h330v-1427h-330v602h-536zM891 1530l-137 147l-131 -147h-267l250 264h301l258 -264h-274z" />
<glyph unicode="&#x125;" horiz-adv-x="1222" d="M729 1077q73 0 126 -10.5t101.5 -40.5t78.5 -81t47.5 -135t17.5 -200v-610h-316v590q0 64 -12.5 106.5t-38 64.5t-55 30t-72.5 8q-65 0 -110 -17.5t-45 -48.5v-733h-316v1479h316v-467q137 65 278 65zM584 1530l-138 147l-131 -147h-266l250 264h301l258 -264h-274z" />
<glyph unicode="&#x126;" horiz-adv-x="1531" d="M55 1047v264h113v116h330v-116h536v116h330v-116h113v-264h-113v-1047h-330v602h-536v-602h-330v1047h-113zM498 907h536v140h-536v-140z" />
<glyph unicode="&#x127;" horiz-adv-x="1222" d="M43 1176v213h92v90h314v-90h190v-213h-190v-164q150 65 280 65q73 0 125.5 -10.5t101 -41t78 -82t47 -135.5t17.5 -200v-608h-314v590q0 121 -46.5 165t-131.5 44q-63 0 -110 -19t-47 -47v-733h-314v1176h-92z" />
<glyph unicode="&#x128;" horiz-adv-x="665" d="M168 1427h330v-1427h-330v1427zM578 1812l147 -118q-30 -84 -97 -138.5t-159 -54.5q-55 0 -107.5 24t-99 48t-86.5 24q-30 0 -52.5 -20.5t-45.5 -71.5l-133 131q91 162 225 162q51 0 97.5 -14.5t76 -31.5t65 -31.5t66.5 -14.5q36 0 58 22t45 84z" />
<glyph unicode="&#x129;" horiz-adv-x="581" d="M535 1450l147 -119q-32 -85 -96.5 -138.5t-157.5 -53.5q-55 0 -106.5 24t-97 48t-85.5 24q-30 0 -52.5 -21t-45.5 -73l-135 133q92 164 227 164q51 0 97.5 -15t74 -32.5t62 -32.5t65.5 -15q36 0 58 22.5t45 84.5zM451 1049v-1049h-316v1049h316z" />
<glyph unicode="&#x12a;" horiz-adv-x="665" d="M168 1427h330v-1427h-330v1427zM35 1526v219h598v-219h-598z" />
<glyph unicode="&#x12b;" horiz-adv-x="581" d="M-6 1171v218h598v-218h-598zM451 1049v-1049h-316v1049h316z" />
<glyph unicode="&#x12c;" horiz-adv-x="665" d="M168 1427h330v-1427h-330v1427zM12 1784h207q0 -63 28.5 -85t94.5 -22q64 0 93.5 22t29.5 85h192q0 -293 -323 -293q-155 0 -238.5 73t-83.5 220z" />
<glyph unicode="&#x12d;" horiz-adv-x="581" d="M-31 1427h207q0 -63 28.5 -84.5t94.5 -21.5q65 0 94 22t29 84h192q0 -292 -323 -292q-155 0 -238.5 72.5t-83.5 219.5zM451 1049v-1049h-316v1049h316z" />
<glyph unicode="&#x12e;" horiz-adv-x="665" d="M168 1427h330v-1427h-117q-72 -48 -97.5 -86t-25.5 -90q0 -42 24.5 -60t92.5 -18q97 0 160 53l79 -143q-50 -35 -125.5 -53.5t-148.5 -18.5q-155 0 -216 44t-61 139q0 73 49 133.5t146 99.5h-90v1427z" />
<glyph unicode="&#x12f;" horiz-adv-x="581" d="M451 1049v-1049h-86q-72 -48 -97.5 -86t-25.5 -90q0 -42 24 -60t92 -18q97 0 160 53l80 -143q-50 -35 -125.5 -53.5t-148.5 -18.5q-155 0 -216 44t-61 139q0 73 49 133.5t146 99.5h-107v1049h316zM293 1503q104 0 141 -28t37 -121q0 -102 -37 -134t-141 -32 q-105 0 -141.5 31.5t-36.5 134.5q0 94 36.5 121.5t141.5 27.5z" />
<glyph unicode="&#x130;" horiz-adv-x="665" d="M168 1427h330v-1427h-330v1427zM330 1796q83 0 112 -24.5t29 -106.5q0 -89 -29.5 -117t-111.5 -28q-81 0 -110.5 28t-29.5 117q0 82 29 106.5t111 24.5z" />
<glyph unicode="&#x131;" horiz-adv-x="581" d="M451 1049v-1049h-316v1049h316z" />
<glyph unicode="&#x132;" horiz-adv-x="1630" d="M168 1427h330v-1427h-330v1427zM1468 1427l2 -1034q0 -96 -26 -171t-68.5 -121.5t-103 -76.5t-122.5 -41.5t-134 -11.5q-189 0 -346 54l55 294q112 -40 250 -40q162 0 162 167v981h331z" />
<glyph unicode="&#x133;" horiz-adv-x="1167" d="M449 1047v-1047h-314v1047h314zM293 1501q105 0 140.5 -27t35.5 -120q0 -104 -36.5 -136t-139.5 -32q-105 0 -141.5 32t-36.5 136q0 93 36 120t142 27zM874 1501q105 0 142 -27t37 -120q0 -104 -37.5 -136t-141.5 -32q-105 0 -141.5 32t-36.5 136q0 93 36 120t142 27z M1032 1047v-1049q0 -156 -50.5 -247t-152 -129t-272.5 -38v256q81 0 120.5 35t39.5 113v1059h315z" />
<glyph unicode="&#x134;" horiz-adv-x="966" d="M807 1427v-1034q0 -96 -26 -171t-69 -121.5t-103 -76.5t-122.5 -41.5t-134.5 -11.5q-189 0 -346 54l55 294q112 -40 252 -40q160 0 160 167v981h334zM766 1530l-137 147l-131 -147h-267l250 264h301l258 -264h-274z" />
<glyph unicode="&#x135;" horiz-adv-x="581" d="M414 1163l-135 146q-86 -97 -132 -146h-266l250 264h301l258 -264h-276zM449 1047v-1049q0 -118 -27 -197t-86 -127.5t-146 -69t-215 -20.5v256q80 0 120 35t40 113v1059h314z" />
<glyph unicode="&#x136;" horiz-adv-x="1400" d="M498 1427v-1427h-330v1427h330zM1434 0h-398q-180 329 -326 527.5t-210 226.5q67 54 206.5 236t294.5 437h394q-162 -251 -294.5 -426.5t-189.5 -228.5q60 -47 206 -251.5t317 -520.5zM895 -104l-211 -342h-244l131 342h324z" />
<glyph unicode="&#x137;" horiz-adv-x="1204" d="M1206 0h-364q-327 521 -391 555v-555h-316v1479h316v-924q90 83 362 494h363q-123 -189 -220 -314t-141 -162q42 -28 148 -179.5t243 -393.5zM797 -104l-211 -342h-244l131 342h324z" />
<glyph unicode="&#x139;" horiz-adv-x="1132" d="M168 1427h330v-1136h643v-291h-973v1427zM471 1530h-264l260 264h326z" />
<glyph unicode="&#x13a;" horiz-adv-x="598" d="M451 1479v-1174q0 -147 69 -254l-282 -102q-103 124 -103 348v1182h316zM383 1530h-264l260 264h326z" />
<glyph unicode="&#x13b;" horiz-adv-x="1132" d="M168 1427h330v-1136h643v-291h-973v1427zM834 -104l-211 -342h-244l131 342h324z" />
<glyph unicode="&#x13c;" horiz-adv-x="598" d="M451 1479v-1174q0 -147 69 -254l-282 -102q-103 124 -103 348v1182h316zM543 -104l-211 -342h-244l131 342h324z" />
<glyph unicode="&#x13d;" horiz-adv-x="1132" d="M168 1427h330v-1136h643v-291h-973v1427zM690 1479h266l-118 -394h-187z" />
<glyph unicode="&#x13e;" horiz-adv-x="598" d="M451 1479v-1174q0 -147 69 -254l-282 -102q-103 124 -103 348v1182h316zM586 1479h266l-119 -394h-186z" />
<glyph unicode="&#x13f;" horiz-adv-x="1132" d="M168 1427h330v-1136h643v-291h-973v1427zM768 991q83 0 111 -24.5t28 -106.5q0 -90 -28.5 -117.5t-110.5 -27.5t-111.5 28t-29.5 117q0 82 29 106.5t112 24.5z" />
<glyph unicode="&#x140;" horiz-adv-x="598" d="M451 1479v-1174q0 -147 69 -254l-282 -102q-103 124 -103 348v1182h316zM641 971q83 0 111 -24.5t28 -106.5q0 -90 -28.5 -118t-110.5 -28t-111.5 28t-29.5 118q0 82 29 106.5t112 24.5z" />
<glyph unicode="&#x141;" horiz-adv-x="1132" d="M809 1176v-304l-311 -260v-321h643v-291h-973v346l-131 -108v303l131 108v778h330v-512z" />
<glyph unicode="&#x142;" horiz-adv-x="598" d="M449 1479v-435l133 144v-303l-133 -144v-436q0 -146 71 -256l-284 -98q-101 122 -101 344v113l-123 -132v304l123 129v770h314z" />
<glyph unicode="&#x143;" horiz-adv-x="1630" d="M1460 1427v-1427h-407q-244 452 -564 975v-975h-321v1427h430q277 -453 535 -940v940h327zM868 1530h-264l260 264h326z" />
<glyph unicode="&#x144;" horiz-adv-x="1222" d="M451 778v-778h-316v983q109 40 254.5 67t278.5 27q112 0 190 -25t133.5 -82t82 -153.5t26.5 -236.5v-580h-316v555q0 145 -35 193.5t-149 48.5q-68 0 -149 -19zM645 1163h-266l252 264h321z" />
<glyph unicode="&#x145;" horiz-adv-x="1630" d="M1460 1427v-1427h-407q-244 452 -564 975v-975h-321v1427h430q277 -453 535 -940v940h327zM985 -104l-211 -342h-244l132 342h323z" />
<glyph unicode="&#x146;" horiz-adv-x="1222" d="M451 778v-778h-316v983q109 40 254.5 67t278.5 27q112 0 190 -25t133.5 -82t82 -153.5t26.5 -236.5v-580h-316v555q0 145 -35 193.5t-149 48.5q-68 0 -149 -19zM782 -104l-211 -342h-243l131 342h323z" />
<glyph unicode="&#x147;" horiz-adv-x="1630" d="M1460 1427v-1427h-407q-244 452 -564 975v-975h-321v1427h430q277 -453 535 -940v940h327zM711 1794l137 -147l133 147h266l-250 -264h-301l-258 264h273z" />
<glyph unicode="&#x148;" horiz-adv-x="1222" d="M451 778v-778h-316v983q109 40 254.5 67t278.5 27q112 0 190 -25t133.5 -82t82 -153.5t26.5 -236.5v-580h-316v555q0 145 -35 193.5t-149 48.5q-68 0 -149 -19zM479 1427l135 -145l131 145h269l-250 -264h-301l-258 264h274z" />
<glyph unicode="&#x149;" horiz-adv-x="1222" d="M451 778v-778h-316v983q109 40 254.5 67t278.5 27q112 0 190 -25t133.5 -82t82 -153.5t26.5 -236.5v-580h-316v555q0 145 -35 193.5t-149 48.5q-68 0 -149 -19zM551 1462l-211 -342h-244l131 342h324z" />
<glyph unicode="&#x14c;" horiz-adv-x="1587" d="M795 -29q-179 0 -303.5 36t-215 122t-133.5 234t-43 366q0 173 29 299t83 209.5t141 133.5t193 70.5t249 20.5t248.5 -20.5t192.5 -70.5t141 -133.5t83 -209.5t29 -299q0 -218 -43 -366t-133.5 -234t-215 -122t-302.5 -36zM795 1159q-78 0 -126 -4.5t-90.5 -22 t-63.5 -44.5t-37 -78t-20.5 -117t-4.5 -168q0 -104 5 -171.5t20 -121t37 -82.5t63.5 -48t90.5 -24.5t126 -5.5t126 5.5t90.5 24.5t63.5 48t37 82.5t20 121t5 171.5q0 102 -4.5 168t-20.5 117t-37 78t-63.5 44.5t-90.5 22t-126 4.5zM496 1526v219h598v-219h-598z" />
<glyph unicode="&#x14d;" d="M602 -29q-131 0 -222.5 27t-157.5 91t-97 172.5t-31 268.5q0 159 31.5 266t98 168.5t157 87t221.5 25.5q133 0 224.5 -25.5t158 -87t98 -168.5t31.5 -266q0 -160 -31 -268.5t-97.5 -172.5t-158.5 -91t-225 -27zM602 831q-60 0 -92.5 -9t-57 -42t-32.5 -92.5t-8 -163.5 q0 -133 18 -198t56 -87t116 -22q80 0 118.5 22t56.5 87t18 198q0 84 -6 137.5t-18 88.5t-37 52t-54 23t-78 6zM303 1171v218h598v-218h-598z" />
<glyph unicode="&#x14e;" horiz-adv-x="1587" d="M795 -29q-179 0 -303.5 36t-215 122t-133.5 234t-43 366q0 173 29 299t83 209.5t141 133.5t193 70.5t249 20.5t248.5 -20.5t192.5 -70.5t141 -133.5t83 -209.5t29 -299q0 -218 -43 -366t-133.5 -234t-215 -122t-302.5 -36zM795 1159q-78 0 -126 -4.5t-90.5 -22 t-63.5 -44.5t-37 -78t-20.5 -117t-4.5 -168q0 -104 5 -171.5t20 -121t37 -82.5t63.5 -48t90.5 -24.5t126 -5.5t126 5.5t90.5 24.5t63.5 48t37 82.5t20 121t5 171.5q0 102 -4.5 168t-20.5 117t-37 78t-63.5 44.5t-90.5 22t-126 4.5zM473 1784h207q0 -63 28.5 -85t94.5 -22 q64 0 93.5 22t29.5 85h192q0 -293 -323 -293q-155 0 -238.5 73t-83.5 220z" />
<glyph unicode="&#x14f;" d="M602 -29q-131 0 -222.5 27t-157.5 91t-97 172.5t-31 268.5q0 159 31.5 266t98 168.5t157 87t221.5 25.5q133 0 224.5 -25.5t158 -87t98 -168.5t31.5 -266q0 -160 -31 -268.5t-97.5 -172.5t-158.5 -91t-225 -27zM602 831q-60 0 -92.5 -9t-57 -42t-32.5 -92.5t-8 -163.5 q0 -133 18 -198t56 -87t116 -22q80 0 118.5 22t56.5 87t18 198q0 84 -6 137.5t-18 88.5t-37 52t-54 23t-78 6zM279 1427h206q0 -63 28.5 -84.5t94.5 -21.5q65 0 94 22t29 84h193q0 -292 -324 -292q-155 0 -238 72.5t-83 219.5z" />
<glyph unicode="&#x150;" horiz-adv-x="1587" d="M795 -29q-179 0 -303.5 36t-215 122t-133.5 234t-43 366q0 173 29 299t83 209.5t141 133.5t193 70.5t249 20.5t248.5 -20.5t192.5 -70.5t141 -133.5t83 -209.5t29 -299q0 -218 -43 -366t-133.5 -234t-215 -122t-302.5 -36zM795 1159q-78 0 -126 -4.5t-90.5 -22 t-63.5 -44.5t-37 -78t-20.5 -117t-4.5 -168q0 -104 5 -171.5t20 -121t37 -82.5t63.5 -48t90.5 -24.5t126 -5.5t126 5.5t90.5 24.5t63.5 48t37 82.5t20 121t5 171.5q0 102 -4.5 168t-20.5 117t-37 78t-63.5 44.5t-90.5 22t-126 4.5zM979 1794h258l-242 -264h-209zM635 1794 h258l-242 -264h-209z" />
<glyph unicode="&#x151;" d="M602 -29q-131 0 -222.5 27t-157.5 91t-97 172.5t-31 268.5q0 159 31.5 266t98 168.5t157 87t221.5 25.5q133 0 224.5 -25.5t158 -87t98 -168.5t31.5 -266q0 -160 -31 -268.5t-97.5 -172.5t-158.5 -91t-225 -27zM602 831q-60 0 -92.5 -9t-57 -42t-32.5 -92.5t-8 -163.5 q0 -133 18 -198t56 -87t116 -22q80 0 118.5 22t56.5 87t18 198q0 84 -6 137.5t-18 88.5t-37 52t-54 23t-78 6zM793 1427h258l-242 -264h-209zM449 1427h258l-242 -264h-209z" />
<glyph unicode="&#x152;" horiz-adv-x="2238" d="M1100 1427h1089v-288h-772q52 -98 64 -256h403v-283h-401q-12 -195 -74 -311h780v-289h-1118q-119 -29 -276 -29q-179 0 -303.5 36t-215 122t-133.5 234t-43 366q0 173 29 299t83 209.5t141 133.5t193 70.5t249 20.5q182 0 305 -35zM795 1159q-78 0 -126 -4.5t-90.5 -22 t-63.5 -44.5t-37 -78t-20.5 -117t-4.5 -168q0 -104 5 -171.5t20 -121t37 -82.5t63.5 -48t90.5 -24.5t126 -5.5t126 5.5t90.5 24.5t63.5 48t37 82.5t20 121t5 171.5q0 102 -4.5 168t-20.5 117t-37 78t-63.5 44.5t-90.5 22t-126 4.5z" />
<glyph unicode="&#x153;" horiz-adv-x="1832" d="M1282 1077q92 0 158.5 -10.5t124.5 -37t94.5 -73t61 -118t32 -171.5t0.5 -235h-641q3 -120 56 -159.5t175 -39.5q59 0 146.5 10t144.5 25l47 -239q-77 -26 -182 -42t-194 -16q-235 0 -344 117q-103 -117 -359 -117q-131 0 -222.5 27t-157.5 91t-97 172.5t-31 268.5 q0 159 31.5 266t98 168.5t157 87t221.5 25.5q126 0 211.5 -24.5t140.5 -81.5q103 106 328 106zM602 831q-60 0 -92.5 -9t-57 -42t-32.5 -92.5t-8 -163.5q0 -133 18 -198t56 -87t116 -22q80 0 118.5 22t56.5 87t18 198q0 84 -6 137.5t-18 88.5t-37 52t-54 23t-78 6zM1305 840 q-96 0 -137 -37t-54 -139h365q-3 105 -40.5 140.5t-133.5 35.5z" />
<glyph unicode="&#x154;" horiz-adv-x="1478" d="M498 1145v-367h366q52 0 87.5 42.5t35.5 137.5q0 187 -119 187h-370zM999 612q50 -18 106 -76.5t141.5 -185t219.5 -350.5h-409q-163 285 -254.5 396.5t-157.5 111.5h-147v-508h-330v1427h797q107 0 184.5 -31.5t121.5 -89.5t64.5 -131t20.5 -165q0 -81 -18.5 -147.5 t-58.5 -122.5t-111 -89.5t-169 -38.5zM737 1530h-264l260 264h326z" />
<glyph unicode="&#x155;" horiz-adv-x="813" d="M705 1077q49 0 104 -6v-293q-58 17 -147 17t-150 -28.5t-61 -78.5v-688h-316v1049h316v-82q63 110 254 110zM571 1163h-266l252 264h322z" />
<glyph unicode="&#x156;" horiz-adv-x="1478" d="M498 1145v-367h366q52 0 87.5 42.5t35.5 137.5q0 187 -119 187h-370zM999 612q50 -18 106 -76.5t141.5 -185t219.5 -350.5h-409q-163 285 -254.5 396.5t-157.5 111.5h-147v-508h-330v1427h797q107 0 184.5 -31.5t121.5 -89.5t64.5 -131t20.5 -165q0 -81 -18.5 -147.5 t-58.5 -122.5t-111 -89.5t-169 -38.5zM934 -104l-211 -342h-244l131 342h324z" />
<glyph unicode="&#x157;" horiz-adv-x="813" d="M705 1077q49 0 104 -6v-293q-58 17 -147 17t-150 -28.5t-61 -78.5v-688h-316v1049h316v-82q63 110 254 110zM514 -104l-211 -342h-244l131 342h324z" />
<glyph unicode="&#x158;" horiz-adv-x="1478" d="M498 1145v-367h366q52 0 87.5 42.5t35.5 137.5q0 187 -119 187h-370zM999 612q50 -18 106 -76.5t141.5 -185t219.5 -350.5h-409q-163 285 -254.5 396.5t-157.5 111.5h-147v-508h-330v1427h797q107 0 184.5 -31.5t121.5 -89.5t64.5 -131t20.5 -165q0 -81 -18.5 -147.5 t-58.5 -122.5t-111 -89.5t-169 -38.5zM582 1794l137 -147l133 147h266l-250 -264h-301l-258 264h273z" />
<glyph unicode="&#x159;" horiz-adv-x="813" d="M705 1077q49 0 104 -6v-293q-58 17 -147 17t-150 -28.5t-61 -78.5v-688h-316v1049h316v-82q63 110 254 110zM362 1427l136 -145l131 145h268l-250 -264h-301l-258 264h274z" />
<glyph unicode="&#x15a;" horiz-adv-x="1273" d="M713 1462q271 0 456 -67l-67 -283q-162 47 -391 47q-156 0 -215.5 -32t-59.5 -107q0 -48 20.5 -74t82.5 -44t186 -32q247 -28 359 -130t112 -304q0 -132 -35.5 -221t-115 -143.5t-195.5 -77.5t-287 -23q-272 0 -463 68l68 283q177 -48 391 -48q161 0 221 29.5t60 110.5 q0 49 -20.5 76.5t-88 49t-199.5 35.5q-235 25 -341.5 115t-106.5 283q0 261 152.5 375t476.5 114zM696 1530h-264l260 264h326z" />
<glyph unicode="&#x15b;" horiz-adv-x="991" d="M838 786q-160 45 -310 45q-82 0 -114.5 -16.5t-32.5 -73.5q0 -42 35 -58.5t155 -31.5q190 -24 271.5 -93.5t81.5 -225.5q0 -83 -24 -146.5t-65 -104t-101.5 -65.5t-128 -35t-150.5 -10q-88 0 -195.5 16t-177.5 42l61 237q146 -43 297 -43q101 0 141 17t40 75 q0 30 -16 47.5t-61 29.5t-132 20t-146 25.5t-103.5 51.5t-65.5 91t-21 139q0 83 23.5 146.5t64 103t101 64.5t127 34.5t149.5 9.5q86 0 186 -15.5t172 -41.5zM547 1163h-266l251 264h322z" />
<glyph unicode="&#x15c;" horiz-adv-x="1273" d="M713 1462q271 0 456 -67l-67 -283q-162 47 -391 47q-156 0 -215.5 -32t-59.5 -107q0 -48 20.5 -74t82.5 -44t186 -32q247 -28 359 -130t112 -304q0 -132 -35.5 -221t-115 -143.5t-195.5 -77.5t-287 -23q-272 0 -463 68l68 283q177 -48 391 -48q161 0 221 29.5t60 110.5 q0 49 -20.5 76.5t-88 49t-199.5 35.5q-235 25 -341.5 115t-106.5 283q0 261 152.5 375t476.5 114zM803 1530l-137 147l-131 -147h-267l250 264h301l258 -264h-274z" />
<glyph unicode="&#x15d;" horiz-adv-x="991" d="M838 786q-160 45 -310 45q-82 0 -114.5 -16.5t-32.5 -73.5q0 -42 35 -58.5t155 -31.5q190 -24 271.5 -93.5t81.5 -225.5q0 -83 -24 -146.5t-65 -104t-101.5 -65.5t-128 -35t-150.5 -10q-88 0 -195.5 16t-177.5 42l61 237q146 -43 297 -43q101 0 141 17t40 75 q0 30 -16 47.5t-61 29.5t-132 20t-146 25.5t-103.5 51.5t-65.5 91t-21 139q0 83 23.5 146.5t64 103t101 64.5t127 34.5t149.5 9.5q86 0 186 -15.5t172 -41.5zM657 1163l-135 146l-131 -146h-268l250 264h301l258 -264h-275z" />
<glyph unicode="&#x15e;" horiz-adv-x="1273" d="M713 1462q271 0 456 -67l-67 -283q-162 47 -391 47q-156 0 -215.5 -32t-59.5 -107q0 -48 20.5 -74t82.5 -44t186 -32q247 -28 359 -130t112 -304q0 -236 -120.5 -341t-393.5 -120v-55q110 0 162.5 -37.5t52.5 -124.5q0 -99 -65 -136.5t-228 -37.5q-118 0 -192 27l49 123 q43 -19 127 -19q39 0 54 10.5t15 36.5q0 32 -36.5 42t-128.5 3l61 164q-265 3 -453 68l68 283q177 -48 391 -48q161 0 221 29.5t60 110.5q0 49 -20.5 76.5t-88 49t-199.5 35.5q-235 25 -341.5 115t-106.5 283q0 261 152.5 375t476.5 114z" />
<glyph unicode="&#x15f;" horiz-adv-x="991" d="M838 786q-160 45 -310 45q-82 0 -114.5 -16.5t-32.5 -73.5q0 -42 35 -58.5t155 -31.5q190 -24 271.5 -93.5t81.5 -225.5q0 -92 -28 -159.5t-80.5 -108t-118.5 -62t-152 -27.5v-55q110 0 162.5 -37.5t52.5 -124.5q0 -99 -65 -136.5t-228 -37.5q-119 0 -193 27l50 123 q43 -19 127 -19q39 0 54 10.5t15 36.5q0 22 -15.5 33t-52.5 14t-98 -2l62 164q-83 3 -177 19t-157 39l61 237q146 -43 297 -43q101 0 141 17t40 75q0 30 -16 47.5t-61 29.5t-132 20t-146 25.5t-103.5 51.5t-65.5 91t-21 139q0 83 23.5 146.5t64 103t101 64.5t127 34.5 t149.5 9.5q86 0 186 -15.5t172 -41.5z" />
<glyph unicode="&#x160;" horiz-adv-x="1273" d="M713 1462q271 0 456 -67l-67 -283q-162 47 -391 47q-156 0 -215.5 -32t-59.5 -107q0 -48 20.5 -74t82.5 -44t186 -32q247 -28 359 -130t112 -304q0 -132 -35.5 -221t-115 -143.5t-195.5 -77.5t-287 -23q-272 0 -463 68l68 283q177 -48 391 -48q161 0 221 29.5t60 110.5 q0 49 -20.5 76.5t-88 49t-199.5 35.5q-235 25 -341.5 115t-106.5 283q0 261 152.5 375t476.5 114zM530 1794l138 -147l133 147h266l-250 -264h-301l-258 264h272z" />
<glyph unicode="&#x161;" horiz-adv-x="991" d="M838 786q-160 45 -310 45q-82 0 -114.5 -16.5t-32.5 -73.5q0 -42 35 -58.5t155 -31.5q190 -24 271.5 -93.5t81.5 -225.5q0 -83 -24 -146.5t-65 -104t-101.5 -65.5t-128 -35t-150.5 -10q-88 0 -195.5 16t-177.5 42l61 237q146 -43 297 -43q101 0 141 17t40 75 q0 30 -16 47.5t-61 29.5t-132 20t-146 25.5t-103.5 51.5t-65.5 91t-21 139q0 83 23.5 146.5t64 103t101 64.5t127 34.5t149.5 9.5q86 0 186 -15.5t172 -41.5zM383 1427l135 -145l131 145h269l-250 -264h-301l-258 264h274z" />
<glyph unicode="&#x162;" horiz-adv-x="1288" d="M811 0h-334v1139h-475v288h1284v-288h-475v-1139zM860 -104l-211 -342h-243l131 342h323z" />
<glyph unicode="&#x163;" horiz-adv-x="874" d="M829 776h-327v-411q0 -65 34 -96t107 -31q77 0 168 26l51 -241q-143 -52 -315 -52q-91 0 -153.5 16t-111.5 57.5t-72.5 117.5t-23.5 190v424h-170v271h170v155l316 129v-284h327v-271zM655 -104l-211 -342h-243l131 342h323z" />
<glyph unicode="&#x164;" horiz-adv-x="1288" d="M811 0h-334v1139h-475v288h1284v-288h-475v-1139zM520 1794l137 -147l134 147h266l-250 -264h-301l-258 264h272z" />
<glyph unicode="&#x165;" horiz-adv-x="874" d="M829 776h-327v-411q0 -65 34 -96t107 -31q77 0 168 26l51 -241q-143 -52 -315 -52q-91 0 -153.5 16t-111.5 57.5t-72.5 117.5t-23.5 190v424h-170v271h170v155l316 129v-284h327v-271zM678 1579h266l-119 -393h-186z" />
<glyph unicode="&#x166;" horiz-adv-x="1288" d="M338 465v219h141v453h-477v290h1284v-290h-475v-453h127v-219h-127v-465h-332v465h-141z" />
<glyph unicode="&#x167;" horiz-adv-x="874" d="M80 434v189h106v155h-170v271h170v155l316 127v-282h327v-271h-327v-155h176v-189h-176v-47q0 -81 31.5 -115t113.5 -34q78 0 164 28l51 -241q-128 -54 -311 -54q-92 0 -155.5 16t-113 57.5t-73 118t-23.5 191.5v80h-106z" />
<glyph unicode="&#x168;" horiz-adv-x="1525" d="M1042 463v964h332v-1028q0 -101 -28.5 -176.5t-79 -123t-129 -76.5t-168 -40.5t-207.5 -11.5t-208 11.5t-168.5 40.5t-128.5 76.5t-78.5 123t-28.5 176.5v1028h333v-966q0 -101 63 -141.5t216 -40.5q155 0 217.5 40.5t62.5 143.5zM1008 1812l147 -118q-30 -84 -97 -138.5 t-159 -54.5q-55 0 -107.5 24t-99 48t-86.5 24q-30 0 -52.5 -20.5t-45.5 -71.5l-133 131q91 162 225 162q51 0 97.5 -14.5t76 -31.5t65 -31.5t66.5 -14.5q36 0 58 22t45 84z" />
<glyph unicode="&#x169;" horiz-adv-x="1222" d="M776 272v777h311v-983q-108 -40 -253 -67.5t-277 -27.5q-150 0 -242 46t-140 156t-48 296v580h311v-557q0 -143 36.5 -191.5t150.5 -48.5q72 0 151 20zM852 1450l147 -119q-32 -85 -96.5 -138.5t-157.5 -53.5q-55 0 -106 24t-96.5 48t-85.5 24q-30 0 -53.5 -21t-45.5 -73 l-135 133q92 164 228 164q51 0 97.5 -15t74 -32.5t62 -32.5t65.5 -15q36 0 57.5 22.5t44.5 84.5z" />
<glyph unicode="&#x16a;" horiz-adv-x="1525" d="M1042 463v964h332v-1028q0 -101 -28.5 -176.5t-79 -123t-129 -76.5t-168 -40.5t-207.5 -11.5t-208 11.5t-168.5 40.5t-128.5 76.5t-78.5 123t-28.5 176.5v1028h333v-966q0 -101 63 -141.5t216 -40.5q155 0 217.5 40.5t62.5 143.5zM457 1526v219h598v-219h-598z" />
<glyph unicode="&#x16b;" horiz-adv-x="1222" d="M776 272v777h311v-983q-108 -40 -253 -67.5t-277 -27.5q-150 0 -242 46t-140 156t-48 296v580h311v-557q0 -143 36.5 -191.5t150.5 -48.5q72 0 151 20zM303 1171v218h598v-218h-598z" />
<glyph unicode="&#x16c;" horiz-adv-x="1525" d="M1042 463v964h332v-1028q0 -101 -28.5 -176.5t-79 -123t-129 -76.5t-168 -40.5t-207.5 -11.5t-208 11.5t-168.5 40.5t-128.5 76.5t-78.5 123t-28.5 176.5v1028h333v-966q0 -101 63 -141.5t216 -40.5q155 0 217.5 40.5t62.5 143.5zM436 1784h207q0 -63 28.5 -85t94.5 -22 q64 0 93.5 22t29.5 85h192q0 -293 -323 -293q-155 0 -238.5 73t-83.5 220z" />
<glyph unicode="&#x16d;" horiz-adv-x="1222" d="M776 272v777h311v-983q-108 -40 -253 -67.5t-277 -27.5q-150 0 -242 46t-140 156t-48 296v580h311v-557q0 -143 36.5 -191.5t150.5 -48.5q72 0 151 20zM281 1427h206q0 -63 28.5 -84.5t94.5 -21.5q65 0 94 22t29 84h193q0 -292 -324 -292q-155 0 -238 72.5t-83 219.5z " />
<glyph unicode="&#x16e;" horiz-adv-x="1525" d="M1042 463v964h332v-1028q0 -101 -28.5 -176.5t-79 -123t-129 -76.5t-168 -40.5t-207.5 -11.5t-208 11.5t-168.5 40.5t-128.5 76.5t-78.5 123t-28.5 176.5v1028h333v-966q0 -101 63 -141.5t216 -40.5q155 0 217.5 40.5t62.5 143.5zM758 1841q134 0 193 -45t59 -160 t-59 -159.5t-193 -44.5q-135 0 -195.5 44.5t-60.5 159.5q0 116 58.5 160.5t197.5 44.5zM758 1714q-58 0 -77 -17.5t-19 -62.5t19 -62.5t77 -17.5q56 0 75 18t19 62q0 45 -19 62.5t-75 17.5z" />
<glyph unicode="&#x16f;" horiz-adv-x="1222" d="M776 272v777h311v-983q-108 -40 -253 -67.5t-277 -27.5q-150 0 -242 46t-140 156t-48 296v580h311v-557q0 -143 36.5 -191.5t150.5 -48.5q72 0 151 20zM610 1520q134 0 193 -45t59 -160t-59 -160t-193 -45q-135 0 -195.5 45t-60.5 160q0 116 58.5 160.5t197.5 44.5z M610 1393q-58 0 -77 -17.5t-19 -62.5q0 -44 19 -61t77 -17q56 0 75.5 17.5t19.5 60.5q0 46 -19 63t-76 17z" />
<glyph unicode="&#x170;" horiz-adv-x="1525" d="M1042 463v964h332v-1028q0 -101 -28.5 -176.5t-79 -123t-129 -76.5t-168 -40.5t-207.5 -11.5t-208 11.5t-168.5 40.5t-128.5 76.5t-78.5 123t-28.5 176.5v1028h333v-966q0 -101 63 -141.5t216 -40.5q155 0 217.5 40.5t62.5 143.5zM956 1794h258l-241 -264h-209zM612 1794 h258l-241 -264h-209z" />
<glyph unicode="&#x171;" horiz-adv-x="1222" d="M776 272v777h311v-983q-108 -40 -253 -67.5t-277 -27.5q-150 0 -242 46t-140 156t-48 296v580h311v-557q0 -143 36.5 -191.5t150.5 -48.5q72 0 151 20zM788 1427h259l-242 -264h-209zM444 1427h258l-241 -264h-209z" />
<glyph unicode="&#x172;" horiz-adv-x="1525" d="M1042 463v964h332v-1028q0 -115 -35 -196t-105 -129t-160 -71.5t-214 -29.5q-50 -36 -68 -69.5t-18 -79.5q0 -42 24.5 -60t92.5 -18q97 0 160 53l79 -143q-50 -35 -125.5 -53.5t-148.5 -18.5q-155 0 -215.5 44t-60.5 139q0 127 137 204q-138 3 -236.5 24t-176 68.5 t-116 131t-38.5 204.5v1028h333v-966q0 -101 63 -141.5t216 -40.5q155 0 217.5 40.5t62.5 143.5z" />
<glyph unicode="&#x173;" horiz-adv-x="1222" d="M776 272v777h311v-983q-88 -33 -149 -46q-96 -58 -127 -98.5t-31 -97.5q0 -42 24.5 -60t92.5 -18q97 0 160 53l80 -143q-50 -35 -126 -53.5t-149 -18.5q-155 0 -215.5 44t-60.5 139q0 65 40 122t119 97q-118 -15 -188 -15q-150 0 -242 46t-140 156t-48 296v580h311v-557 q0 -143 36.5 -191.5t150.5 -48.5q72 0 151 20z" />
<glyph unicode="&#x174;" horiz-adv-x="2070" d="M1458 428q158 494 262 999h346q-68 -290 -186 -702t-221 -725h-422q-56 298 -195 862q-80 -368 -231 -862h-420q-87 361 -199 762t-204 665h358q71 -208 149 -486t132 -513q197 650 266 999h299q183 -617 266 -999zM1171 1530l-137 147l-131 -147h-266l250 264h301 l258 -264h-275z" />
<glyph unicode="&#x175;" horiz-adv-x="1716" d="M1731 1049q-173 -589 -361 -1049h-377q-72 358 -137 608q-56 -263 -170 -608h-377q-140 517 -334 1049h322q126 -339 219 -721q45 135 108 357.5t97 363.5h285q44 -138 102 -354t92 -367q153 447 215 721h316zM989 1163l-135 146l-131 -146h-268l250 264h301l258 -264 h-275z" />
<glyph unicode="&#x176;" horiz-adv-x="1337" d="M324 1427q172 -222 368 -505q236 332 340 505h406q-233 -362 -586 -845v-582h-330v580q-426 597 -633 847h435zM821 1530l-137 147l-131 -147h-266l250 264h301l258 -264h-275z" />
<glyph unicode="&#x177;" horiz-adv-x="1048" d="M748 1047h313q-210 -738 -549 -1440h-346q79 135 172 342q-143 520 -361 1098h318q116 -303 229 -730q157 450 224 730zM657 1163l-135 146l-131 -146h-268l250 264h301l258 -264h-275z" />
<glyph unicode="&#x178;" horiz-adv-x="1337" d="M324 1427q172 -222 368 -505q236 332 340 505h406q-233 -362 -586 -845v-582h-330v580q-426 597 -633 847h435zM459 1786q83 0 112 -23.5t29 -105.5q0 -91 -29 -118.5t-112 -27.5t-111.5 27.5t-28.5 118.5q0 82 28.5 105.5t111.5 23.5zM922 1786q82 0 110.5 -24 t28.5 -105q0 -91 -29 -118.5t-110 -27.5q-84 0 -113 27.5t-29 118.5q0 82 28.5 105.5t113.5 23.5z" />
<glyph unicode="&#x179;" horiz-adv-x="1286" d="M31 0v70q147 210 358 532t344 537h-661v288h1185v-65q-125 -214 -352 -562t-350 -511h698v-289h-1222zM696 1530h-264l260 264h326z" />
<glyph unicode="&#x17a;" horiz-adv-x="1019" d="M55 1047h938v-52q-97 -160 -242.5 -375.5t-246.5 -349.5h465v-270h-951v49q124 163 274.5 385.5t219.5 341.5h-457v271zM598 1163h-266l252 264h321z" />
<glyph unicode="&#x17b;" horiz-adv-x="1286" d="M31 0v70q147 210 358 532t344 537h-661v288h1185v-65q-125 -214 -352 -562t-350 -511h698v-289h-1222zM659 1796q83 0 112.5 -24.5t29.5 -106.5q0 -89 -29.5 -117t-112.5 -28q-81 0 -110 28t-29 117q0 82 29 106.5t110 24.5z" />
<glyph unicode="&#x17c;" horiz-adv-x="1019" d="M55 1047h938v-52q-97 -160 -242.5 -375.5t-246.5 -349.5h465v-270h-951v49q124 163 274.5 385.5t219.5 341.5h-457v271zM520 1421q83 0 111 -24.5t28 -106.5q0 -90 -28.5 -117.5t-110.5 -27.5t-111.5 28t-29.5 117q0 82 29 106.5t112 24.5z" />
<glyph unicode="&#x17d;" horiz-adv-x="1286" d="M31 0v70q147 210 358 532t344 537h-661v288h1185v-65q-125 -214 -352 -562t-350 -511h698v-289h-1222zM543 1794l137 -147l133 147h266l-250 -264h-301l-258 264h273z" />
<glyph unicode="&#x17e;" horiz-adv-x="1019" d="M55 1047h938v-52q-97 -160 -242.5 -375.5t-246.5 -349.5h465v-270h-951v49q124 163 274.5 385.5t219.5 341.5h-457v271zM389 1427l135 -145l131 145h269l-250 -264h-301l-258 264h274z" />
<glyph unicode="&#x17f;" horiz-adv-x="587" d="M125 0v1102q0 113 31 191.5t89 120t125 58.5t154 17q179 0 314 -51l-66 -242q-86 27 -184 27q-78 0 -114 -30.5t-36 -111.5v-1081h-313z" />
<glyph unicode="&#x192;" horiz-adv-x="792" d="M113 -14l149 792h-186l51 269h184l11 55q21 112 67.5 190.5t113 119.5t137.5 58t157 17q80 0 168 -14t147 -35l-111 -244q-82 29 -192 29q-81 0 -131.5 -44t-50.5 -132h338l-50 -269h-340l-143 -766q-21 -116 -70.5 -201.5t-117.5 -133t-143.5 -69.5t-161.5 -22 q-223 0 -347 49l97 232q109 -37 207 -37q92 0 145.5 34t71.5 122z" />
<glyph unicode="&#x1a0;" horiz-adv-x="1587" d="M1688 1423v-180q0 -57 -37.5 -117.5t-100.5 -91.5h-92q31 -133 31 -305q0 -218 -43 -366t-133.5 -234t-215 -122t-302.5 -36q-179 0 -303.5 36t-215 122t-133.5 234t-43 366q0 173 29 299t83 209.5t141 133.5t193 70.5t249 20.5q139 0 243 -20t189 -66.5t141 -127 t86 -197.5q58 42 81.5 84.5t23.5 93.5h-95v194h224zM795 1159q-78 0 -126 -4.5t-90.5 -22t-63.5 -44.5t-37 -78t-20.5 -117t-4.5 -168q0 -104 5 -171.5t20 -121t37 -82.5t63.5 -48t90.5 -24.5t126 -5.5t126 5.5t90.5 24.5t63.5 48t37 82.5t20 121t5 171.5q0 102 -4.5 168 t-20.5 117t-37 78t-63.5 44.5t-90.5 22t-126 4.5z" />
<glyph unicode="&#x1a1;" d="M1352 1047v-181q0 -57 -37.5 -117.5t-100.5 -91.5h-106q6 -58 6 -127q0 -160 -31 -268.5t-97.5 -172.5t-158.5 -91t-225 -27q-131 0 -222.5 27t-157.5 91t-97 172.5t-31 268.5q0 159 31.5 266t98 168.5t157 87t221.5 25.5q117 0 201.5 -20t149.5 -66.5t102.5 -126.5 t50.5 -198q66 44 91.5 87.5t25.5 98.5h-95v195h224zM602 831q-60 0 -92.5 -9t-57 -42t-32.5 -92.5t-8 -163.5q0 -133 18 -198t56 -87t116 -22q80 0 118.5 22t56.5 87t18 198q0 84 -6 137.5t-18 88.5t-37 52t-54 23t-78 6z" />
<glyph unicode="&#x1af;" horiz-adv-x="1525" d="M1042 463v964h332v-1028q0 -101 -28.5 -176.5t-79 -123t-129 -76.5t-168 -40.5t-207.5 -11.5t-208 11.5t-168.5 40.5t-128.5 76.5t-78.5 123t-28.5 176.5v1028h333v-966q0 -101 63 -141.5t216 -40.5q155 0 217.5 40.5t62.5 143.5zM1692 1425v-180q0 -57 -37.5 -117.5 t-100.5 -91.5h-118q71 47 99 93t28 102h-95v194h224z" />
<glyph unicode="&#x1b0;" horiz-adv-x="1222" d="M776 272v777h311v-983q-108 -40 -253 -67.5t-277 -27.5q-150 0 -242 46t-140 156t-48 296v580h311v-557q0 -143 36.5 -191.5t150.5 -48.5q72 0 151 20zM1384 1047v-181q0 -58 -37 -118t-100 -91h-119q71 47 99 93t28 102h-94v195h223z" />
<glyph unicode="&#x1cd;" horiz-adv-x="1411" d="M1112 0q-66 158 -119 315h-590l-92 -315h-354q91 300 238 713.5t270 713.5h510q101 -334 244.5 -740t259.5 -687h-367zM575 1794l138 -147l133 147h266l-250 -264h-301l-258 264h272zM729 1141h-53q-94 -248 -187 -541h408q-84 249 -168 541z" />
<glyph unicode="&#x1ce;" horiz-adv-x="1165" d="M1040 670v-617q-104 -38 -241.5 -60t-255.5 -22q-134 0 -217 15.5t-136.5 56t-74.5 106t-21 170.5q0 87 19.5 149t52 99.5t87 59t112.5 28.5t139 7q102 0 237 -27q0 58 -8 91t-34 56t-71.5 31t-123.5 8q-166 0 -326 -49l-49 250q215 55 451 55q243 0 351.5 -90 t108.5 -317zM741 233v199q-55 14 -170 14q-90 0 -121.5 -21t-31.5 -95q0 -79 28 -102t121 -23q98 0 174 28zM455 1427l135 -145l131 145h268l-250 -264h-301l-258 264h275z" />
<glyph unicode="&#x1cf;" horiz-adv-x="665" d="M168 1427h330v-1427h-330v1427zM201 1794l137 -147l133 147h266l-250 -264h-301l-258 264h273z" />
<glyph unicode="&#x1d0;" horiz-adv-x="581" d="M164 1427l135 -145l131 145h268l-249 -264h-302l-258 264h275zM451 1049v-1049h-316v1049h316z" />
<glyph unicode="&#x1d1;" horiz-adv-x="1587" d="M795 -29q-179 0 -303.5 36t-215 122t-133.5 234t-43 366q0 173 29 299t83 209.5t141 133.5t193 70.5t249 20.5t248.5 -20.5t192.5 -70.5t141 -133.5t83 -209.5t29 -299q0 -218 -43 -366t-133.5 -234t-215 -122t-302.5 -36zM795 1159q-78 0 -126 -4.5t-90.5 -22 t-63.5 -44.5t-37 -78t-20.5 -117t-4.5 -168q0 -104 5 -171.5t20 -121t37 -82.5t63.5 -48t90.5 -24.5t126 -5.5t126 5.5t90.5 24.5t63.5 48t37 82.5t20 121t5 171.5q0 102 -4.5 168t-20.5 117t-37 78t-63.5 44.5t-90.5 22t-126 4.5zM659 1794l138 -147l133 147h266l-250 -264 h-301l-258 264h272z" />
<glyph unicode="&#x1d2;" d="M602 -29q-131 0 -222.5 27t-157.5 91t-97 172.5t-31 268.5q0 159 31.5 266t98 168.5t157 87t221.5 25.5q133 0 224.5 -25.5t158 -87t98 -168.5t31.5 -266q0 -160 -31 -268.5t-97.5 -172.5t-158.5 -91t-225 -27zM602 831q-60 0 -92.5 -9t-57 -42t-32.5 -92.5t-8 -163.5 q0 -133 18 -198t56 -87t116 -22q80 0 118.5 22t56.5 87t18 198q0 84 -6 137.5t-18 88.5t-37 52t-54 23t-78 6zM475 1427l135 -145l131 145h269l-250 -264h-301l-258 264h274z" />
<glyph unicode="&#x1d3;" horiz-adv-x="1525" d="M1042 463v964h332v-1028q0 -101 -28.5 -176.5t-79 -123t-129 -76.5t-168 -40.5t-207.5 -11.5t-208 11.5t-168.5 40.5t-128.5 76.5t-78.5 123t-28.5 176.5v1028h333v-966q0 -101 63 -141.5t216 -40.5q155 0 217.5 40.5t62.5 143.5zM629 1794l137 -147l133 147h266 l-250 -264h-301l-258 264h273z" />
<glyph unicode="&#x1d4;" horiz-adv-x="1222" d="M776 272v777h311v-983q-108 -40 -253 -67.5t-277 -27.5q-150 0 -242 46t-140 156t-48 296v580h311v-557q0 -143 36.5 -191.5t150.5 -48.5q72 0 151 20zM483 1427l135 -145l132 145h268l-250 -264h-301l-258 264h274z" />
<glyph unicode="&#x1d5;" horiz-adv-x="1525" d="M1042 463v964h332v-1028q0 -101 -28.5 -176.5t-79 -123t-129 -76.5t-168 -40.5t-207.5 -11.5t-208 11.5t-168.5 40.5t-128.5 76.5t-78.5 123t-28.5 176.5v1028h333v-966q0 -101 63 -141.5t216 -40.5q155 0 217.5 40.5t62.5 143.5zM463 1761v219h598v-219h-598zM526 1737 q84 0 113 -24t29 -105q0 -91 -29.5 -118.5t-112.5 -27.5q-82 0 -110.5 27.5t-28.5 118.5q0 82 28 105.5t111 23.5zM989 1737q82 0 110.5 -24t28.5 -105q0 -91 -29 -118.5t-110 -27.5q-84 0 -112.5 27.5t-28.5 118.5q0 82 28 105.5t113 23.5z" />
<glyph unicode="&#x1d6;" horiz-adv-x="1222" d="M776 272v777h311v-983q-108 -40 -253 -67.5t-277 -27.5q-150 0 -242 46t-140 156t-48 296v580h311v-557q0 -143 36.5 -191.5t150.5 -48.5q72 0 151 20zM313 1483v217h598v-217h-598zM381 1415q83 0 112 -24.5t29 -106.5q0 -89 -29 -116t-112 -27q-82 0 -110.5 27 t-28.5 116q0 82 28 106.5t111 24.5zM844 1415q81 0 110 -24.5t29 -106.5q0 -89 -29 -116t-110 -27q-85 0 -113.5 26.5t-28.5 116.5q0 82 28.5 106.5t113.5 24.5z" />
<glyph unicode="&#x1d7;" horiz-adv-x="1525" d="M1042 463v964h332v-1028q0 -101 -28.5 -176.5t-79 -123t-129 -76.5t-168 -40.5t-207.5 -11.5t-208 11.5t-168.5 40.5t-128.5 76.5t-78.5 123t-28.5 176.5v1028h333v-966q0 -101 63 -141.5t216 -40.5q155 0 217.5 40.5t62.5 143.5zM803 1765h-250l248 203h309zM528 1733 q84 0 113 -24t29 -105q0 -91 -29.5 -118.5t-112.5 -27.5q-82 0 -110.5 27.5t-28.5 118.5q0 82 28 105.5t111 23.5zM991 1733q82 0 110.5 -24t28.5 -105q0 -91 -29 -118.5t-110 -27.5q-84 0 -112.5 27.5t-28.5 118.5q0 82 28 105.5t113 23.5z" />
<glyph unicode="&#x1d8;" horiz-adv-x="1222" d="M776 272v777h311v-983q-108 -40 -253 -67.5t-277 -27.5q-150 0 -242 46t-140 156t-48 296v580h311v-557q0 -143 36.5 -191.5t150.5 -48.5q72 0 151 20zM666 1530h-265l261 264h325zM385 1421q83 0 112 -24.5t29 -106.5q0 -89 -29.5 -117t-111.5 -28q-81 0 -110 28 t-29 117q0 82 29 106.5t110 24.5zM848 1421q81 0 110 -24.5t29 -106.5q0 -89 -29 -117t-110 -28q-84 0 -112.5 27.5t-28.5 117.5q0 82 28 106.5t113 24.5z" />
<glyph unicode="&#x1d9;" horiz-adv-x="1525" d="M1042 463v964h332v-1028q0 -101 -28.5 -176.5t-79 -123t-129 -76.5t-168 -40.5t-207.5 -11.5t-208 11.5t-168.5 40.5t-128.5 76.5t-78.5 123t-28.5 176.5v1028h333v-966q0 -101 63 -141.5t216 -40.5q155 0 217.5 40.5t62.5 143.5zM526 1786q84 0 113 -24t29 -105 q0 -91 -29.5 -118.5t-112.5 -27.5q-82 0 -110.5 27.5t-28.5 118.5q0 82 28 105.5t111 23.5zM989 1786q82 0 110.5 -24t28.5 -105q0 -91 -29 -118.5t-110 -27.5q-84 0 -112.5 27.5t-28.5 118.5q0 82 28 105.5t113 23.5z" />
<glyph unicode="&#x1da;" horiz-adv-x="1222" d="M776 272v777h311v-983q-108 -40 -253 -67.5t-277 -27.5q-150 0 -242 46t-140 156t-48 296v580h311v-557q0 -143 36.5 -191.5t150.5 -48.5q72 0 151 20zM377 1421q83 0 112 -24.5t29 -106.5q0 -89 -29.5 -117t-111.5 -28q-81 0 -110 28t-29 117q0 82 29 106.5t110 24.5z M840 1421q81 0 110 -24.5t29 -106.5q0 -89 -29 -117t-110 -28q-84 0 -113 27.5t-29 117.5q0 82 28.5 106.5t113.5 24.5z" />
<glyph unicode="&#x1db;" horiz-adv-x="1525" d="M1042 463v964h332v-1028q0 -101 -28.5 -176.5t-79 -123t-129 -76.5t-168 -40.5t-207.5 -11.5t-208 11.5t-168.5 40.5t-128.5 76.5t-78.5 123t-28.5 176.5v1028h333v-966q0 -101 63 -141.5t216 -40.5q155 0 217.5 40.5t62.5 143.5zM989 1765q82 0 110.5 -24t28.5 -105 q0 -90 -29 -117.5t-110 -27.5q-85 0 -113 27t-28 118q0 68 18.5 94.5t69.5 32.5h-250l-301 203h307l248 -203q14 2 49 2zM526 1765q84 0 113 -24t29 -105q0 -90 -29.5 -117.5t-112.5 -27.5t-111 27t-28 118q0 82 28 105.5t111 23.5z" />
<glyph unicode="&#x1dc;" horiz-adv-x="1222" d="M776 272v777h311v-983q-108 -40 -253 -67.5t-277 -27.5q-150 0 -242 46t-140 156t-48 296v580h311v-557q0 -143 36.5 -191.5t150.5 -48.5q72 0 151 20zM819 1530h-272l-322 264h328zM840 1421q81 0 110 -24.5t29 -106.5q0 -89 -29 -117t-110 -28q-84 0 -113 27.5 t-29 117.5q0 82 28.5 106.5t113.5 24.5zM377 1421q83 0 112 -24.5t29 -106.5q0 -89 -29.5 -117t-111.5 -28q-81 0 -110 28t-29 117q0 82 29 106.5t110 24.5z" />
<glyph unicode="&#x1f5;" horiz-adv-x="1220" d="M1085 1004v-920q0 -88 -15 -159.5t-41.5 -123.5t-67.5 -90.5t-87.5 -63t-107.5 -39.5t-123 -20.5t-137 -5.5q-99 0 -204 17.5t-179 44.5l55 245q177 -47 322 -47q136 0 203 43t67 152q-118 -60 -254 -60q-106 0 -180.5 25t-131 85t-83.5 166.5t-27 262.5q0 160 30 268 t95.5 173t159 92.5t231.5 27.5q123 0 256 -20.5t219 -52.5zM770 315v484q-69 28 -160 28q-49 0 -79 -6t-55 -23.5t-38 -52.5t-19.5 -88.5t-6.5 -134.5q0 -165 39.5 -222.5t150.5 -57.5q71 0 119.5 20t48.5 53zM664 1163h-267l252 264h322z" />
<glyph unicode="&#x1fc;" horiz-adv-x="1990" d="M670 1427h1272v-288h-734v-256h428v-283h-428v-311h734v-289h-1063v315h-605l-198 -315h-398q194 302 481 715.5t511 711.5zM459 600h420v541h-52q-173 -245 -368 -541zM1167 1530h-264l260 264h326z" />
<glyph unicode="&#x1fd;" horiz-adv-x="1767" d="M1217 1077q111 0 186.5 -15.5t137.5 -56.5t95.5 -113.5t47 -185.5t4.5 -274h-641q3 -120 56 -159.5t175 -39.5q60 0 148 10.5t143 24.5l49 -239q-79 -26 -184 -42t-195 -16q-177 0 -285 64q-85 -30 -198 -47t-213 -17q-134 0 -217 15.5t-136.5 56t-74.5 106t-21 170.5 q0 87 19.5 149t52 99.5t87 59t112.5 28.5t139 7q102 0 237 -27q0 47 -5 75t-18 50.5t-40.5 33t-68 16t-105.5 5.5q-186 0 -326 -43l-49 250q215 55 451 55q121 0 200 -22t129 -72q97 94 308 94zM770 242q-33 83 -33 190q-55 14 -162 14q-91 0 -122 -20.5t-31 -95.5 q0 -78 26.5 -101.5t120.5 -23.5q45 0 108.5 11.5t92.5 25.5zM1241 840q-97 0 -138 -37t-54 -139h364q-3 106 -40 141t-132 35zM893 1163h-266l252 264h321z" />
<glyph unicode="&#x1fe;" horiz-adv-x="1587" d="M813 1530h-264l260 264h326zM1253 1427h336l-196 -223q94 -166 94 -475q0 -175 -28.5 -304.5t-82.5 -216.5t-140.5 -139.5t-192.5 -75t-248 -22.5q-259 0 -410 80l-45 -51h-334l195 223q-103 177 -103 506q0 173 29 299t83.5 209.5t141.5 133.5t193.5 70.5t249.5 20.5 q266 0 417 -84zM795 1159q-77 0 -125.5 -5t-90 -22.5t-63.5 -44.5t-37.5 -77t-20.5 -114t-5 -161q0 -124 16 -209l522 602q-63 31 -196 31zM795 272q70 0 116 5t87.5 21.5t64.5 44t41 74.5t24.5 112.5t6.5 158.5q0 118 -15 205l-514 -592q57 -29 189 -29z" />
<glyph unicode="&#x1ff;" />
<glyph unicode="&#x218;" horiz-adv-x="1273" d="M713 1462q271 0 456 -67l-67 -283q-162 47 -391 47q-156 0 -215.5 -32t-59.5 -107q0 -48 20.5 -74t82.5 -44t186 -32q247 -28 359 -130t112 -304q0 -132 -35.5 -221t-115 -143.5t-195.5 -77.5t-287 -23q-272 0 -463 68l68 283q177 -48 391 -48q161 0 221 29.5t60 110.5 q0 49 -20.5 76.5t-88 49t-199.5 35.5q-235 25 -341.5 115t-106.5 283q0 261 152.5 375t476.5 114zM842 -104l-211 -342h-244l131 342h324z" />
<glyph unicode="&#x219;" horiz-adv-x="991" d="M838 786q-160 45 -310 45q-82 0 -114.5 -16.5t-32.5 -73.5q0 -42 35 -58.5t155 -31.5q190 -24 271.5 -93.5t81.5 -225.5q0 -83 -24 -146.5t-65 -104t-101.5 -65.5t-128 -35t-150.5 -10q-88 0 -195.5 16t-177.5 42l61 237q146 -43 297 -43q101 0 141 17t40 75 q0 30 -16 47.5t-61 29.5t-132 20t-146 25.5t-103.5 51.5t-65.5 91t-21 139q0 83 23.5 146.5t64 103t101 64.5t127 34.5t149.5 9.5q86 0 186 -15.5t172 -41.5zM698 -104l-211 -342h-243l131 342h323z" />
<glyph unicode="&#x2c6;" horiz-adv-x="1333" d="M823 1163l-135 146l-131 -146h-268l250 264h301l258 -264h-275z" />
<glyph unicode="&#x2c7;" horiz-adv-x="1325" d="M565 1427l135 -145l131 145h269l-250 -264h-301l-258 264h274z" />
<glyph unicode="&#x2c9;" horiz-adv-x="1052" d="M238 1171v218h598v-218h-598z" />
<glyph unicode="&#x2d8;" horiz-adv-x="1060" d="M186 1427h207q0 -63 28.5 -84.5t94.5 -21.5q65 0 94 22t29 84h192q0 -292 -323 -292q-155 0 -238.5 72.5t-83.5 219.5z" />
<glyph unicode="&#x2d9;" horiz-adv-x="1003" d="M461 1421q83 0 111 -24.5t28 -106.5q0 -90 -28.5 -117.5t-110.5 -27.5q-83 0 -112.5 28t-29.5 117q0 82 29.5 106.5t112.5 24.5z" />
<glyph unicode="&#x2da;" horiz-adv-x="1449" d="M737 1520q134 0 193 -45t59 -160t-59 -160t-193 -45q-135 0 -195.5 45t-60.5 160q0 116 58.5 160.5t197.5 44.5zM737 1393q-58 0 -77 -17.5t-19 -62.5q0 -44 19 -61t77 -17q56 0 75 17.5t19 60.5q0 46 -18.5 63t-75.5 17z" />
<glyph unicode="&#x2db;" horiz-adv-x="1300" d="M911 25h88q-98 -60 -130.5 -101.5t-32.5 -99.5q0 -42 24 -60t92 -18q97 0 160 53l80 -143q-50 -35 -125.5 -53.5t-148.5 -18.5q-155 0 -216 44t-61 139q0 85 68.5 153.5t201.5 104.5z" />
<glyph unicode="&#x2dc;" horiz-adv-x="1452" d="M920 1450l147 -119q-32 -85 -96.5 -138.5t-157.5 -53.5q-55 0 -106.5 24t-97 48t-85.5 24q-30 0 -52.5 -21t-45.5 -73l-135 133q92 164 227 164q51 0 97.5 -15t74 -32.5t62 -32.5t65.5 -15q36 0 58 22.5t45 84.5z" />
<glyph unicode="&#x2dd;" horiz-adv-x="1042" d="M866 1427h258l-241 -264h-209zM522 1427h258l-241 -264h-209z" />
<glyph unicode="&#x300;" horiz-adv-x="972" d="M754 1163h-265l-309 264h324z" />
<glyph unicode="&#x301;" horiz-adv-x="972" d="M446 1163h-266l252 264h322z" />
<glyph unicode="&#x303;" horiz-adv-x="1452" d="M920 1450l147 -119q-32 -85 -96.5 -138.5t-157.5 -53.5q-55 0 -106.5 24t-97 48t-85.5 24q-30 0 -52.5 -21t-45.5 -73l-135 133q92 164 227 164q51 0 97.5 -15t74 -32.5t62 -32.5t65.5 -15q36 0 58 22.5t45 84.5z" />
<glyph unicode="&#x309;" horiz-adv-x="1300" d="M711 1122h-97q95 56 125.5 92.5t30.5 90.5q0 38 -22.5 53.5t-83.5 15.5q-95 0 -152 -47l-78 141q47 33 120 50.5t144 17.5q150 0 208.5 -40.5t58.5 -129.5q0 -80 -62.5 -143.5t-191.5 -100.5z" />
<glyph unicode="&#x31b;" horiz-adv-x="440" d="M451 1047v-181q0 -57 -37.5 -117.5t-100.5 -91.5h-118q71 47 99 93t28 102h-95v195h224z" />
<glyph unicode="&#x323;" horiz-adv-x="929" d="M459 -113q85 0 114 -24t29 -107q0 -90 -29.5 -117.5t-113.5 -27.5q-81 0 -110.5 28t-29.5 117q0 83 29 107t111 24z" />
<glyph unicode="&#x384;" horiz-adv-x="800" d="M276 1479h299l-75 -332h-172z" />
<glyph unicode="&#x385;" horiz-adv-x="1153" d="M453 1479h254l-54 -332h-172zM254 1421q83 0 112 -24.5t29 -106.5q0 -89 -29.5 -117t-111.5 -28q-81 0 -110 28t-29 117q0 82 29 106.5t110 24.5zM897 1421q83 0 111 -24.5t28 -106.5q0 -90 -28.5 -117.5t-110.5 -27.5q-84 0 -112.5 27.5t-28.5 117.5q0 82 28 106.5 t113 24.5z" />
<glyph unicode="&#x386;" horiz-adv-x="1411" d="M1112 0q-66 158 -119 315h-590l-92 -315h-354q91 300 238 713.5t270 713.5h510q101 -334 244.5 -740t259.5 -687h-367zM729 1141h-53q-94 -248 -187 -541h408q-84 249 -168 541zM-31 1479h299l-75 -332h-173z" />
<glyph unicode="&#x387;" horiz-adv-x="643" d="M319 801q122 0 163.5 -33t41.5 -145q0 -121 -42 -159t-163 -38q-118 0 -159 38t-41 159q0 112 40.5 145t159.5 33z" />
<glyph unicode="&#x388;" horiz-adv-x="1282" d="M-170 1479h299l-74 -332h-172zM168 1427h1065v-288h-735v-256h526v-283h-526v-311h735v-289h-1065v1427z" />
<glyph unicode="&#x389;" horiz-adv-x="1531" d="M498 602v-602h-330v1427h330v-520h536v520h330v-1427h-330v602h-536zM-170 1479h299l-74 -332h-172z" />
<glyph unicode="&#x38a;" horiz-adv-x="665" d="M168 1427h330v-1427h-330v1427zM-170 1479h299l-76 -332h-172z" />
<glyph unicode="&#x38c;" horiz-adv-x="1587" d="M-154 1479h299l-73 -332h-172zM795 -29q-179 0 -303.5 36t-215 122t-133.5 234t-43 366q0 173 29 299t83 209.5t141 133.5t193 70.5t249 20.5t248.5 -20.5t192.5 -70.5t141 -133.5t83 -209.5t29 -299q0 -218 -43 -366t-133.5 -234t-215 -122t-302.5 -36zM795 1159 q-78 0 -126 -4.5t-90.5 -22t-63.5 -44.5t-37 -78t-20.5 -117t-4.5 -168q0 -104 5 -171.5t20 -121t37 -82.5t63.5 -48t90.5 -24.5t126 -5.5t126 5.5t90.5 24.5t63.5 48t37 82.5t20 121t5 171.5q0 102 -4.5 168t-20.5 117t-37 78t-63.5 44.5t-90.5 22t-126 4.5z" />
<glyph unicode="&#x38e;" horiz-adv-x="1337" d="M-342 1479h299l-10 -52h377q172 -222 368 -505q236 332 340 505h406q-233 -362 -586 -845v-582h-330v580q-348 488 -588 792l-51 -225h-172z" />
<glyph unicode="&#x38f;" horiz-adv-x="1658" d="M14 0v301h299q-69 48 -119.5 195t-50.5 315q0 149 29 260t83 185.5t139 120.5t190 65.5t243 19.5t243 -19.5t190 -65.5t139 -120.5t83 -185.5t29 -260q0 -167 -51 -314t-119 -196h301v-301h-696v283q45 12 79 33.5t57.5 55.5t38.5 74.5t23.5 98.5t11.5 118.5t3 143.5 q0 79 -5.5 133t-21.5 94.5t-38 63.5t-62 37.5t-86.5 19t-118.5 4.5q-135 0 -204.5 -30t-99 -104t-29.5 -218q0 -98 5 -168t18 -134t36.5 -105.5t61 -71t90.5 -43.5v-285h-691zM-137 1479h299l-76 -332h-172z" />
<glyph unicode="&#x390;" horiz-adv-x="626" d="M449 1047v-670q0 -53 32 -74.5t119 -21.5l-47 -310q-104 0 -172 11.5t-118 37.5t-77 75.5t-39 119t-12 174.5v658h314zM186 1479h254l-53 -332h-172zM-12 1421q83 0 112 -24.5t29 -106.5q0 -89 -29.5 -117t-111.5 -28q-81 0 -110.5 28t-29.5 117q0 82 29 106.5t111 24.5z M631 1421q83 0 111 -24.5t28 -106.5q0 -90 -28.5 -117.5t-110.5 -27.5q-84 0 -113 27.5t-29 117.5q0 82 28.5 106.5t113.5 24.5z" />
<glyph unicode="&#x391;" horiz-adv-x="1411" d="M1112 0q-66 158 -119 315h-590l-92 -315h-354q91 300 238 713.5t270 713.5h510q101 -334 244.5 -740t259.5 -687h-367zM729 1141h-53q-94 -248 -187 -541h408q-84 249 -168 541z" />
<glyph unicode="&#x392;" horiz-adv-x="1480" d="M897 281q53 0 78.5 37.5t25.5 119.5q0 170 -112 170h-391v-327h399zM887 877q48 0 70 31.5t22 103.5t-22 103.5t-70 31.5h-389v-270h389zM1028 752q100 -4 166.5 -30t102 -75.5t49.5 -111t14 -150.5q0 -206 -97 -295.5t-280 -89.5h-815v1427h809q105 0 175.5 -21.5 t109.5 -67t55 -105.5t16 -148q0 -80 -12 -134t-44.5 -98.5t-93.5 -69t-155 -31.5z" />
<glyph unicode="&#x393;" horiz-adv-x="1126" d="M498 0h-330v1427h1003v-288h-673v-1139z" />
<glyph unicode="&#x394;" horiz-adv-x="1337" d="M1380 0h-1443q87 291 236 703.5t278 723.5h421q108 -356 250 -759t258 -668zM639 1071q-109 -274 -266 -782h530q-152 402 -264 782z" />
<glyph unicode="&#x395;" horiz-adv-x="1282" d="M168 1427h1065v-288h-735v-256h526v-283h-526v-311h735v-289h-1065v1427z" />
<glyph unicode="&#x396;" horiz-adv-x="1286" d="M31 0v70q147 210 358 532t344 537h-661v288h1185v-65q-125 -214 -352 -562t-350 -511h698v-289h-1222z" />
<glyph unicode="&#x397;" horiz-adv-x="1531" d="M498 602v-602h-330v1427h330v-520h536v520h330v-1427h-330v602h-536z" />
<glyph unicode="&#x398;" horiz-adv-x="1587" d="M795 -29q-179 0 -303.5 36t-215 122t-133.5 234t-43 366q0 173 29 299t83 209.5t141 133.5t193 70.5t249 20.5t248.5 -20.5t192.5 -70.5t141 -133.5t83 -209.5t29 -299q0 -218 -43 -366t-133.5 -234t-215 -122t-302.5 -36zM795 1159q-78 0 -126 -4.5t-90.5 -22 t-63.5 -44.5t-37 -78t-20.5 -117t-4.5 -168q0 -104 5 -171.5t20 -121t37 -82.5t63.5 -48t90.5 -24.5t126 -5.5t126 5.5t90.5 24.5t63.5 48t37 82.5t20 121t5 171.5q0 102 -4.5 168t-20.5 117t-37 78t-63.5 44.5t-90.5 22t-126 4.5zM549 635v219h487v-219h-487z" />
<glyph unicode="&#x399;" horiz-adv-x="665" d="M168 1427h330v-1427h-330v1427z" />
<glyph unicode="&#x39a;" horiz-adv-x="1400" d="M498 1427v-1427h-330v1427h330zM1434 0h-398q-180 329 -326 527.5t-210 226.5q67 54 206.5 236t294.5 437h394q-162 -251 -294.5 -426.5t-189.5 -228.5q60 -47 206 -251.5t317 -520.5z" />
<glyph unicode="&#x39b;" horiz-adv-x="1337" d="M653 1071q-158 -405 -350 -1071h-352q85 291 234.5 704t279.5 723h422q108 -356 250 -759t258 -668h-365q-87 204 -199 521.5t-178 549.5z" />
<glyph unicode="&#x39c;" horiz-adv-x="1923" d="M977 592q164 434 356 835h422v-1427h-319v965q-168 -371 -353 -846h-262q-241 637 -334 846v-965h-319v1427h442q176 -352 367 -835z" />
<glyph unicode="&#x39d;" horiz-adv-x="1630" d="M1460 1427v-1427h-407q-244 452 -564 975v-975h-321v1427h430q277 -453 535 -940v940h327z" />
<glyph unicode="&#x39e;" horiz-adv-x="1216" d="M51 289h1114v-289h-1114v289zM1165 1139h-1114v288h1114v-288zM233 598v287h750v-287h-750z" />
<glyph unicode="&#x39f;" horiz-adv-x="1587" d="M795 -29q-179 0 -303.5 36t-215 122t-133.5 234t-43 366q0 173 29 299t83 209.5t141 133.5t193 70.5t249 20.5t248.5 -20.5t192.5 -70.5t141 -133.5t83 -209.5t29 -299q0 -218 -43 -366t-133.5 -234t-215 -122t-302.5 -36zM795 1159q-78 0 -126 -4.5t-90.5 -22 t-63.5 -44.5t-37 -78t-20.5 -117t-4.5 -168q0 -104 5 -171.5t20 -121t37 -82.5t63.5 -48t90.5 -24.5t126 -5.5t126 5.5t90.5 24.5t63.5 48t37 82.5t20 121t5 171.5q0 102 -4.5 168t-20.5 117t-37 78t-63.5 44.5t-90.5 22t-126 4.5z" />
<glyph unicode="&#x3a0;" horiz-adv-x="1531" d="M498 1139v-1139h-330v1427h1196v-1427h-330v1139h-536z" />
<glyph unicode="&#x3a1;" horiz-adv-x="1400" d="M498 717h352q143 0 143 209q0 114 -35 166.5t-104 52.5h-356v-428zM498 0h-330v1427h637q96 0 209 -10q342 -27 342 -491q0 -133 -42.5 -240.5t-132.5 -174.5t-214 -67h-469v-444z" />
<glyph unicode="&#x3a3;" horiz-adv-x="1288" d="M39 0v55q178 241 424 658q-227 351 -406 661v53h1182v-288h-659q103 -172 274 -428q-197 -302 -289 -422h674v-289h-1200z" />
<glyph unicode="&#x3a4;" horiz-adv-x="1288" d="M811 0h-334v1139h-475v288h1284v-288h-475v-1139z" />
<glyph unicode="&#x3a5;" horiz-adv-x="1337" d="M324 1427q172 -222 368 -505q236 332 340 505h406q-233 -362 -586 -845v-582h-330v580q-426 597 -633 847h435z" />
<glyph unicode="&#x3a6;" horiz-adv-x="1697" d="M670 1427h329v-163q181 -9 300 -43.5t190.5 -102.5t101 -163.5t29.5 -237.5q0 -143 -29.5 -238.5t-101.5 -163.5t-190.5 -102t-299.5 -43v-170h-329v168q-179 9 -294.5 43.5t-183.5 103t-95 163.5t-27 239q0 95 11.5 167t38.5 133t71.5 103t112 73t157.5 48t209 23v163z M1280 717q0 55 -3.5 91.5t-14.5 69.5t-29.5 52t-50.5 34t-76 21t-107 8v-557q94 3 149 17.5t84.5 50.5t38.5 83t9 130zM403 717q0 -81 9.5 -128.5t38.5 -83t80.5 -50.5t138.5 -19v557q-87 -3 -138.5 -17t-80.5 -48.5t-38.5 -82t-9.5 -128.5z" />
<glyph unicode="&#x3a7;" horiz-adv-x="1409" d="M410 1427l309 -413q185 267 274 413h412q-177 -271 -481 -702q303 -422 506 -725h-416q-198 295 -297 434q-227 -306 -330 -434h-410q177 224 533 721q-364 496 -530 706h430z" />
<glyph unicode="&#x3a8;" horiz-adv-x="1673" d="M57 1427h342q0 -142 3.5 -238t14.5 -179t29.5 -131.5t49 -84t71 -50t99.5 -17.5v700h329v-700q63 2 107 16t76 50t50.5 83.5t29.5 132t14.5 179t3.5 239.5h340q0 -185 -12.5 -322.5t-42.5 -247.5t-76 -183.5t-116.5 -124t-161 -75t-212.5 -30.5v-444h-329v442 q-121 6 -209.5 31t-156.5 76t-112 124t-73 184.5t-42 247.5t-16 322z" />
<glyph unicode="&#x3a9;" horiz-adv-x="1658" d="M14 0v301h299q-69 48 -119.5 195t-50.5 315q0 149 29 260t83 185.5t139 120.5t190 65.5t243 19.5t243 -19.5t190 -65.5t139 -120.5t83 -185.5t29 -260q0 -167 -51 -314t-119 -196h301v-301h-696v283q45 12 79 33.5t57.5 55.5t38.5 74.5t23.5 98.5t11.5 118.5t3 143.5 q0 79 -5.5 133t-21.5 94.5t-38 63.5t-62 37.5t-86.5 19t-118.5 4.5q-135 0 -204.5 -30t-99 -104t-29.5 -218q0 -98 5 -168t18 -134t36.5 -105.5t61 -71t90.5 -43.5v-285h-691z" />
<glyph unicode="&#x3aa;" horiz-adv-x="665" d="M168 1427h330v-1427h-330v1427zM104 1786q84 0 113 -24t29 -105q0 -91 -29.5 -118.5t-112.5 -27.5q-82 0 -110.5 27.5t-28.5 118.5q0 82 28 105.5t111 23.5zM567 1786q82 0 111 -24t29 -105q0 -90 -29.5 -118t-110.5 -28q-84 0 -112.5 27.5t-28.5 118.5q0 82 28 105.5 t113 23.5z" />
<glyph unicode="&#x3ab;" horiz-adv-x="1337" d="M324 1427q172 -222 368 -505q236 332 340 505h406q-233 -362 -586 -845v-582h-330v580q-426 597 -633 847h435zM459 1786q83 0 112 -23.5t29 -105.5q0 -91 -29 -118.5t-112 -27.5t-111.5 27.5t-28.5 118.5q0 82 28.5 105.5t111.5 23.5zM922 1786q82 0 110.5 -24 t28.5 -105q0 -91 -29 -118.5t-110 -27.5q-84 0 -113 27.5t-29 118.5q0 82 28.5 105.5t113.5 23.5z" />
<glyph unicode="&#x3ac;" horiz-adv-x="1406" d="M1339 1049q-76 -290 -219 -603q32 -95 85 -130t159 -35l-47 -310q-152 0 -242 50.5t-131 158.5q-62 -117 -147 -163t-228 -46q-88 0 -157 15t-130.5 53.5t-101.5 101t-63 160.5t-23 229q0 108 15.5 193t46 144.5t71 101t95.5 65t114.5 33.5t132.5 10q184 0 278.5 -56.5 t135.5 -193.5q42 99 59 222h297zM590 217q74 0 119 47t116 195q-17 72 -27.5 114.5t-24 87.5t-25.5 69t-27.5 47t-34.5 32.5t-42 15.5t-54 6q-76 0 -112 -23t-51 -86.5t-15 -197.5q0 -129 15 -192.5t51.5 -89t111.5 -25.5zM506 1479h299l-76 -332h-172z" />
<glyph unicode="&#x3ad;" horiz-adv-x="1060" d="M434 1479h299l-76 -332h-172zM602 1077q214 0 406 -41l-62 -268q-153 47 -338 47q-107 0 -142.5 -18t-35.5 -64q0 -44 35 -60t127 -16h162v-227h-162q-98 0 -139 -19.5t-41 -74.5q0 -40 15.5 -60.5t57.5 -30t125 -9.5q91 0 185.5 15t156.5 38l58 -279q-202 -39 -408 -39 q-296 0 -410 63t-114 240q0 131 60.5 200.5t205.5 76.5q-139 10 -191.5 68t-52.5 178q0 109 45 168t152 85.5t305 26.5z" />
<glyph unicode="&#x3ae;" horiz-adv-x="1282" d="M477 924q153 153 340 153q160 0 251 -125t91 -354v-991h-315v968q0 104 -32.5 150.5t-104.5 46.5q-105 0 -197 -74v-698h-315v668q0 85 -29 115t-123 30l31 264q147 0 223.5 -12.5t117 -44.5t62.5 -96zM522 1479h299l-76 -332h-172z" />
<glyph unicode="&#x3af;" horiz-adv-x="626" d="M449 1047v-670q0 -53 32 -74.5t119 -21.5l-47 -310q-104 0 -172 11.5t-118 37.5t-77 75.5t-39 119t-12 174.5v658h314zM152 1479h299l-76 -332h-172z" />
<glyph unicode="&#x3b0;" horiz-adv-x="1273" d="M94 1077q233 0 319.5 -46.5t86.5 -176.5v-362q0 -146 30 -194t134 -48q97 0 134.5 50.5t37.5 186.5v562h313v-586q0 -138 -29 -232.5t-90.5 -152t-150.5 -82.5t-217 -25q-138 0 -227.5 24.5t-146 83.5t-79.5 151.5t-23 236.5v215q0 52 -27.5 71t-115.5 19zM532 1479h254 l-53 -332h-172zM334 1421q83 0 112 -24.5t29 -106.5q0 -89 -29.5 -117t-111.5 -28q-81 0 -110 28t-29 117q0 82 29 106.5t110 24.5zM977 1421q83 0 111 -24.5t28 -106.5q0 -90 -28.5 -117.5t-110.5 -27.5q-84 0 -112.5 27.5t-28.5 117.5q0 82 28 106.5t113 24.5z" />
<glyph unicode="&#x3b1;" horiz-adv-x="1406" d="M1339 1049q-76 -290 -219 -603q32 -95 85 -130t159 -35l-47 -310q-152 0 -242 50.5t-131 158.5q-62 -117 -147 -163t-228 -46q-88 0 -157 15t-130.5 53.5t-101.5 101t-63 160.5t-23 229q0 108 15.5 193t46 144.5t71 101t95.5 65t114.5 33.5t132.5 10q184 0 278.5 -56.5 t135.5 -193.5q42 99 59 222h297zM590 217q74 0 119 47t116 195q-17 72 -27.5 114.5t-24 87.5t-25.5 69t-27.5 47t-34.5 32.5t-42 15.5t-54 6q-76 0 -112 -23t-51 -86.5t-15 -197.5q0 -129 15 -192.5t51.5 -89t111.5 -25.5z" />
<glyph unicode="&#x3b2;" horiz-adv-x="1353" d="M696 -29q-110 0 -245 23v-387h-316v1464q0 214 129 302.5t395 88.5q126 0 214.5 -11t154.5 -35.5t104 -66.5t56 -101.5t18 -143.5q0 -142 -60 -219.5t-218 -91.5q98 -4 165 -34t102.5 -84t50 -119t14.5 -155q0 -230 -131 -330t-433 -100zM451 1016v-750q107 -26 262 -26 q120 0 160 45t40 170q0 105 -43 152.5t-159 47.5h-105v254h96q100 0 137.5 33t37.5 113q0 74 -47 102.5t-173 28.5q-115 0 -160.5 -43.5t-45.5 -126.5z" />
<glyph unicode="&#x3b3;" horiz-adv-x="1044" d="M356 -96q-149 546 -379 1145h320q117 -308 229 -732q150 429 224 732h313q-151 -532 -416 -1145q29 -139 29 -297h-383q9 119 63 297z" />
<glyph unicode="&#x3b4;" horiz-adv-x="1236" d="M313 870q-174 63 -174 258q0 179 118 256.5t361 77.5q134 0 276.5 -18.5t217.5 -42.5l-74 -277q-206 78 -426 78q-83 0 -114 -17t-31 -55q0 -32 32.5 -48.5t131.5 -41.5q201 -49 309 -114t156.5 -169.5t48.5 -277.5q0 -142 -34.5 -241.5t-104 -157.5t-164.5 -83.5 t-226 -25.5q-132 0 -225.5 22.5t-162 76t-101.5 145t-33 225.5q0 320 219 430zM825 465q0 135 -48 199.5t-185 95.5q-98 -42 -139 -107.5t-41 -187.5q0 -100 21.5 -153.5t63.5 -73t119 -19.5q57 0 93 9t64 35.5t40 75.5t12 126z" />
<glyph unicode="&#x3b5;" horiz-adv-x="1060" d="M602 1077q214 0 406 -41l-62 -268q-153 47 -338 47q-107 0 -142.5 -18t-35.5 -64q0 -44 35 -60t127 -16h162v-227h-162q-98 0 -139 -19.5t-41 -74.5q0 -40 15.5 -60.5t57.5 -30t125 -9.5q91 0 185.5 15t156.5 38l58 -279q-202 -39 -408 -39q-296 0 -410 63t-114 240 q0 131 60.5 200.5t205.5 76.5q-139 10 -191.5 68t-52.5 178q0 109 45 168t152 85.5t305 26.5z" />
<glyph unicode="&#x3b6;" horiz-adv-x="1140" d="M688 1137h-596v290h1038v-266q-163 -125 -269 -209.5t-184 -155t-118 -114.5t-63 -90.5t-28 -79t-5 -84.5q0 -51 15 -83.5t50.5 -51.5t81 -27.5t119.5 -13.5q153 -8 229 -62.5t76 -185.5q0 -196 -141 -397h-334q62 100 90.5 163t28.5 117q0 72 -47.5 94.5t-206.5 30.5 q-79 4 -131.5 20.5t-95 55.5t-62.5 110t-20 179q0 71 6 119t27 104.5t57 104.5t102.5 115t156.5 140.5t224 176.5z" />
<glyph unicode="&#x3b7;" horiz-adv-x="1282" d="M477 924q153 153 340 153q160 0 251 -125t91 -354v-991h-315v968q0 104 -32.5 150.5t-104.5 46.5q-105 0 -197 -74v-698h-315v668q0 85 -29 115t-123 30l31 264q147 0 223.5 -12.5t117 -44.5t62.5 -96z" />
<glyph unicode="&#x3b8;" horiz-adv-x="1286" d="M643 -29q-112 0 -197 22.5t-153.5 76t-112.5 141t-67 217.5t-23 305q0 172 23.5 298t66.5 208.5t112.5 132t153.5 70t197 20.5t197 -20.5t153 -70t112 -132t66 -208.5t23 -298q0 -175 -23 -305t-66.5 -217.5t-112 -140.5t-153 -76t-196.5 -23zM643 274q68 0 107.5 13 t66.5 53.5t37 109t12 185.5h-444q2 -117 12.5 -185.5t37.5 -109t65.5 -53.5t105.5 -13zM643 1163q-53 0 -85.5 -6t-60 -23.5t-42 -52.5t-23 -89t-10.5 -138h442q-2 104 -12.5 164t-38.5 93t-65 42.5t-105 9.5z" />
<glyph unicode="&#x3b9;" horiz-adv-x="626" d="M449 1047v-670q0 -53 32 -74.5t119 -21.5l-47 -310q-104 0 -172 11.5t-118 37.5t-77 75.5t-39 119t-12 174.5v658h314z" />
<glyph unicode="&#x3ba;" horiz-adv-x="1204" d="M451 1049v-455q173 163 362 455h363q-135 -210 -365 -461q66 -64 181.5 -223t232.5 -365h-365q-172 291 -248 391q-70 -65 -161 -131v-260h-316v1049h316z" />
<glyph unicode="&#x3bb;" horiz-adv-x="1048" d="M356 1038q-39 102 -76 129t-130 27l28 268q87 0 146.5 -3.5t113.5 -14t89 -27.5t65 -46.5t50 -69t36 -95.5q219 -753 393 -1206h-332q-126 334 -217 713q-161 -385 -237 -713h-310q116 401 381 1038z" />
<glyph unicode="&#x3bc;" horiz-adv-x="1296" d="M823 125q-113 -154 -274 -154q-88 0 -135 35q-9 -223 -33 -399h-293q53 391 53 721v719h316v-574q0 -101 31.5 -147.5t105.5 -46.5q109 0 197 71v699h315v-676q0 -52 32 -74.5t119 -22.5l-51 -305q-164 0 -253 33t-130 121z" />
<glyph unicode="&#x3bd;" horiz-adv-x="1044" d="M524 319q150 419 226 730h313q-154 -525 -369 -1049h-375q-164 581 -342 1014l320 71q143 -372 227 -766z" />
<glyph unicode="&#x3be;" horiz-adv-x="1161" d="M463 362q0 -42 18.5 -62t74 -31.5t173.5 -16.5q152 -5 231.5 -60t79.5 -182q0 -202 -141 -403h-334q62 100 90.5 164t28.5 123q0 71 -45 90.5t-211 25.5q-81 4 -134 16t-96 40.5t-63 80t-20 129.5q0 123 88 203.5t270 143.5q-165 0 -229 35t-64 135q0 40 8.5 71t32.5 60 t53 51.5t84 50.5t111 51.5t147 59.5h-526v290h1045v-266q-239 -82 -366 -137.5t-163.5 -86t-36.5 -63.5q0 -19 3.5 -30t19.5 -21t41 -14.5t74.5 -8t113 -4.5t164.5 -1v-201q-172 -31 -277.5 -58t-158.5 -55.5t-69.5 -54.5t-16.5 -64z" />
<glyph unicode="&#x3bf;" d="M602 -29q-131 0 -222.5 27t-157.5 91t-97 172.5t-31 268.5q0 159 31.5 266t98 168.5t157 87t221.5 25.5q133 0 224.5 -25.5t158 -87t98 -168.5t31.5 -266q0 -160 -31 -268.5t-97.5 -172.5t-158.5 -91t-225 -27zM602 831q-60 0 -92.5 -9t-57 -42t-32.5 -92.5t-8 -163.5 q0 -133 18 -198t56 -87t116 -22q80 0 118.5 22t56.5 87t18 198q0 84 -6 137.5t-18 88.5t-37 52t-54 23t-78 6z" />
<glyph unicode="&#x3c0;" horiz-adv-x="1349" d="M819 356v404h-280v-760h-316v760h-188v287h1278v-287h-178v-379q0 -56 23 -80.5t87 -28.5l-57 -301q-113 3 -182.5 22t-112.5 65t-58.5 115.5t-15.5 182.5z" />
<glyph unicode="&#x3c1;" horiz-adv-x="1220" d="M680 -29q-122 0 -229 47v-411h-316v923q0 126 22.5 220t63.5 156t104.5 100.5t140.5 54.5t177 16q130 0 217.5 -26t148.5 -90t88 -170.5t27 -266.5q0 -155 -32 -264.5t-93 -171.5t-139 -89.5t-180 -27.5zM610 815q-63 0 -95 -21.5t-48 -85t-16 -190.5v-209 q0 -35 46 -57.5t115 -22.5q113 0 155 61t42 226q0 127 -19.5 191t-59.5 86t-120 22z" />
<glyph unicode="&#x3c2;" horiz-adv-x="966" d="M94 518q0 559 522 559q86 0 178.5 -12t151.5 -33l-65 -266q-110 43 -238 43q-52 0 -84 -5t-63 -21t-47.5 -47t-26.5 -83t-10 -129q0 -154 44.5 -206.5t182.5 -67.5q48 -5 83 -13t68.5 -24.5t54.5 -40.5t33.5 -63t12.5 -91q0 -89 -44.5 -216t-92.5 -195h-334 q119 191 119 301q0 57 -24 73t-120 25q-105 9 -169 58t-98 159.5t-34 294.5z" />
<glyph unicode="&#x3c3;" horiz-adv-x="1343" d="M602 -29q-131 0 -222.5 27t-157.5 91t-97 172.5t-31 268.5q0 159 31.5 266t98 168.5t157 87t221.5 25.5q16 0 246 -14t475 -14v-289h-285q76 -119 76 -285q0 -140 -31.5 -237t-97 -156t-159 -85t-224.5 -26zM602 831q-60 0 -92.5 -9t-57 -42t-32.5 -92.5t-8 -163.5 q0 -133 18 -198t56 -87t116 -22q80 0 118.5 22t56.5 87t18 198q0 84 -6 137.5t-18 88.5t-37 52t-54 23t-78 6z" />
<glyph unicode="&#x3c4;" horiz-adv-x="1046" d="M352 352v408h-336v287h1022v-287h-372v-383q0 -53 33 -76.5t120 -26.5l-53 -303q-80 1 -135.5 7t-105 22t-80 42.5t-52.5 68.5t-31.5 101t-9.5 140z" />
<glyph unicode="&#x3c5;" horiz-adv-x="1284" d="M94 1077q233 0 319.5 -46.5t86.5 -176.5v-362q0 -146 30 -194t134 -48q97 0 134.5 50.5t37.5 186.5v562h313v-586q0 -138 -29 -232.5t-90.5 -152t-150.5 -82.5t-217 -25q-138 0 -227.5 24.5t-146 83.5t-79.5 151.5t-23 236.5v215q0 52 -27.5 71t-115.5 19z" />
<glyph unicode="&#x3c6;" horiz-adv-x="1683" d="M997 -23v-370h-313v370q-319 17 -455.5 140.5t-136.5 410.5q0 283 136.5 404.5t455.5 140.5v391h313v-391q319 -19 455.5 -140.5t136.5 -404.5q0 -145 -33 -245t-106 -165.5t-182.5 -98t-270.5 -42.5zM412 524q0 -165 56 -228t216 -75v604q-83 -5 -133.5 -20.5t-82.5 -51 t-44 -89t-12 -140.5zM1270 524q0 86 -12.5 139.5t-44.5 89t-83 51.5t-133 21v-604q159 12 216 76t57 227z" />
<glyph unicode="&#x3c7;" horiz-adv-x="1097" d="M735 338q110 -267 205 -399q35 -48 135 -48l-51 -307q-62 0 -105 5t-79 14t-63.5 30t-50 45.5t-47 69.5t-47 92t-56.5 122q-11 25 -17 38q-186 -338 -219 -393h-342q142 230 403 719q-114 261 -206 393q-20 30 -54 40.5t-90 10.5l51 307q43 0 75 -1.5t62.5 -7t52 -11 t43.5 -19t37 -26t34 -36.5t32 -45.5t32.5 -59t35 -70t40.5 -84.5q16 -35 25 -53q100 198 181 383h342q-123 -257 -359 -709z" />
<glyph unicode="&#x3c8;" horiz-adv-x="1714" d="M1620 549q0 -151 -33.5 -255t-108.5 -172t-187 -102.5t-277 -44.5v-368h-316v368q-164 10 -275.5 44.5t-186.5 102.5t-108.5 172t-33.5 255q0 158 18.5 309t43.5 217l313 -61q-59 -142 -59 -453q0 -173 59.5 -237t228.5 -76v1218h316v-1218q116 9 176.5 39t86.5 93 t26 181q0 309 -60 453l316 61q25 -66 43 -217t18 -309z" />
<glyph unicode="&#x3c9;" horiz-adv-x="1730" d="M1006 829v-331q0 -120 30 -166.5t113 -46.5q36 0 60.5 5t47 21t35 44.5t20 75.5t7.5 114q0 152 -16 278.5t-43 190.5l313 61q26 -67 44.5 -218t18.5 -308q0 -300 -100.5 -439t-323.5 -139q-168 0 -248 59.5t-98 207.5q-20 -148 -101 -207.5t-249 -59.5q-223 0 -322.5 139 t-99.5 439q0 158 18.5 309t43.5 217l315 -61q-27 -64 -43 -190.5t-16 -278.5q0 -84 10 -136.5t33 -79t51 -35.5t74 -9q84 0 115.5 47t31.5 166v331h279z" />
<glyph unicode="&#x3ca;" horiz-adv-x="626" d="M449 1047v-670q0 -53 32 -74.5t119 -21.5l-47 -310q-104 0 -172 11.5t-118 37.5t-77 75.5t-39 119t-12 174.5v658h314zM68 1421q83 0 112 -24.5t29 -106.5q0 -89 -29.5 -117t-111.5 -28q-81 0 -110.5 28t-29.5 117q0 82 29 106.5t111 24.5zM530 1421q82 0 111 -24.5 t29 -106.5q0 -89 -29.5 -117t-110.5 -28q-84 0 -112.5 27.5t-28.5 117.5q0 82 28 106.5t113 24.5z" />
<glyph unicode="&#x3cb;" horiz-adv-x="1284" d="M94 1077q233 0 319.5 -46.5t86.5 -176.5v-362q0 -146 30 -194t134 -48q97 0 134.5 50.5t37.5 186.5v562h313v-586q0 -138 -29 -232.5t-90.5 -152t-150.5 -82.5t-217 -25q-138 0 -227.5 24.5t-146 83.5t-79.5 151.5t-23 236.5v215q0 52 -27.5 71t-115.5 19zM412 1421 q83 0 112 -24.5t29 -106.5q0 -89 -29.5 -117t-111.5 -28q-81 0 -110.5 28t-29.5 117q0 82 29 106.5t111 24.5zM874 1421q82 0 111 -24.5t29 -106.5q0 -89 -29.5 -117t-110.5 -28q-84 0 -112.5 27.5t-28.5 117.5q0 82 28 106.5t113 24.5z" />
<glyph unicode="&#x3cc;" d="M602 -29q-131 0 -222.5 27t-157.5 91t-97 172.5t-31 268.5q0 159 31.5 266t98 168.5t157 87t221.5 25.5q133 0 224.5 -25.5t158 -87t98 -168.5t31.5 -266q0 -160 -31 -268.5t-97.5 -172.5t-158.5 -91t-225 -27zM602 831q-60 0 -92.5 -9t-57 -42t-32.5 -92.5t-8 -163.5 q0 -133 18 -198t56 -87t116 -22q80 0 118.5 22t56.5 87t18 198q0 84 -6 137.5t-18 88.5t-37 52t-54 23t-78 6zM455 1479h299l-76 -332h-172z" />
<glyph unicode="&#x3cd;" horiz-adv-x="1284" d="M508 1479h299l-76 -332h-172zM94 1077q233 0 319.5 -46.5t86.5 -176.5v-362q0 -146 30 -194t134 -48q97 0 134.5 50.5t37.5 186.5v562h313v-586q0 -138 -29 -232.5t-90.5 -152t-150.5 -82.5t-217 -25q-138 0 -227.5 24.5t-146 83.5t-79.5 151.5t-23 236.5v215 q0 52 -27.5 71t-115.5 19z" />
<glyph unicode="&#x3ce;" horiz-adv-x="1730" d="M1006 829v-331q0 -120 30 -166.5t113 -46.5q36 0 60.5 5t47 21t35 44.5t20 75.5t7.5 114q0 152 -16 278.5t-43 190.5l313 61q26 -67 44.5 -218t18.5 -308q0 -300 -100.5 -439t-323.5 -139q-168 0 -248 59.5t-98 207.5q-20 -148 -101 -207.5t-249 -59.5q-223 0 -322.5 139 t-99.5 439q0 158 18.5 309t43.5 217l315 -61q-27 -64 -43 -190.5t-16 -278.5q0 -84 10 -136.5t33 -79t51 -35.5t74 -9q84 0 115.5 47t31.5 166v331h279zM715 1479h299l-76 -332h-172z" />
<glyph unicode="&#x401;" horiz-adv-x="1282" d="M168 1427h1065v-288h-735v-256h526v-283h-526v-311h735v-289h-1065v1427zM459 1786q83 0 112 -23.5t29 -105.5q0 -91 -29 -118.5t-112 -27.5t-111.5 27.5t-28.5 118.5q0 82 28.5 105.5t111.5 23.5zM922 1786q82 0 110.5 -24t28.5 -105q0 -91 -29 -118.5t-110 -27.5 q-84 0 -113 27.5t-29 118.5q0 82 28.5 105.5t113.5 23.5z" />
<glyph unicode="&#x402;" horiz-adv-x="1570" d="M1286 1139h-475v-250q146 65 279 65q78 0 134 -13t106.5 -50t81 -101t48 -167.5t17.5 -247.5q0 -168 -25 -302.5t-70 -223t-95 -144.5t-111 -90l-236 207q40 24 67.5 48.5t55.5 66.5t44.5 97t27 138t10.5 190q0 83 -7.5 140t-20 91.5t-36 52.5t-49 24t-65.5 6 q-63 0 -108 -17t-48 -45v-614h-334v1139h-475v288h1284v-288z" />
<glyph unicode="&#x403;" horiz-adv-x="1132" d="M498 0h-330v1427h1003v-288h-673v-1139zM723 1530h-264l260 264h325z" />
<glyph unicode="&#x404;" horiz-adv-x="1269" d="M1022 883v-283h-561q7 -84 27 -142t50.5 -93.5t80.5 -55.5t105 -26.5t136 -6.5q70 0 158 11t139 28l64 -297q-83 -20 -206.5 -33.5t-223.5 -13.5q-178 0 -302.5 36.5t-214.5 122.5t-133 233.5t-43 363.5q0 145 19 257t59.5 193t96.5 136.5t136 88t171.5 46.5t210.5 14 q100 0 224.5 -14.5t205.5 -36.5l-64 -291q-51 17 -139 28t-158 11q-66 0 -111.5 -3.5t-91 -13.5t-75 -29t-55.5 -49t-41 -75t-23 -106h559z" />
<glyph unicode="&#x405;" horiz-adv-x="1273" d="M713 1462q271 0 456 -67l-67 -283q-162 47 -391 47q-156 0 -215.5 -32t-59.5 -107q0 -48 20.5 -74t82.5 -44t186 -32q247 -28 359 -130t112 -304q0 -132 -35.5 -221t-115 -143.5t-195.5 -77.5t-287 -23q-272 0 -463 68l68 283q177 -48 391 -48q161 0 221 29.5t60 110.5 q0 49 -20.5 76.5t-88 49t-199.5 35.5q-235 25 -341.5 115t-106.5 283q0 261 152.5 375t476.5 114z" />
<glyph unicode="&#x406;" horiz-adv-x="665" d="M168 1427h330v-1427h-330v1427z" />
<glyph unicode="&#x407;" horiz-adv-x="665" d="M168 1427h330v-1427h-330v1427zM102 1786q84 0 113 -24t29 -105q0 -91 -29.5 -118.5t-112.5 -27.5q-82 0 -110.5 27.5t-28.5 118.5q0 82 28 105.5t111 23.5zM565 1786q82 0 111 -24t29 -105q0 -90 -29.5 -118t-110.5 -28q-84 0 -112.5 27.5t-28.5 118.5q0 82 28 105.5 t113 23.5z" />
<glyph unicode="&#x408;" horiz-adv-x="966" d="M807 1427v-1034q0 -96 -26 -171t-69 -121.5t-103 -76.5t-122.5 -41.5t-134.5 -11.5q-189 0 -346 54l55 294q112 -40 252 -40q160 0 160 167v981h334z" />
<glyph unicode="&#x409;" horiz-adv-x="2234" d="M1667 692h-348v-411h352q67 0 99 49t32 155q0 207 -135 207zM1778 961q98 0 173 -37t120.5 -102.5t68.5 -150.5t23 -186q0 -485 -379 -485h-795v1139h-297q-43 -572 -188.5 -870t-394.5 -298q-57 294 -60 314q291 0 338 1142h932v-466h459z" />
<glyph unicode="&#x40a;" horiz-adv-x="2258" d="M498 672v-672h-330v1427h330v-477h516v477h329v-479h459q98 0 173 -36t120.5 -101t68.5 -149t23 -185q0 -477 -379 -477h-794v672h-516zM1692 672h-349v-391h353q68 0 99.5 45t31.5 151q0 109 -36 152t-99 43z" />
<glyph unicode="&#x40b;" horiz-adv-x="1585" d="M1090 954q60 0 106 -7.5t89.5 -26t74 -52t54 -84.5t35 -125.5t11.5 -171.5v-487h-315v467q0 64 -12.5 106.5t-38 64.5t-55 30t-72.5 8q-62 0 -107.5 -16.5t-48.5 -45.5v-614h-332v1139h-477v288h1284v-288h-475v-250q59 28 135.5 46.5t143.5 18.5z" />
<glyph unicode="&#x40c;" horiz-adv-x="1406" d="M1432 0h-392q-68 196 -129 321.5t-127 199t-131 104.5t-155 41v-666h-330v1427h330v-684q100 111 239 296t264 388h394q-165 -256 -289 -423.5t-178 -217.5q52 -20 91.5 -44t91.5 -78.5t98.5 -135t104.5 -214t118 -314.5zM838 1530h-265l261 264h325z" />
<glyph unicode="&#x40e;" horiz-adv-x="1284" d="M469 369q-80 212 -233.5 533.5t-276.5 524.5h397q184 -329 322 -694q189 389 295 694h383q-134 -341 -330 -733t-377 -694l-420 -2q121 161 240 371zM352 1784h207q0 -63 28.5 -85t94.5 -22q64 0 93.5 22t29.5 85h192q0 -293 -323 -293q-155 0 -238.5 73t-83.5 220z" />
<glyph unicode="&#x40f;" horiz-adv-x="1531" d="M1364 0h-444l-43 -389h-215l-44 389h-450v1427h332v-1124h536v1124h328v-1427z" />
<glyph unicode="&#x410;" horiz-adv-x="1411" d="M1112 0q-66 158 -119 315h-590l-92 -315h-354q91 300 238 713.5t270 713.5h510q101 -334 244.5 -740t259.5 -687h-367zM729 1141h-53q-94 -248 -187 -541h408q-84 249 -168 541z" />
<glyph unicode="&#x411;" horiz-adv-x="1480" d="M897 281q53 0 78.5 37.5t25.5 119.5q0 170 -112 170h-391v-327h399zM1255 1427v-288h-757v-262h479q188 0 285.5 -111t97.5 -330q0 -124 -26 -210t-77 -135t-117 -70t-157 -21h-815v1427h1087z" />
<glyph unicode="&#x412;" horiz-adv-x="1480" d="M897 281q53 0 78.5 37.5t25.5 119.5q0 170 -112 170h-391v-327h399zM887 877q48 0 70 31.5t22 103.5t-22 103.5t-70 31.5h-389v-270h389zM1028 752q100 -4 166.5 -30t102 -75.5t49.5 -111t14 -150.5q0 -206 -97 -295.5t-280 -89.5h-815v1427h809q105 0 175.5 -21.5 t109.5 -67t55 -105.5t16 -148q0 -80 -12 -134t-44.5 -98.5t-93.5 -69t-155 -31.5z" />
<glyph unicode="&#x413;" horiz-adv-x="1126" d="M498 0h-330v1427h1003v-288h-673v-1139z" />
<glyph unicode="&#x414;" horiz-adv-x="1683" d="M1432 1427v-1124h251q-26 -332 -45 -618h-292v315h-994v-315h-293l-47 618h232q176 542 198 1124h990zM1104 303v836h-356q-45 -490 -150 -836h506z" />
<glyph unicode="&#x415;" horiz-adv-x="1282" d="M168 1427h1065v-288h-735v-256h526v-283h-526v-311h735v-289h-1065v1427z" />
<glyph unicode="&#x416;" horiz-adv-x="2062" d="M365 0h-390q58 181 113 314.5t99 214t93 135t86.5 79t86.5 43.5q-49 48 -164.5 213.5t-276.5 427.5h389q119 -203 246 -386t219 -291v677h330v-677q89 107 217 290.5t248 386.5h389q-162 -263 -276.5 -428.5t-163.5 -212.5q49 -19 86.5 -43.5t86 -79t93 -135t99 -214 t112.5 -314.5h-389q-52 157 -98.5 267.5t-91 185.5t-94.5 119.5t-100.5 65.5t-117.5 28v-666h-330v666q-84 -9 -145 -40.5t-121 -105.5t-115.5 -199t-119.5 -321z" />
<glyph unicode="&#x417;" horiz-adv-x="1320" d="M862 752q99 -4 166 -30.5t103.5 -76t51.5 -112t15 -150.5q0 -226 -142 -319t-460 -93q-116 0 -263 14t-243 35l62 293q57 -17 169.5 -28t196.5 -11q187 0 253.5 34t66.5 128q0 93 -50 128.5t-159 35.5h-248v283h240q108 0 151 28.5t43 112.5q0 54 -24.5 82.5t-88 41.5 t-184.5 13q-83 0 -193.5 -11t-166.5 -28l-62 289q98 22 238.5 36.5t261.5 14.5q317 0 444 -82.5t127 -287.5q0 -80 -12 -135t-44 -101t-93.5 -71.5t-155.5 -32.5z" />
<glyph unicode="&#x418;" horiz-adv-x="1630" d="M1460 1427v-1427h-323v940q-286 -533 -539 -940h-430v1427h324v-978q332 542 567 978h401z" />
<glyph unicode="&#x419;" horiz-adv-x="1630" d="M1460 1427v-1427h-323v940q-286 -533 -539 -940h-430v1427h324v-978q332 542 567 978h401zM487 1784h207q0 -63 28.5 -85t94.5 -22q64 0 93.5 22t29.5 85h193q0 -293 -324 -293q-155 0 -238.5 73t-83.5 220z" />
<glyph unicode="&#x41a;" horiz-adv-x="1406" d="M1432 0h-392q-68 196 -129 321.5t-127 199t-131 104.5t-155 41v-666h-330v1427h330v-684q100 111 239 296t264 388h394q-165 -256 -289 -423.5t-178 -217.5q52 -20 91.5 -44t91.5 -78.5t98.5 -135t104.5 -214t118 -314.5z" />
<glyph unicode="&#x41b;" horiz-adv-x="1507" d="M1010 1139h-318q-89 -1168 -583 -1168l-60 316q291 0 338 1140h952v-1427h-329v1139z" />
<glyph unicode="&#x41c;" horiz-adv-x="1923" d="M977 592q164 434 356 835h422v-1427h-319v965q-168 -371 -353 -846h-262q-241 637 -334 846v-965h-319v1427h442q176 -352 367 -835z" />
<glyph unicode="&#x41d;" horiz-adv-x="1531" d="M498 602v-602h-330v1427h330v-520h536v520h330v-1427h-330v602h-536z" />
<glyph unicode="&#x41e;" horiz-adv-x="1587" d="M795 -29q-179 0 -303.5 36t-215 122t-133.5 234t-43 366q0 173 29 299t83 209.5t141 133.5t193 70.5t249 20.5t248.5 -20.5t192.5 -70.5t141 -133.5t83 -209.5t29 -299q0 -218 -43 -366t-133.5 -234t-215 -122t-302.5 -36zM795 1159q-78 0 -126 -4.5t-90.5 -22 t-63.5 -44.5t-37 -78t-20.5 -117t-4.5 -168q0 -104 5 -171.5t20 -121t37 -82.5t63.5 -48t90.5 -24.5t126 -5.5t126 5.5t90.5 24.5t63.5 48t37 82.5t20 121t5 171.5q0 102 -4.5 168t-20.5 117t-37 78t-63.5 44.5t-90.5 22t-126 4.5z" />
<glyph unicode="&#x41f;" horiz-adv-x="1531" d="M498 1139v-1139h-330v1427h1196v-1427h-330v1139h-536z" />
<glyph unicode="&#x420;" horiz-adv-x="1400" d="M498 717h352q143 0 143 209q0 114 -35 166.5t-104 52.5h-356v-428zM498 0h-330v1427h801q186 0 286.5 -133.5t100.5 -367.5q0 -133 -42.5 -240.5t-132.5 -174.5t-214 -67h-469v-444z" />
<glyph unicode="&#x421;" horiz-adv-x="1204" d="M100 727q0 146 18 257.5t56 193t91.5 136t131.5 87.5t169 47t210 14q101 0 217.5 -14t196.5 -37l-64 -291q-109 39 -280 39q-59 0 -100 -2.5t-82.5 -10t-68.5 -21t-53 -36.5t-41 -54.5t-26.5 -76.5t-16.5 -102.5t-5 -132.5q0 -99 8.5 -169.5t30 -121t49.5 -80.5t76 -47 t100 -23t129 -6q68 0 148 11t132 28l64 -297q-180 -47 -414 -47q-142 0 -247 23t-188.5 75.5t-135 140t-78.5 215.5t-27 302z" />
<glyph unicode="&#x422;" horiz-adv-x="1288" d="M811 0h-334v1139h-475v288h1284v-288h-475v-1139z" />
<glyph unicode="&#x423;" horiz-adv-x="1312" d="M676 731q195 399 297 696h381q-135 -345 -330.5 -738t-374.5 -689h-420q126 167 240 369q-80 212 -233.5 533.5t-276.5 524.5h397q179 -320 320 -696z" />
<glyph unicode="&#x424;" horiz-adv-x="1697" d="M670 1427h329v-163q181 -9 300 -43.5t190.5 -102.5t101 -163.5t29.5 -237.5q0 -143 -29.5 -238.5t-101.5 -163.5t-190.5 -102t-299.5 -43v-170h-329v168q-179 9 -294.5 43.5t-183.5 103t-95 163.5t-27 239q0 95 11.5 167t38.5 133t71.5 103t112 73t157.5 48t209 23v163z M1280 717q0 55 -3.5 91.5t-14.5 69.5t-29.5 52t-50.5 34t-76 21t-107 8v-557q94 3 149 17.5t84.5 50.5t38.5 83t9 130zM403 717q0 -81 9.5 -128.5t38.5 -83t80.5 -50.5t138.5 -19v557q-87 -3 -138.5 -17t-80.5 -48.5t-38.5 -82t-9.5 -128.5z" />
<glyph unicode="&#x425;" horiz-adv-x="1409" d="M410 1427q107 -141 309 -413q185 267 274 413h412q-177 -271 -481 -702q303 -422 506 -725h-416q-198 295 -297 434q-227 -306 -330 -434h-410q177 224 533 721q-364 496 -530 706h430z" />
<glyph unicode="&#x426;" horiz-adv-x="1613" d="M498 1427v-1124h536v1124h330v-1124h250l-45 -618h-293v315h-1108v1427h330z" />
<glyph unicode="&#x427;" horiz-adv-x="1435" d="M590 381q-92 0 -164.5 13t-140 48t-112 91.5t-71 148.5t-26.5 215v530h332v-518q0 -130 54.5 -174.5t205.5 -44.5q268 0 268 125v612h330v-1427h-330v438q-52 -25 -146.5 -41t-199.5 -16z" />
<glyph unicode="&#x428;" horiz-adv-x="2066" d="M1898 1427v-1427h-1730v1427h330v-1124h370v1124h330v-1124h371v1124h329z" />
<glyph unicode="&#x429;" horiz-adv-x="2150" d="M498 1427v-1124h370v1124h330v-1124h371v1124h329v-1124h250q-19 -286 -45 -618h-293v315h-1642v1427h330z" />
<glyph unicode="&#x42a;" horiz-adv-x="1519" d="M254 1139h-217v288h547v-460h479q98 0 173 -38t120.5 -104.5t68.5 -152.5t23 -187q0 -485 -379 -485h-815v1139zM952 688h-368v-407h372q67 0 99 49t32 155q0 203 -135 203z" />
<glyph unicode="&#x42b;" horiz-adv-x="1984" d="M866 688h-368v-407h372q67 0 99 49t32 155q0 203 -135 203zM168 1427h330v-460h479q124 0 212.5 -65.5t130.5 -172.5t42 -244q0 -485 -379 -485h-815v1427zM1485 1427h332v-1427h-332v1427z" />
<glyph unicode="&#x42c;" horiz-adv-x="1433" d="M866 688h-368v-407h372q67 0 99 49t32 155q0 203 -135 203zM168 1427h330v-460h479q124 0 212.5 -65.5t130.5 -172.5t42 -244q0 -485 -379 -485h-815v1427z" />
<glyph unicode="&#x42d;" horiz-adv-x="1269" d="M246 600v283h559q-7 61 -22 106t-41 75t-56 49t-75.5 29t-91 13.5t-111.5 3.5q-70 0 -158 -11t-137 -28l-66 291q83 22 206.5 36.5t223.5 14.5q119 0 211 -14t172 -46.5t135.5 -88t95.5 -136.5t59 -193t19 -257q0 -174 -28.5 -302.5t-82.5 -215t-140 -140t-192.5 -76 t-248.5 -22.5q-100 0 -223.5 13.5t-206.5 33.5l66 297q49 -17 137 -28t158 -11q81 0 136 6.5t105.5 26.5t81 55.5t51 93.5t27.5 142h-563z" />
<glyph unicode="&#x42e;" horiz-adv-x="2025" d="M1350 1462q113 0 199 -20t159 -70t119.5 -132.5t72 -209t25.5 -297.5q0 -217 -38 -366.5t-114.5 -235.5t-179 -123t-243.5 -37q-103 0 -185.5 19t-153.5 64t-120 116.5t-80 179.5t-39 250h-274v-600h-330v1427h330v-520h276q11 128 43.5 224t82 159t120 101.5t150 54.5 t180.5 16zM1350 274q50 0 82.5 6t60.5 25t43.5 49.5t26 83.5t14.5 122.5t4 172.5q0 100 -3.5 166.5t-15 116.5t-26 77.5t-43.5 44t-60.5 21t-82.5 4.5q-60 0 -96 -8t-66.5 -31.5t-45 -72.5t-22.5 -124.5t-8 -193.5q0 -121 7.5 -200.5t22.5 -132t45 -79.5t67 -37t96 -10z" />
<glyph unicode="&#x42f;" horiz-adv-x="1478" d="M979 778v367h-369q-121 0 -121 -187q0 -92 33.5 -136t91.5 -44h365zM477 614q-98 5 -169 38t-111 89t-58 122t-18 147q0 92 20.5 165.5t65.5 131t122.5 89t184.5 31.5h797v-1427h-332v508h-205q-85 0 -136.5 -37t-100.5 -144.5t-109 -326.5h-381q51 155 95.5 261.5 t82 172.5t80 104t80 53t92.5 23z" />
<glyph unicode="&#x430;" horiz-adv-x="1165" d="M1040 670v-617q-104 -38 -241.5 -60t-255.5 -22q-134 0 -217 15.5t-136.5 56t-74.5 106t-21 170.5q0 87 19.5 149t52 99.5t87 59t112.5 28.5t139 7q102 0 237 -27q0 58 -8 90t-34 54t-71 29t-124 7q-186 0 -326 -43l-49 250q215 55 451 55q243 0 351.5 -90t108.5 -317z M741 233v199q-55 14 -170 14q-90 0 -121.5 -21t-31.5 -95q0 -79 28 -102t121 -23q98 0 174 28z" />
<glyph unicode="&#x431;" horiz-adv-x="1187" d="M418 504q0 -89 9 -144.5t31 -86t52 -41.5t78 -11q58 0 89 7.5t56 36.5t34 86t9 155q0 109 -17.5 164.5t-54.5 75.5t-110 20q-109 0 -142.5 -52t-33.5 -210zM416 920q85 110 260 110q83 0 144.5 -13.5t115 -48t87 -92.5t52.5 -149t19 -215q0 -158 -29.5 -262.5t-95.5 -166 t-159.5 -87t-231.5 -25.5q-96 0 -164.5 14.5t-131 55.5t-100.5 112t-60 186.5t-22 276.5q0 130 6.5 232t22 183.5t36.5 141t55.5 103.5t72.5 72.5t93 47.5t112.5 28.5t136.5 15.5q256 19 405 76v-273q-131 -55 -387 -67q-124 -6 -180 -64t-57 -192z" />
<glyph unicode="&#x432;" horiz-adv-x="1216" d="M713 233q45 0 65.5 20.5t20.5 72.5q0 56 -23 79t-71 23h-254v-195h262zM702 647q40 0 59 19.5t19 64.5q0 48 -18.5 66t-59.5 18h-251v-168h251zM852 551q157 -6 214.5 -70.5t57.5 -197.5q0 -152 -80.5 -217.5t-234.5 -65.5h-674v1049h668q172 0 236.5 -60.5t64.5 -191.5 q0 -59 -10 -99t-37 -73t-77.5 -51t-127.5 -23z" />
<glyph unicode="&#x433;" horiz-adv-x="894" d="M449 776v-776h-314v1047h758v-271h-444z" />
<glyph unicode="&#x434;" horiz-adv-x="1398" d="M334 1047h852v-777h207l-70 -571h-256v301h-737v-301h-256l-70 571h195q112 411 135 777zM872 776h-254q-15 -207 -90 -506h344v506z" />
<glyph unicode="&#x435;" horiz-adv-x="1138" d="M588 1077q92 0 159 -10.5t126 -37t97 -73t63.5 -117.5t33.5 -172t0 -235h-649q3 -120 56 -159.5t175 -39.5q59 0 146.5 10t144.5 25l47 -239q-77 -26 -183 -42t-196 -16q-116 0 -205.5 27.5t-161 90t-109.5 173.5t-38 268q0 155 34 263t101 169.5t154 88t205 26.5z M602 840q-96 0 -132 -37t-50 -139h348q-3 107 -37.5 141.5t-128.5 34.5z" />
<glyph unicode="&#x436;" horiz-adv-x="1761" d="M365 0h-357q50 131 97 228t82 154t73 96.5t63.5 56.5t59.5 32q-48 44 -147 172.5t-209 309.5h358q199 -319 338 -498v498h315v-498q160 212 336 498h359q-108 -180 -208 -308.5t-149 -173.5q34 -15 59.5 -32t64 -56.5t74 -96.5t82.5 -154.5t97 -227.5h-356 q-68 161 -133 264t-116.5 147t-109.5 62v-473h-315v473q-58 -18 -109.5 -62t-116.5 -147t-132 -264z" />
<glyph unicode="&#x437;" horiz-adv-x="1075" d="M719 551q148 -7 209 -75.5t61 -199.5q0 -177 -115 -241t-409 -64q-208 0 -410 39l62 279q61 -23 155 -38t185 -15q83 0 125 9.5t57.5 30t15.5 60.5q0 55 -40.5 74.5t-137.5 19.5h-164v227h164q90 0 124 16t34 60q0 46 -35.5 64t-140.5 18q-185 0 -338 -47l-60 268 q192 41 404 41q199 0 304.5 -24.5t150.5 -82.5t45 -167q0 -123 -52.5 -182.5t-193.5 -69.5z" />
<glyph unicode="&#x438;" horiz-adv-x="1255" d="M449 1047v-574q141 171 356 574h313v-1047h-313v549q-149 -280 -356 -549h-314v1047h314z" />
<glyph unicode="&#x439;" horiz-adv-x="1255" d="M449 1047v-574q141 171 356 574h313v-1047h-313v549q-149 -280 -356 -549h-314v1047h314zM299 1427h207q0 -63 28.5 -84.5t94.5 -21.5q65 0 94 22t29 84h192q0 -292 -323 -292q-155 0 -238.5 72.5t-83.5 219.5z" />
<glyph unicode="&#x43a;" horiz-adv-x="1204" d="M1196 0h-360q-73 171 -140 272.5t-121.5 142t-123.5 58.5v-473h-316v1049h316v-504q110 136 362 504h363q-125 -190 -222.5 -318t-140.5 -164q35 -14 61.5 -31.5t63.5 -56t73 -96.5t83.5 -154.5t101.5 -228.5z" />
<glyph unicode="&#x43b;" horiz-adv-x="1218" d="M770 778h-221q-59 -807 -471 -807l-60 314q205 0 248 764h817v-1049h-313v778z" />
<glyph unicode="&#x43c;" horiz-adv-x="1613" d="M821 502q122 316 232 547h424v-1049h-310v682q-139 -303 -254 -627h-225q-125 368 -242 627v-682h-311v1049h443q77 -152 243 -547z" />
<glyph unicode="&#x43d;" horiz-adv-x="1234" d="M449 1047v-367h335v367h314v-1047h-314v412h-335v-412h-314v1047h314z" />
<glyph unicode="&#x43e;" d="M602 -29q-131 0 -222.5 27t-157.5 91t-97 172.5t-31 268.5q0 159 31.5 266t98 168.5t157 87t221.5 25.5q133 0 224.5 -25.5t158 -87t98 -168.5t31.5 -266q0 -160 -31 -268.5t-97.5 -172.5t-158.5 -91t-225 -27zM602 831q-60 0 -92.5 -9t-57 -42t-32.5 -92.5t-8 -163.5 q0 -133 18 -198t56 -87t116 -22q80 0 118.5 22t56.5 87t18 198q0 84 -6 137.5t-18 88.5t-37 52t-54 23t-78 6z" />
<glyph unicode="&#x43f;" horiz-adv-x="1234" d="M449 776v-776h-314v1047h963v-1047h-314v776h-335z" />
<glyph unicode="&#x440;" horiz-adv-x="1220" d="M680 -29q-122 0 -229 47v-411h-316v1397q84 32 218 52.5t257 20.5q110 0 190.5 -16.5t143.5 -55t102 -102.5t58.5 -157.5t19.5 -221.5q0 -155 -32 -264.5t-93 -171.5t-139 -89.5t-180 -27.5zM610 815q-96 0 -159 -24v-482q0 -35 46 -57.5t115 -22.5q113 0 155 61t42 226 q0 127 -19.5 191t-59.5 86t-120 22z" />
<glyph unicode="&#x441;" horiz-adv-x="966" d="M881 289l65 -264q-60 -25 -153.5 -39.5t-176.5 -14.5q-97 0 -174.5 16.5t-144 56.5t-110.5 103.5t-68.5 159.5t-24.5 223q0 156 37 264.5t108.5 169.5t162.5 87t214 26q86 0 178.5 -12t151.5 -33l-65 -266q-110 43 -238 43q-52 0 -84 -5t-63 -21t-47.5 -47t-26.5 -83 t-10 -129q0 -91 13.5 -147.5t45 -86t70.5 -39t102 -9.5q127 0 238 47z" />
<glyph unicode="&#x442;" horiz-adv-x="997" d="M655 778v-778h-313v778h-338v271h987v-271h-336z" />
<glyph unicode="&#x443;" horiz-adv-x="1048" d="M748 1047h313q-210 -738 -549 -1440h-346q79 135 172 342q-143 520 -361 1098h318q116 -303 229 -730q157 450 224 730z" />
<glyph unicode="&#x444;" horiz-adv-x="1683" d="M997 -25v-368h-313v368q-319 19 -454.5 143.5t-135.5 411.5q0 144 33 243t106 163t181.5 95.5t269.5 41.5v393h313v-393q161 -10 269.5 -41.5t182.5 -95.5t107 -163t33 -243q0 -145 -33 -245.5t-106 -166.5t-182.5 -99.5t-270.5 -43.5zM412 524q0 -164 56 -227.5 t216 -73.5v602q-161 -9 -216.5 -70.5t-55.5 -230.5zM1270 524q0 86 -12.5 139.5t-44.5 89t-83 51.5t-133 21v-602q159 12 216 75t57 226z" />
<glyph unicode="&#x445;" horiz-adv-x="1064" d="M739 1047h342q-111 -171 -356 -517q237 -338 358 -530h-346q-58 101 -188 287q-136 -186 -219 -287h-342q121 143 399 522q-227 321 -395 525h360q56 -70 205 -277q59 82 182 277z" />
<glyph unicode="&#x446;" horiz-adv-x="1357" d="M1098 270h256l-72 -571h-256v301h-891v1047h314v-777h335v777h314v-777z" />
<glyph unicode="&#x447;" horiz-adv-x="1169" d="M440 305q-60 0 -106 7.5t-89.5 26t-74 52t-54 84.5t-35 125.5t-11.5 171.5v277h315v-256q0 -64 12.5 -106.5t38 -64.5t55 -30t72.5 -8q65 0 110.5 17t45.5 48v400h315v-1049h-315v371q-140 -66 -279 -66z" />
<glyph unicode="&#x448;" horiz-adv-x="1828" d="M1694 1047v-1047h-1559v1047h314v-777h309v777h313v-777h307v777h316z" />
<glyph unicode="&#x449;" horiz-adv-x="1953" d="M1694 270h254l-72 -571h-256v301h-1485v1047h314v-777h309v777h313v-777h307v777h316v-777z" />
<glyph unicode="&#x44a;" horiz-adv-x="1251" d="M504 688h350q156 0 241 -89t85 -257q0 -185 -81.5 -263.5t-244.5 -78.5h-664v776h-176v271h490v-359zM504 221h260q90 0 90 117q0 115 -96 115h-254v-232z" />
<glyph unicode="&#x44b;" horiz-adv-x="1667" d="M449 221h260q90 0 90 117q0 115 -97 115h-253v-232zM449 688h350q156 0 240.5 -89t84.5 -257q0 -185 -81.5 -263.5t-243.5 -78.5h-664v1047h314v-359zM1532 1047v-1047h-315v1047h315z" />
<glyph unicode="&#x44c;" horiz-adv-x="1196" d="M449 221h260q90 0 90 117q0 115 -97 115h-253v-232zM449 688h350q156 0 240.5 -89t84.5 -257q0 -185 -81.5 -263.5t-243.5 -78.5h-664v1047h314v-359z" />
<glyph unicode="&#x44d;" horiz-adv-x="983" d="M39 25l63 239q90 -35 244 -35q99 0 152.5 42.5t66.5 158.5h-385v234h381q-17 93 -69.5 125t-145.5 32q-141 0 -244 -35l-63 246q59 21 152 33t180 12q93 0 168 -15.5t141.5 -54.5t111.5 -100t71 -156.5t26 -220.5q0 -105 -17.5 -190.5t-51 -146t-79 -104t-104.5 -69.5 t-124 -37.5t-142 -11.5q-84 0 -178 14.5t-154 39.5z" />
<glyph unicode="&#x44e;" horiz-adv-x="1779" d="M1178 -29q-116 0 -200.5 22t-148.5 72.5t-101 136t-48 210.5h-229v-412h-316v1049h316v-369h231q14 114 52.5 191.5t103 122.5t146.5 64t194 19q105 0 182.5 -16t141 -53.5t103 -100t60.5 -156.5t21 -221q0 -160 -31 -268.5t-97 -172.5t-157.5 -91t-222.5 -27zM1178 831 q-47 0 -75 -6t-52 -23t-36 -52t-18 -89t-6 -137q0 -133 18 -198t55.5 -87t113.5 -22q58 0 91 10.5t56.5 44t32 92.5t8.5 160q0 84 -6 137.5t-18 88.5t-36 52t-52.5 23t-75.5 6z" />
<glyph unicode="&#x44f;" horiz-adv-x="1259" d="M809 582v219h-256q-94 0 -94 -109q0 -110 98 -110h252zM414 442q-65 3 -116 21t-84.5 45.5t-55 65t-30.5 78t-9 87.5q0 141 79 224.5t255 83.5h671v-1047h-315v338h-139q-67 0 -108.5 -26.5t-80 -98t-82.5 -213.5h-358q65 174 118.5 264.5t110 128t144.5 49.5z" />
<glyph unicode="&#x451;" horiz-adv-x="1138" d="M588 1077q92 0 159 -10.5t126 -37t97 -73t63.5 -117.5t33.5 -172t0 -235h-649q3 -120 56 -159.5t175 -39.5q59 0 146.5 10t144.5 25l47 -239q-77 -26 -183 -42t-196 -16q-116 0 -205.5 27.5t-161 90t-109.5 173.5t-38 268q0 155 34 263t101 169.5t154 88t205 26.5z M602 840q-96 0 -132 -37t-50 -139h348q-3 107 -37.5 141.5t-128.5 34.5zM360 1421q83 0 112.5 -24.5t29.5 -106.5q0 -89 -29.5 -117t-112.5 -28q-81 0 -110 28t-29 117q0 82 29 106.5t110 24.5zM823 1421q82 0 111 -24.5t29 -106.5q0 -89 -29.5 -117t-110.5 -28 q-84 0 -112.5 27.5t-28.5 117.5q0 82 28 106.5t113 24.5z" />
<glyph unicode="&#x452;" horiz-adv-x="1210" d="M451 1176v-199q130 65 278 65q79 0 135.5 -14t106.5 -52.5t80.5 -104.5t47.5 -171t17 -251q0 -170 -25.5 -316t-69 -248t-96 -170.5t-110.5 -101.5l-235 209q204 123 204 614q0 83 -6.5 138.5t-18.5 90.5t-35 53t-49.5 24t-68.5 6q-63 0 -107.5 -16t-47.5 -44v-688h-316 v1176h-92v213h92v90h316v-90h188v-213h-188z" />
<glyph unicode="&#x453;" horiz-adv-x="894" d="M449 778v-778h-314v1047h758v-269h-444zM575 1163h-266l252 264h322z" />
<glyph unicode="&#x454;" horiz-adv-x="983" d="M881 264l63 -239q-60 -25 -152.5 -39.5t-175.5 -14.5q-93 0 -169.5 16.5t-143 56.5t-112 103t-71.5 160t-26 223q0 125 26 220.5t71 156.5t111.5 100t141.5 54.5t168 15.5q87 0 180 -12t152 -33l-63 -246q-103 35 -244 35q-93 0 -145.5 -32t-69.5 -125h381v-234h-385 q13 -116 66.5 -158.5t152.5 -42.5q154 0 244 35z" />
<glyph unicode="&#x455;" horiz-adv-x="991" d="M838 786q-160 45 -310 45q-82 0 -114.5 -16.5t-32.5 -73.5q0 -42 35 -58.5t155 -31.5q190 -24 271.5 -93.5t81.5 -225.5q0 -83 -24 -146.5t-65 -104t-101.5 -65.5t-128 -35t-150.5 -10q-88 0 -195.5 16t-177.5 42l61 237q146 -43 297 -43q101 0 141 17t40 75 q0 30 -16 47.5t-61 29.5t-132 20t-146 25.5t-103.5 51.5t-65.5 91t-21 139q0 83 23.5 146.5t64 103t101 64.5t127 34.5t149.5 9.5q86 0 186 -15.5t172 -41.5z" />
<glyph unicode="&#x456;" horiz-adv-x="581" d="M451 1049v-1049h-316v1049h316zM293 1503q104 0 141 -28t37 -121q0 -102 -37 -134t-141 -32q-105 0 -141.5 31.5t-36.5 134.5q0 94 36.5 121.5t141.5 27.5z" />
<glyph unicode="&#x457;" horiz-adv-x="581" d="M61 1421q83 0 112.5 -24.5t29.5 -106.5q0 -89 -29.5 -117t-112.5 -28q-81 0 -110 28t-29 117q0 82 29 106.5t110 24.5zM524 1421q82 0 111 -24.5t29 -106.5q0 -89 -29.5 -117t-110.5 -28q-84 0 -112.5 27.5t-28.5 117.5q0 82 28 106.5t113 24.5zM451 1049v-1049h-316 v1049h316z" />
<glyph unicode="&#x458;" horiz-adv-x="581" d="M293 1501q105 0 140.5 -27t35.5 -120q0 -104 -36.5 -136t-139.5 -32q-105 0 -141.5 32t-36.5 136q0 93 36 120t142 27zM449 1047v-1049q0 -118 -27 -197t-86 -127.5t-146 -69t-215 -20.5v256q80 0 120 35t40 113v1059h314z" />
<glyph unicode="&#x459;" horiz-adv-x="1849" d="M1343 223q91 0 91 117q0 113 -97 113h-254v-230h260zM1083 1049v-361h351q155 0 240 -89t85 -257q0 -184 -82 -263t-243 -79h-664v778h-221q-59 -807 -471 -807l-60 314q205 0 248 764h817z" />
<glyph unicode="&#x45a;" horiz-adv-x="1863" d="M1100 688h350q155 0 239.5 -89t84.5 -257q0 -184 -81.5 -263t-242.5 -79h-666v453h-333v-453h-316v1049h316v-361h333v361h316v-361zM1358 223q90 0 90 117q0 113 -96 113h-252v-230h258z" />
<glyph unicode="&#x45b;" horiz-adv-x="1222" d="M43 1176v213h92v90h314v-90h190v-213h-190v-164q150 65 280 65q73 0 125.5 -10.5t101 -41t78 -82t47 -135.5t17.5 -200v-608h-314v590q0 121 -46.5 165t-131.5 44q-63 0 -110 -19t-47 -47v-733h-314v1176h-92z" />
<glyph unicode="&#x45c;" horiz-adv-x="1204" d="M1196 0h-360q-73 171 -140 272.5t-121.5 142t-123.5 58.5v-473h-316v1049h316v-504q110 136 362 504h363q-125 -190 -222.5 -318t-140.5 -164q35 -14 61.5 -31.5t63.5 -56t73 -96.5t83.5 -154.5t101.5 -228.5zM713 1163h-267l252 264h322z" />
<glyph unicode="&#x45e;" horiz-adv-x="1048" d="M748 1047h313q-210 -738 -549 -1440h-346q79 135 172 342q-143 520 -361 1098h318q116 -303 229 -730q157 450 224 730zM199 1430h207q0 -63 28.5 -85t93.5 -22q64 0 93.5 22t29.5 85h193q0 -293 -324 -293q-154 0 -237.5 72.5t-83.5 220.5z" />
<glyph unicode="&#x45f;" horiz-adv-x="1234" d="M449 1047v-777h335v777h314v-1047h-326l-43 -379h-217l-43 379h-334v1047h314z" />
<glyph unicode="&#x490;" horiz-adv-x="1126" d="M168 0v1427h711l75 379h217v-667h-673v-1139h-330z" />
<glyph unicode="&#x491;" horiz-adv-x="894" d="M135 1047h498l74 356h186v-627h-444v-776h-314v1047z" />
<glyph unicode="&#x1e80;" horiz-adv-x="2070" d="M1458 428q158 494 262 999h346q-68 -290 -186 -702t-221 -725h-422q-56 298 -195 862q-80 -368 -231 -862h-420q-87 361 -199 762t-204 665h358q71 -208 149 -486t132 -513q197 650 266 999h299q183 -617 266 -999zM1264 1530h-273l-321 264h327z" />
<glyph unicode="&#x1e81;" horiz-adv-x="1716" d="M1731 1049q-173 -589 -361 -1049h-377q-72 358 -137 608q-56 -263 -170 -608h-377q-140 517 -334 1049h322q126 -339 219 -721q45 135 108 357.5t97 363.5h285q44 -138 102 -354t92 -367q153 447 215 721h316zM1112 1163h-264l-309 264h323z" />
<glyph unicode="&#x1e82;" horiz-adv-x="2070" d="M1458 428q158 494 262 999h346q-68 -290 -186 -702t-221 -725h-422q-56 298 -195 862q-80 -368 -231 -862h-420q-87 361 -199 762t-204 665h358q71 -208 149 -486t132 -513q197 650 266 999h299q183 -617 266 -999zM1069 1530h-264l260 264h326z" />
<glyph unicode="&#x1e83;" horiz-adv-x="1691" />
<glyph unicode="&#x1e84;" horiz-adv-x="2070" d="M1458 428q158 494 262 999h346q-68 -290 -186 -702t-221 -725h-422q-56 298 -195 862q-80 -368 -231 -862h-420q-87 361 -199 762t-204 665h358q71 -208 149 -486t132 -513q197 650 266 999h299q183 -617 266 -999zM811 1786q83 0 112 -23.5t29 -105.5q0 -91 -29 -118.5 t-112 -27.5q-82 0 -110.5 27.5t-28.5 118.5q0 82 28 105.5t111 23.5zM1274 1786q82 0 110.5 -24t28.5 -105q0 -91 -29 -118.5t-110 -27.5q-84 0 -112.5 27.5t-28.5 118.5q0 82 28 105.5t113 23.5z" />
<glyph unicode="&#x1e85;" horiz-adv-x="1716" d="M1731 1049q-173 -589 -361 -1049h-377q-72 358 -137 608q-56 -263 -170 -608h-377q-140 517 -334 1049h322q126 -339 219 -721q45 135 108 357.5t97 363.5h285q44 -138 102 -354t92 -367q153 447 215 721h316zM625 1421q83 0 112 -24.5t29 -106.5q0 -89 -29.5 -117 t-111.5 -28q-81 0 -110.5 28t-29.5 117q0 82 29 106.5t111 24.5zM1087 1421q82 0 111 -24.5t29 -106.5q0 -89 -29.5 -117t-110.5 -28q-84 0 -112.5 27.5t-28.5 117.5q0 82 28 106.5t113 24.5z" />
<glyph unicode="&#x1ea0;" horiz-adv-x="1411" d="M1112 0q-66 158 -119 315h-590l-92 -315h-354q91 300 238 713.5t270 713.5h510q101 -334 244.5 -740t259.5 -687h-367zM729 1141h-53q-94 -248 -187 -541h408q-84 249 -168 541zM707 -113q85 0 114 -24t29 -107q0 -90 -29.5 -117.5t-113.5 -27.5q-81 0 -110.5 28 t-29.5 117q0 83 29 107t111 24z" />
<glyph unicode="&#x1ea1;" horiz-adv-x="1165" d="M1040 670v-617q-104 -38 -241.5 -60t-255.5 -22q-134 0 -217 15.5t-136.5 56t-74.5 106t-21 170.5q0 87 19.5 149t52 99.5t87 59t112.5 28.5t139 7q102 0 237 -27q0 58 -8 91t-34 56t-71.5 31t-123.5 8q-166 0 -326 -49l-49 250q215 55 451 55q243 0 351.5 -90 t108.5 -317zM741 233v199q-55 14 -170 14q-90 0 -121.5 -21t-31.5 -95q0 -79 28 -102t121 -23q98 0 174 28zM584 -113q85 0 114 -24t29 -107q0 -90 -29.5 -117.5t-113.5 -27.5q-81 0 -110.5 28t-29.5 117q0 83 29 107t111 24z" />
<glyph unicode="&#x1ea2;" horiz-adv-x="1411" d="M1112 0q-66 158 -119 315h-590l-92 -315h-354q91 300 238 713.5t270 713.5h510q101 -334 244.5 -740t259.5 -687h-367zM729 1141h-53q-94 -248 -187 -541h408q-84 249 -168 541zM705 1470h-97q95 52 125.5 86t30.5 84q0 36 -23 51t-84 15q-97 0 -153 -43l-78 131 q47 32 121 49t145 17q149 0 209 -39.5t60 -122.5q0 -75 -63.5 -134.5t-192.5 -93.5z" />
<glyph unicode="&#x1ea3;" horiz-adv-x="1165" d="M1040 670v-617q-104 -38 -241.5 -60t-255.5 -22q-134 0 -217 15.5t-136.5 56t-74.5 106t-21 170.5q0 87 19.5 149t52 99.5t87 59t112.5 28.5t139 7q102 0 237 -27q0 58 -8 91t-34 56t-71.5 31t-123.5 8q-166 0 -326 -49l-49 250q215 55 451 55q243 0 351.5 -90 t108.5 -317zM741 233v199q-55 14 -170 14q-90 0 -121.5 -21t-31.5 -95q0 -79 28 -102t121 -23q98 0 174 28zM594 1122h-96q95 56 125 92.5t30 90.5q0 38 -22.5 53.5t-83.5 15.5q-95 0 -152 -47l-78 141q47 33 120 50.5t145 17.5q150 0 208 -40.5t58 -129.5 q0 -80 -62.5 -143.5t-191.5 -100.5z" />
<glyph unicode="&#x1ea4;" horiz-adv-x="1411" d="M1112 0q-66 158 -119 315h-590l-92 -315h-354q91 300 238 713.5t270 713.5h510q101 -334 244.5 -740t259.5 -687h-367zM729 1141h-53q-94 -248 -187 -541h408q-84 249 -168 541zM842 1487l-137 106l-132 -106h-264l248 190h301l256 -190h-272zM737 1712h-260l258 201h322 z" />
<glyph unicode="&#x1ea5;" horiz-adv-x="1165" d="M1040 670v-617q-104 -38 -241.5 -60t-255.5 -22q-134 0 -217 15.5t-136.5 56t-74.5 106t-21 170.5q0 87 19.5 149t52 99.5t87 59t112.5 28.5t139 7q102 0 237 -27q0 58 -8 91t-34 56t-71.5 31t-123.5 8q-166 0 -326 -49l-49 250q215 55 451 55q243 0 351.5 -90 t108.5 -317zM741 233v199q-55 14 -170 14q-90 0 -121.5 -21t-31.5 -95q0 -79 28 -102t121 -23q98 0 174 28zM594 1530h-264l260 264h325zM715 1163l-135 146l-131 -146h-269l250 264h301l258 -264h-274z" />
<glyph unicode="&#x1ea6;" horiz-adv-x="1411" d="M1112 0q-66 158 -119 315h-590l-92 -315h-354q91 300 238 713.5t270 713.5h510q101 -334 244.5 -740t259.5 -687h-367zM729 1141h-53q-94 -248 -187 -541h408q-84 249 -168 541zM842 1487l-137 106l-132 -106h-264l248 190h301l256 -190h-272zM963 1714h-267l-315 201 h321z" />
<glyph unicode="&#x1ea7;" horiz-adv-x="1165" d="M1040 670v-617q-104 -38 -241.5 -60t-255.5 -22q-134 0 -217 15.5t-136.5 56t-74.5 106t-21 170.5q0 87 19.5 149t52 99.5t87 59t112.5 28.5t139 7q102 0 237 -27q0 58 -8 91t-34 56t-71.5 31t-123.5 8q-166 0 -326 -49l-49 250q215 55 451 55q243 0 351.5 -90 t108.5 -317zM715 1163l-135 146l-131 -146h-269l250 264h301l258 -264h-274zM827 1530h-272l-322 264h328zM741 233v199q-55 14 -170 14q-90 0 -121.5 -21t-31.5 -95q0 -79 28 -102t121 -23q98 0 174 28z" />
<glyph unicode="&#x1ea8;" horiz-adv-x="1411" d="M1112 0q-66 158 -119 315h-590l-92 -315h-354q91 300 238 713.5t270 713.5h510q101 -334 244.5 -740t259.5 -687h-367zM729 1141h-53q-94 -248 -187 -541h408q-84 249 -168 541zM842 1487l-137 106l-132 -106h-264l248 190h301l256 -190h-272zM723 1702h-98 q96 40 127.5 66.5t31.5 64.5q0 28 -23.5 39.5t-86.5 11.5q-93 0 -154 -35l-80 103q95 49 271 49q153 0 212.5 -29.5t59.5 -93.5q0 -58 -64 -103.5t-196 -72.5z" />
<glyph unicode="&#x1ea9;" horiz-adv-x="1165" d="M1040 670v-617q-104 -38 -241.5 -60t-255.5 -22q-134 0 -217 15.5t-136.5 56t-74.5 106t-21 170.5q0 87 19.5 149t52 99.5t87 59t112.5 28.5t139 7q102 0 237 -27q0 58 -8 91t-34 56t-71.5 31t-123.5 8q-166 0 -326 -49l-49 250q215 55 451 55q243 0 351.5 -90 t108.5 -317zM741 233v199q-55 14 -170 14q-90 0 -121.5 -21t-31.5 -95q0 -79 28 -102t121 -23q98 0 174 28zM715 1163l-135 146l-131 -146h-269l250 264h301l258 -264h-274zM594 1458h-96q95 56 125 92t30 90q0 38 -22.5 54t-83.5 16q-95 0 -152 -47l-78 141q47 33 120 50.5 t145 17.5q150 0 208 -40.5t58 -129.5q0 -80 -62.5 -143.5t-191.5 -100.5z" />
<glyph unicode="&#x1eaa;" horiz-adv-x="1411" d="M1112 0q-66 158 -119 315h-590l-92 -315h-354q91 300 238 713.5t270 713.5h510q101 -334 244.5 -740t259.5 -687h-367zM729 1141h-53q-94 -248 -187 -541h408q-84 249 -168 541zM948 1946l146 -91q-30 -64 -96 -105.5t-158 -41.5q-67 0 -155.5 37t-133.5 37 q-58 0 -96 -70l-133 98q91 123 223 123q63 0 118.5 -17.5t100.5 -34.5t82 -17q36 0 57.5 17t44.5 65zM842 1487l-137 106l-132 -106h-264l248 190h301l256 -190h-272z" />
<glyph unicode="&#x1eab;" horiz-adv-x="1165" d="M1040 670v-617q-104 -38 -241.5 -60t-255.5 -22q-134 0 -217 15.5t-136.5 56t-74.5 106t-21 170.5q0 87 19.5 149t52 99.5t87 59t112.5 28.5t139 7q102 0 237 -27q0 58 -8 91t-34 56t-71.5 31t-123.5 8q-166 0 -326 -49l-49 250q215 55 451 55q243 0 351.5 -90 t108.5 -317zM741 233v199q-55 14 -170 14q-90 0 -121.5 -21t-31.5 -95q0 -79 28 -102t121 -23q98 0 174 28zM856 1812l148 -118q-30 -84 -97 -138.5t-159 -54.5q-55 0 -107.5 24t-99 48t-86.5 24q-30 0 -53 -20.5t-46 -71.5l-133 131q91 162 226 162q51 0 97.5 -14.5 t76 -31.5t65 -31.5t66.5 -14.5q36 0 57.5 22t44.5 84zM715 1163l-135 146l-131 -146h-269l250 264h301l258 -264h-274z" />
<glyph unicode="&#x1eac;" horiz-adv-x="1411" d="M1112 0q-66 158 -119 315h-590l-92 -315h-354q91 300 238 713.5t270 713.5h510q101 -334 244.5 -740t259.5 -687h-367zM836 1530l-138 147l-131 -147h-266l250 264h301l258 -264h-274zM729 1141h-53q-94 -248 -187 -541h408q-84 249 -168 541zM707 -113q85 0 114 -24 t29 -107q0 -90 -29.5 -117.5t-113.5 -27.5q-81 0 -110.5 28t-29.5 117q0 83 29 107t111 24z" />
<glyph unicode="&#x1ead;" horiz-adv-x="1165" d="M1040 670v-617q-104 -38 -241.5 -60t-255.5 -22q-134 0 -217 15.5t-136.5 56t-74.5 106t-21 170.5q0 87 19.5 149t52 99.5t87 59t112.5 28.5t139 7q102 0 237 -27q0 58 -8 91t-34 56t-71.5 31t-123.5 8q-166 0 -326 -49l-49 250q215 55 451 55q243 0 351.5 -90 t108.5 -317zM741 233v199q-55 14 -170 14q-90 0 -121.5 -21t-31.5 -95q0 -79 28 -102t121 -23q98 0 174 28zM713 1163l-135 146l-132 -146h-268l250 264h301l258 -264h-274zM584 -113q85 0 114 -24t29 -107q0 -90 -29.5 -117.5t-113.5 -27.5q-81 0 -110.5 28t-29.5 117 q0 83 29 107t111 24z" />
<glyph unicode="&#x1eae;" horiz-adv-x="1411" d="M1112 0q-66 158 -119 315h-590l-92 -315h-354q91 300 238 713.5t270 713.5h510q101 -334 244.5 -740t259.5 -687h-367zM729 1141h-53q-94 -248 -187 -541h408q-84 249 -168 541zM373 1679h213q0 -42 29 -56.5t96 -14.5t97 14.5t30 56.5h196q0 -198 -332 -198 q-157 0 -243 49.5t-86 148.5zM748 1712h-261l258 201h322z" />
<glyph unicode="&#x1eaf;" horiz-adv-x="1165" d="M1040 670v-617q-104 -38 -241.5 -60t-255.5 -22q-134 0 -217 15.5t-136.5 56t-74.5 106t-21 170.5q0 87 19.5 149t52 99.5t87 59t112.5 28.5t139 7q102 0 237 -27q0 58 -8 91t-34 56t-71.5 31t-123.5 8q-166 0 -326 -49l-49 250q215 55 451 55q243 0 351.5 -90 t108.5 -317zM741 233v199q-55 14 -170 14q-90 0 -121.5 -21t-31.5 -95q0 -79 28 -102t121 -23q98 0 174 28zM604 1530h-264l260 264h326zM254 1427h207q0 -63 28.5 -84.5t94.5 -21.5q65 0 94 22t29 84h192q0 -292 -324 -292q-155 0 -238 72.5t-83 219.5z" />
<glyph unicode="&#x1eb0;" horiz-adv-x="1411" d="M1112 0q-66 158 -119 315h-590l-92 -315h-354q91 300 238 713.5t270 713.5h510q101 -334 244.5 -740t259.5 -687h-367zM729 1141h-53q-94 -248 -187 -541h408q-84 249 -168 541zM373 1679h213q0 -42 29 -56.5t96 -14.5t97 14.5t30 56.5h196q0 -198 -332 -198 q-157 0 -243 49.5t-86 148.5zM938 1714h-266l-316 201h322z" />
<glyph unicode="&#x1eb1;" horiz-adv-x="1165" d="M1040 670v-617q-104 -38 -241.5 -60t-255.5 -22q-134 0 -217 15.5t-136.5 56t-74.5 106t-21 170.5q0 87 19.5 149t52 99.5t87 59t112.5 28.5t139 7q102 0 237 -27q0 58 -8 91t-34 56t-71.5 31t-123.5 8q-166 0 -326 -49l-49 250q215 55 451 55q243 0 351.5 -90 t108.5 -317zM254 1427h207q0 -63 28.5 -84.5t94.5 -21.5q65 0 94 22t29 84h192q0 -292 -324 -292q-155 0 -238 72.5t-83 219.5zM823 1530h-272l-322 264h328zM741 233v199q-55 14 -170 14q-90 0 -121.5 -21t-31.5 -95q0 -79 28 -102t121 -23q98 0 174 28z" />
<glyph unicode="&#x1eb2;" horiz-adv-x="1411" d="M1112 0q-66 158 -119 315h-590l-92 -315h-354q91 300 238 713.5t270 713.5h510q101 -334 244.5 -740t259.5 -687h-367zM729 1141h-53q-94 -248 -187 -541h408q-84 249 -168 541zM373 1679h213q0 -42 29 -56.5t96 -14.5t97 14.5t30 56.5h196q0 -198 -332 -198 q-157 0 -243 49.5t-86 148.5zM723 1702h-98q96 40 127.5 66.5t31.5 64.5q0 28 -23.5 39.5t-86.5 11.5q-93 0 -154 -35l-80 103q95 49 271 49q153 0 212.5 -29.5t59.5 -93.5q0 -58 -64 -103.5t-196 -72.5z" />
<glyph unicode="&#x1eb3;" horiz-adv-x="1165" d="M1040 670v-617q-104 -38 -241.5 -60t-255.5 -22q-134 0 -217 15.5t-136.5 56t-74.5 106t-21 170.5q0 87 19.5 149t52 99.5t87 59t112.5 28.5t139 7q102 0 237 -27q0 58 -8 91t-34 56t-71.5 31t-123.5 8q-166 0 -326 -49l-49 250q215 55 451 55q243 0 351.5 -90 t108.5 -317zM741 233v199q-55 14 -170 14q-90 0 -121.5 -21t-31.5 -95q0 -79 28 -102t121 -23q98 0 174 28zM254 1427h207q0 -63 28.5 -84.5t94.5 -21.5q65 0 94 22t29 84h192q0 -292 -324 -292q-155 0 -238 72.5t-83 219.5zM592 1440h-96q95 56 125 92t30 90q0 38 -22.5 54 t-83.5 16q-95 0 -152 -47l-78 141q47 33 120 50t145 17q150 0 208 -40.5t58 -129.5q0 -80 -62.5 -143t-191.5 -100z" />
<glyph unicode="&#x1eb4;" horiz-adv-x="1411" d="M1112 0q-66 158 -119 315h-590l-92 -315h-354q91 300 238 713.5t270 713.5h510q101 -334 244.5 -740t259.5 -687h-367zM729 1141h-53q-94 -248 -187 -541h408q-84 249 -168 541zM948 1946l146 -91q-30 -64 -96 -105.5t-158 -41.5q-67 0 -155.5 37t-133.5 37 q-58 0 -96 -70l-133 98q91 123 223 123q63 0 118.5 -17.5t100.5 -34.5t82 -17q36 0 57.5 17t44.5 65zM373 1679h213q0 -42 29 -56.5t96 -14.5t97 14.5t30 56.5h196q0 -198 -332 -198q-157 0 -243 49.5t-86 148.5z" />
<glyph unicode="&#x1eb5;" horiz-adv-x="1165" d="M1040 670v-617q-104 -38 -241.5 -60t-255.5 -22q-134 0 -217 15.5t-136.5 56t-74.5 106t-21 170.5q0 87 19.5 149t52 99.5t87 59t112.5 28.5t139 7q102 0 237 -27q0 58 -8 91t-34 56t-71.5 31t-123.5 8q-166 0 -326 -49l-49 250q215 55 451 55q243 0 351.5 -90 t108.5 -317zM741 233v199q-55 14 -170 14q-90 0 -121.5 -21t-31.5 -95q0 -79 28 -102t121 -23q98 0 174 28zM823 1812l148 -118q-30 -84 -97 -138.5t-159 -54.5q-55 0 -107.5 24t-99 48t-86.5 24q-30 0 -52.5 -20.5t-45.5 -71.5l-134 131q91 162 226 162q51 0 97.5 -14.5 t76 -31.5t65 -31.5t66.5 -14.5q36 0 57.5 22t44.5 84zM254 1427h207q0 -63 28.5 -84.5t94.5 -21.5q65 0 94 22t29 84h192q0 -292 -324 -292q-155 0 -238 72.5t-83 219.5z" />
<glyph unicode="&#x1eb6;" horiz-adv-x="1411" d="M1112 0q-66 158 -119 315h-590l-92 -315h-354q91 300 238 713.5t270 713.5h510q101 -334 244.5 -740t259.5 -687h-367zM383 1784h207q0 -63 28.5 -85t94.5 -22q64 0 93.5 22t29.5 85h192q0 -293 -323 -293q-155 0 -238.5 73t-83.5 220zM729 1141h-53q-94 -248 -187 -541 h408q-84 249 -168 541zM707 -113q85 0 114 -24t29 -107q0 -90 -29.5 -117.5t-113.5 -27.5q-81 0 -110.5 28t-29.5 117q0 83 29 107t111 24z" />
<glyph unicode="&#x1eb7;" horiz-adv-x="1165" d="M1040 670v-617q-104 -38 -241.5 -60t-255.5 -22q-134 0 -217 15.5t-136.5 56t-74.5 106t-21 170.5q0 87 19.5 149t52 99.5t87 59t112.5 28.5t139 7q102 0 237 -27q0 58 -8 91t-34 56t-71.5 31t-123.5 8q-166 0 -326 -49l-49 250q215 55 451 55q243 0 351.5 -90 t108.5 -317zM741 233v199q-55 14 -170 14q-90 0 -121.5 -21t-31.5 -95q0 -79 28 -102t121 -23q98 0 174 28zM258 1427h207q0 -63 28.5 -84.5t94.5 -21.5q65 0 94 22t29 84h192q0 -292 -323 -292q-155 0 -238.5 72.5t-83.5 219.5zM569 -113q86 0 115 -24t29 -107 q0 -90 -29.5 -117.5t-114.5 -27.5q-81 0 -110 28t-29 117q0 83 28.5 107t110.5 24z" />
<glyph unicode="&#x1eb8;" horiz-adv-x="1282" d="M168 1427h1065v-288h-735v-256h526v-283h-526v-311h735v-289h-1065v1427zM682 -113q85 0 114 -24t29 -107q0 -90 -29.5 -117.5t-113.5 -27.5q-81 0 -110 28t-29 117q0 83 28.5 107t110.5 24z" />
<glyph unicode="&#x1eb9;" horiz-adv-x="1138" d="M588 1077q92 0 159 -10.5t126 -37t97 -73t63.5 -117.5t33.5 -172t0 -235h-649q3 -120 56 -159.5t175 -39.5q59 0 146.5 10t144.5 25l47 -239q-77 -26 -183 -42t-196 -16q-116 0 -205.5 27.5t-161 90t-109.5 173.5t-38 268q0 155 34 263t101 169.5t154 88t205 26.5z M602 840q-96 0 -132 -37t-50 -139h348q-3 107 -37.5 141.5t-128.5 34.5zM594 -113q85 0 114 -24t29 -107q0 -90 -29.5 -117.5t-113.5 -27.5q-81 0 -110 28t-29 117q0 83 28.5 107t110.5 24z" />
<glyph unicode="&#x1eba;" horiz-adv-x="1282" d="M168 1427h1065v-288h-735v-256h526v-283h-526v-311h735v-289h-1065v1427zM717 1470h-96q95 51 125 85t30 85q0 36 -22.5 51t-83.5 15q-98 0 -154 -43l-78 131q47 32 121.5 49t145.5 17q149 0 208.5 -39.5t59.5 -122.5q0 -75 -63.5 -134.5t-192.5 -93.5z" />
<glyph unicode="&#x1ebb;" horiz-adv-x="1138" d="M588 1077q92 0 159 -10.5t126 -37t97 -73t63.5 -117.5t33.5 -172t0 -235h-649q3 -120 56 -159.5t175 -39.5q59 0 146.5 10t144.5 25l47 -239q-77 -26 -183 -42t-196 -16q-116 0 -205.5 27.5t-161 90t-109.5 173.5t-38 268q0 155 34 263t101 169.5t154 88t205 26.5z M602 840q-96 0 -132 -37t-50 -139h348q-3 107 -37.5 141.5t-128.5 34.5zM588 1122h-96q95 56 125 92.5t30 90.5q0 38 -22.5 53.5t-83.5 15.5q-95 0 -152 -47l-78 141q47 33 120 50.5t144 17.5q150 0 208.5 -40.5t58.5 -129.5q0 -80 -62.5 -143.5t-191.5 -100.5z" />
<glyph unicode="&#x1ebc;" horiz-adv-x="1282" d="M168 1427h1065v-288h-735v-256h526v-283h-526v-311h735v-289h-1065v1427zM958 1812l148 -118q-30 -84 -97 -138.5t-159 -54.5q-55 0 -107.5 24t-99 48t-86.5 24q-30 0 -52.5 -20.5t-45.5 -71.5l-133 131q91 162 225 162q51 0 97.5 -14.5t76 -31.5t65 -31.5t66.5 -14.5 q36 0 57.5 22t44.5 84z" />
<glyph unicode="&#x1ebd;" horiz-adv-x="1138" d="M588 1077q92 0 159 -10.5t126 -37t97 -73t63.5 -117.5t33.5 -172t0 -235h-649q3 -120 56 -159.5t175 -39.5q59 0 146.5 10t144.5 25l47 -239q-77 -26 -183 -42t-196 -16q-116 0 -205.5 27.5t-161 90t-109.5 173.5t-38 268q0 155 34 263t101 169.5t154 88t205 26.5z M602 840q-96 0 -132 -37t-50 -139h348q-3 107 -37.5 141.5t-128.5 34.5zM846 1450l147 -119q-32 -85 -96.5 -138.5t-157.5 -53.5q-55 0 -106 24t-96.5 48t-85.5 24q-30 0 -53.5 -21t-45.5 -73l-135 133q92 164 227 164q51 0 97.5 -15t74 -32.5t62 -32.5t65.5 -15 q36 0 58 22.5t45 84.5z" />
<glyph unicode="&#x1ebe;" horiz-adv-x="1282" d="M168 1427h1065v-288h-735v-256h526v-283h-526v-311h735v-289h-1065v1427zM729 1712h-260l258 201h322zM834 1487l-138 106l-131 -106h-264l248 190h301l256 -190h-272z" />
<glyph unicode="&#x1ebf;" horiz-adv-x="1138" d="M588 1077q92 0 159 -10.5t126 -37t97 -73t63.5 -117.5t33.5 -172t0 -235h-649q3 -120 56 -159.5t175 -39.5q59 0 146.5 10t144.5 25l47 -239q-77 -26 -183 -42t-196 -16q-116 0 -205.5 27.5t-161 90t-109.5 173.5t-38 268q0 155 34 263t101 169.5t154 88t205 26.5z M602 840q-96 0 -132 -37t-50 -139h348q-3 107 -37.5 141.5t-128.5 34.5zM602 1530h-264l260 264h326zM723 1163l-135 146l-131 -146h-269l250 264h301l258 -264h-274z" />
<glyph unicode="&#x1ec0;" horiz-adv-x="1282" d="M168 1427h1065v-288h-735v-256h526v-283h-526v-311h735v-289h-1065v1427zM831 1487l-137 106l-131 -106h-264l248 190h301l256 -190h-273zM952 1714h-266l-315 201h321z" />
<glyph unicode="&#x1ec1;" horiz-adv-x="1138" d="M588 1077q92 0 159 -10.5t126 -37t97 -73t63.5 -117.5t33.5 -172t0 -235h-649q3 -120 56 -159.5t175 -39.5q59 0 146.5 10t144.5 25l47 -239q-77 -26 -183 -42t-196 -16q-116 0 -205.5 27.5t-161 90t-109.5 173.5t-38 268q0 155 34 263t101 169.5t154 88t205 26.5z M723 1163l-135 146l-131 -146h-269l250 264h301l258 -264h-274zM831 1530h-272l-321 264h327zM602 840q-96 0 -132 -37t-50 -139h348q-3 107 -37.5 141.5t-128.5 34.5z" />
<glyph unicode="&#x1ec2;" horiz-adv-x="1282" d="M168 1427h1065v-288h-735v-256h526v-283h-526v-311h735v-289h-1065v1427zM829 1487l-137 106l-131 -106h-264l248 190h301l256 -190h-273zM711 1702h-99q97 41 128.5 67.5t31.5 63.5q0 28 -23.5 39.5t-86.5 11.5q-93 0 -154 -35l-80 103q95 49 270 49q153 0 213 -29.5 t60 -93.5q0 -58 -64 -103.5t-196 -72.5z" />
<glyph unicode="&#x1ec3;" horiz-adv-x="1138" d="M588 1077q92 0 159 -10.5t126 -37t97 -73t63.5 -117.5t33.5 -172t0 -235h-649q3 -120 56 -159.5t175 -39.5q59 0 146.5 10t144.5 25l47 -239q-77 -26 -183 -42t-196 -16q-116 0 -205.5 27.5t-161 90t-109.5 173.5t-38 268q0 155 34 263t101 169.5t154 88t205 26.5z M602 840q-96 0 -132 -37t-50 -139h348q-3 107 -37.5 141.5t-128.5 34.5zM713 1163l-135 146l-132 -146h-268l250 264h301l258 -264h-274zM592 1458h-96q95 56 125 92t30 90q0 38 -22.5 54t-83.5 16q-95 0 -152 -47l-78 141q47 33 120 50.5t145 17.5q150 0 208 -40.5 t58 -129.5q0 -80 -62.5 -143.5t-191.5 -100.5z" />
<glyph unicode="&#x1ec4;" horiz-adv-x="1282" d="M168 1427h1065v-288h-735v-256h526v-283h-526v-311h735v-289h-1065v1427zM950 1946l146 -91q-30 -64 -96 -105.5t-158 -41.5q-67 0 -155.5 37t-133.5 37q-58 0 -96 -70l-133 98q91 123 223 123q63 0 118.5 -17.5t100.5 -34.5t82 -17q36 0 57.5 17t44.5 65zM844 1487 l-137 106l-132 -106h-264l248 190h301l256 -190h-272z" />
<glyph unicode="&#x1ec5;" horiz-adv-x="1138" d="M588 1077q92 0 159 -10.5t126 -37t97 -73t63.5 -117.5t33.5 -172t0 -235h-649q3 -120 56 -159.5t175 -39.5q59 0 146.5 10t144.5 25l47 -239q-77 -26 -183 -42t-196 -16q-116 0 -205.5 27.5t-161 90t-109.5 173.5t-38 268q0 155 34 263t101 169.5t154 88t205 26.5z M602 840q-96 0 -132 -37t-50 -139h348q-3 107 -37.5 141.5t-128.5 34.5zM854 1812l147 -118q-30 -84 -97 -138.5t-159 -54.5q-55 0 -107 24t-98.5 48t-86.5 24q-30 0 -53 -20.5t-46 -71.5l-133 131q91 162 225 162q64 0 120.5 -23t102 -46t83.5 -23q36 0 57.5 22t44.5 84z M733 1163l-135 146l-131 -146h-268l250 264h301l258 -264h-275z" />
<glyph unicode="&#x1ec6;" horiz-adv-x="1282" d="M168 1427h1065v-288h-735v-256h526v-283h-526v-311h735v-289h-1065v1427zM844 1530l-137 147l-132 -147h-266l250 264h301l258 -264h-274zM709 -113q85 0 114 -24t29 -107q0 -90 -29.5 -117.5t-113.5 -27.5q-81 0 -110.5 28t-29.5 117q0 83 29 107t111 24z" />
<glyph unicode="&#x1ec7;" horiz-adv-x="1138" d="M588 1077q92 0 159 -10.5t126 -37t97 -73t63.5 -117.5t33.5 -172t0 -235h-649q3 -120 56 -159.5t175 -39.5q59 0 146.5 10t144.5 25l47 -239q-77 -26 -183 -42t-196 -16q-116 0 -205.5 27.5t-161 90t-109.5 173.5t-38 268q0 155 34 263t101 169.5t154 88t205 26.5z M602 840q-96 0 -132 -37t-50 -139h348q-3 107 -37.5 141.5t-128.5 34.5zM705 1163l-136 146l-131 -146h-268l250 264h301l258 -264h-274zM575 -113q86 0 115 -24t29 -107q0 -90 -29.5 -117.5t-114.5 -27.5q-81 0 -110 28t-29 117q0 83 28.5 107t110.5 24z" />
<glyph unicode="&#x1ec8;" horiz-adv-x="665" d="M168 1427h330v-1427h-330v1427zM346 1477h-96q95 52 125.5 86t30.5 84q0 36 -22.5 50.5t-84.5 14.5q-98 0 -154 -43l-77 131q47 32 121 49t145 17q149 0 208.5 -39.5t59.5 -122.5q0 -75 -63.5 -134t-192.5 -93z" />
<glyph unicode="&#x1ec9;" horiz-adv-x="581" d="M451 1049v-1049h-316v1049h316zM303 1122h-96q95 56 125 92.5t30 90.5q0 38 -22.5 53.5t-83.5 15.5q-95 0 -152 -47l-77 141q47 33 120 50.5t144 17.5q150 0 208 -40.5t58 -129.5q0 -80 -62.5 -143.5t-191.5 -100.5z" />
<glyph unicode="&#x1eca;" horiz-adv-x="665" d="M168 1427h330v-1427h-330v1427zM338 -113q85 0 114 -24t29 -107q0 -90 -29.5 -117.5t-113.5 -27.5q-81 0 -110 28t-29 117q0 83 28.5 107t110.5 24z" />
<glyph unicode="&#x1ecb;" horiz-adv-x="581" d="M451 1049v-1049h-316v1049h316zM293 1503q104 0 141 -28t37 -121q0 -102 -37 -134t-141 -32q-105 0 -141.5 31.5t-36.5 134.5q0 94 36.5 121.5t141.5 27.5zM295 -113q85 0 114 -24t29 -107q0 -90 -29.5 -117.5t-113.5 -27.5q-81 0 -110 28t-29 117q0 83 28.5 107 t110.5 24z" />
<glyph unicode="&#x1ecc;" horiz-adv-x="1587" d="M795 -29q-179 0 -303.5 36t-215 122t-133.5 234t-43 366q0 173 29 299t83 209.5t141 133.5t193 70.5t249 20.5t248.5 -20.5t192.5 -70.5t141 -133.5t83 -209.5t29 -299q0 -218 -43 -366t-133.5 -234t-215 -122t-302.5 -36zM795 1159q-78 0 -126 -4.5t-90.5 -22 t-63.5 -44.5t-37 -78t-20.5 -117t-4.5 -168q0 -104 5 -171.5t20 -121t37 -82.5t63.5 -48t90.5 -24.5t126 -5.5t126 5.5t90.5 24.5t63.5 48t37 82.5t20 121t5 171.5q0 102 -4.5 168t-20.5 117t-37 78t-63.5 44.5t-90.5 22t-126 4.5zM795 -113q85 0 114 -24t29 -107 q0 -90 -29.5 -117.5t-113.5 -27.5q-81 0 -110.5 28t-29.5 117q0 83 29 107t111 24z" />
<glyph unicode="&#x1ecd;" d="M602 -29q-131 0 -222.5 27t-157.5 91t-97 172.5t-31 268.5q0 159 31.5 266t98 168.5t157 87t221.5 25.5q133 0 224.5 -25.5t158 -87t98 -168.5t31.5 -266q0 -160 -31 -268.5t-97.5 -172.5t-158.5 -91t-225 -27zM602 831q-60 0 -92.5 -9t-57 -42t-32.5 -92.5t-8 -163.5 q0 -133 18 -198t56 -87t116 -22q80 0 118.5 22t56.5 87t18 198q0 84 -6 137.5t-18 88.5t-37 52t-54 23t-78 6zM606 -113q86 0 115 -24t29 -107q0 -90 -29.5 -117.5t-114.5 -27.5q-81 0 -110 28t-29 117q0 83 28.5 107t110.5 24z" />
<glyph unicode="&#x1ece;" horiz-adv-x="1587" d="M795 -29q-179 0 -303.5 36t-215 122t-133.5 234t-43 366q0 173 29 299t83 209.5t141 133.5t193 70.5t249 20.5t248.5 -20.5t192.5 -70.5t141 -133.5t83 -209.5t29 -299q0 -218 -43 -366t-133.5 -234t-215 -122t-302.5 -36zM795 1159q-78 0 -126 -4.5t-90.5 -22 t-63.5 -44.5t-37 -78t-20.5 -117t-4.5 -168q0 -104 5 -171.5t20 -121t37 -82.5t63.5 -48t90.5 -24.5t126 -5.5t126 5.5t90.5 24.5t63.5 48t37 82.5t20 121t5 171.5q0 102 -4.5 168t-20.5 117t-37 78t-63.5 44.5t-90.5 22t-126 4.5zM803 1495h-96q95 51 125 85t30 85 q0 36 -22.5 51t-83.5 15q-98 0 -154 -43l-78 131q47 32 121 48.5t146 16.5q149 0 208.5 -39.5t59.5 -122.5q0 -75 -63.5 -134t-192.5 -93z" />
<glyph unicode="&#x1ecf;" d="M602 -29q-131 0 -222.5 27t-157.5 91t-97 172.5t-31 268.5q0 159 31.5 266t98 168.5t157 87t221.5 25.5q133 0 224.5 -25.5t158 -87t98 -168.5t31.5 -266q0 -160 -31 -268.5t-97.5 -172.5t-158.5 -91t-225 -27zM602 831q-60 0 -92.5 -9t-57 -42t-32.5 -92.5t-8 -163.5 q0 -133 18 -198t56 -87t116 -22q80 0 118.5 22t56.5 87t18 198q0 84 -6 137.5t-18 88.5t-37 52t-54 23t-78 6zM616 1122h-96q95 56 125.5 92.5t30.5 90.5q0 38 -23 53.5t-84 15.5q-94 0 -151 -47l-78 141q47 33 120 50.5t144 17.5q150 0 208 -40.5t58 -129.5 q0 -80 -62.5 -143.5t-191.5 -100.5z" />
<glyph unicode="&#x1ed0;" horiz-adv-x="1587" d="M795 -29q-179 0 -303.5 36t-215 122t-133.5 234t-43 366q0 173 29 299t83 209.5t141 133.5t193 70.5t249 20.5t248.5 -20.5t192.5 -70.5t141 -133.5t83 -209.5t29 -299q0 -218 -43 -366t-133.5 -234t-215 -122t-302.5 -36zM795 1159q-78 0 -126 -4.5t-90.5 -22 t-63.5 -44.5t-37 -78t-20.5 -117t-4.5 -168q0 -104 5 -171.5t20 -121t37 -82.5t63.5 -48t90.5 -24.5t126 -5.5t126 5.5t90.5 24.5t63.5 48t37 82.5t20 121t5 171.5q0 102 -4.5 168t-20.5 117t-37 78t-63.5 44.5t-90.5 22t-126 4.5zM815 1712h-260l258 201h322zM918 1487 l-138 106l-131 -106h-264l248 190h301l256 -190h-272z" />
<glyph unicode="&#x1ed1;" d="M602 -29q-131 0 -222.5 27t-157.5 91t-97 172.5t-31 268.5q0 159 31.5 266t98 168.5t157 87t221.5 25.5q133 0 224.5 -25.5t158 -87t98 -168.5t31.5 -266q0 -160 -31 -268.5t-97.5 -172.5t-158.5 -91t-225 -27zM602 831q-60 0 -92.5 -9t-57 -42t-32.5 -92.5t-8 -163.5 q0 -133 18 -198t56 -87t116 -22q80 0 118.5 22t56.5 87t18 198q0 84 -6 137.5t-18 88.5t-37 52t-54 23t-78 6zM647 1530h-264l260 264h326zM729 1163l-135 146l-131 -146h-268l249 264h301l259 -264h-275z" />
<glyph unicode="&#x1ed2;" horiz-adv-x="1587" d="M795 -29q-179 0 -303.5 36t-215 122t-133.5 234t-43 366q0 173 29 299t83 209.5t141 133.5t193 70.5t249 20.5t248.5 -20.5t192.5 -70.5t141 -133.5t83 -209.5t29 -299q0 -218 -43 -366t-133.5 -234t-215 -122t-302.5 -36zM795 1159q-78 0 -126 -4.5t-90.5 -22 t-63.5 -44.5t-37 -78t-20.5 -117t-4.5 -168q0 -104 5 -171.5t20 -121t37 -82.5t63.5 -48t90.5 -24.5t126 -5.5t126 5.5t90.5 24.5t63.5 48t37 82.5t20 121t5 171.5q0 102 -4.5 168t-20.5 117t-37 78t-63.5 44.5t-90.5 22t-126 4.5zM922 1487l-138 106l-131 -106h-264 l248 190h301l256 -190h-272zM1044 1714h-266l-315 201h321z" />
<glyph unicode="&#x1ed3;" d="M602 -29q-131 0 -222.5 27t-157.5 91t-97 172.5t-31 268.5q0 159 31.5 266t98 168.5t157 87t221.5 25.5q133 0 224.5 -25.5t158 -87t98 -168.5t31.5 -266q0 -160 -31 -268.5t-97.5 -172.5t-158.5 -91t-225 -27zM602 831q-60 0 -92.5 -9t-57 -42t-32.5 -92.5t-8 -163.5 q0 -133 18 -198t56 -87t116 -22q80 0 118.5 22t56.5 87t18 198q0 84 -6 137.5t-18 88.5t-37 52t-54 23t-78 6zM721 1163l-135 146l-131 -146h-269l250 264h301l258 -264h-274zM834 1530h-273l-321 264h327z" />
<glyph unicode="&#x1ed4;" horiz-adv-x="1587" d="M795 -29q-179 0 -303.5 36t-215 122t-133.5 234t-43 366q0 173 29 299t83 209.5t141 133.5t193 70.5t249 20.5t248.5 -20.5t192.5 -70.5t141 -133.5t83 -209.5t29 -299q0 -218 -43 -366t-133.5 -234t-215 -122t-302.5 -36zM795 1159q-78 0 -126 -4.5t-90.5 -22 t-63.5 -44.5t-37 -78t-20.5 -117t-4.5 -168q0 -104 5 -171.5t20 -121t37 -82.5t63.5 -48t90.5 -24.5t126 -5.5t126 5.5t90.5 24.5t63.5 48t37 82.5t20 121t5 171.5q0 102 -4.5 168t-20.5 117t-37 78t-63.5 44.5t-90.5 22t-126 4.5zM922 1487l-138 106l-131 -106h-264 l248 190h301l256 -190h-272zM803 1702h-98q96 40 127.5 66.5t31.5 64.5q0 28 -23.5 39.5t-86.5 11.5q-93 0 -154 -35l-80 103q95 49 271 49q153 0 212.5 -29.5t59.5 -93.5q0 -58 -64 -103.5t-196 -72.5z" />
<glyph unicode="&#x1ed5;" d="M602 -29q-131 0 -222.5 27t-157.5 91t-97 172.5t-31 268.5q0 159 31.5 266t98 168.5t157 87t221.5 25.5q133 0 224.5 -25.5t158 -87t98 -168.5t31.5 -266q0 -160 -31 -268.5t-97.5 -172.5t-158.5 -91t-225 -27zM602 831q-60 0 -92.5 -9t-57 -42t-32.5 -92.5t-8 -163.5 q0 -133 18 -198t56 -87t116 -22q80 0 118.5 22t56.5 87t18 198q0 84 -6 137.5t-18 88.5t-37 52t-54 23t-78 6zM743 1163l-135 146l-131 -146h-268l250 264h301l258 -264h-275zM623 1458h-97q95 56 125.5 92.5t30.5 89.5q0 38 -23 54t-84 16q-94 0 -151 -47l-78 141 q47 33 120 50.5t144 17.5q150 0 208.5 -40.5t58.5 -129.5q0 -80 -62.5 -143.5t-191.5 -100.5z" />
<glyph unicode="&#x1ed6;" horiz-adv-x="1587" d="M795 -29q-179 0 -303.5 36t-215 122t-133.5 234t-43 366q0 173 29 299t83 209.5t141 133.5t193 70.5t249 20.5t248.5 -20.5t192.5 -70.5t141 -133.5t83 -209.5t29 -299q0 -218 -43 -366t-133.5 -234t-215 -122t-302.5 -36zM795 1159q-78 0 -126 -4.5t-90.5 -22 t-63.5 -44.5t-37 -78t-20.5 -117t-4.5 -168q0 -104 5 -171.5t20 -121t37 -82.5t63.5 -48t90.5 -24.5t126 -5.5t126 5.5t90.5 24.5t63.5 48t37 82.5t20 121t5 171.5q0 102 -4.5 168t-20.5 117t-37 78t-63.5 44.5t-90.5 22t-126 4.5zM1026 1946l145 -91q-30 -64 -95.5 -105.5 t-157.5 -41.5q-67 0 -155.5 37t-133.5 37q-59 0 -97 -70l-133 98q91 123 224 123q63 0 118.5 -17.5t100.5 -34.5t82 -17q36 0 57.5 17t44.5 65zM922 1487l-138 106l-131 -106h-264l248 190h301l256 -190h-272z" />
<glyph unicode="&#x1ed7;" d="M602 -29q-131 0 -222.5 27t-157.5 91t-97 172.5t-31 268.5q0 159 31.5 266t98 168.5t157 87t221.5 25.5q133 0 224.5 -25.5t158 -87t98 -168.5t31.5 -266q0 -160 -31 -268.5t-97.5 -172.5t-158.5 -91t-225 -27zM602 831q-60 0 -92.5 -9t-57 -42t-32.5 -92.5t-8 -163.5 q0 -133 18 -198t56 -87t116 -22q80 0 118.5 22t56.5 87t18 198q0 84 -6 137.5t-18 88.5t-37 52t-54 23t-78 6zM848 1812l147 -118q-30 -84 -97 -138.5t-159 -54.5q-55 0 -107.5 24t-99 48t-86.5 24q-30 0 -52.5 -20.5t-45.5 -71.5l-133 131q91 162 225 162q51 0 97.5 -14.5 t76 -31.5t65 -31.5t66.5 -14.5q36 0 58 22t45 84zM729 1163l-135 146l-131 -146h-268l249 264h301l259 -264h-275z" />
<glyph unicode="&#x1ed8;" horiz-adv-x="1587" d="M795 -29q-179 0 -303.5 36t-215 122t-133.5 234t-43 366q0 173 29 299t83 209.5t141 133.5t193 70.5t249 20.5t248.5 -20.5t192.5 -70.5t141 -133.5t83 -209.5t29 -299q0 -218 -43 -366t-133.5 -234t-215 -122t-302.5 -36zM795 1159q-78 0 -126 -4.5t-90.5 -22 t-63.5 -44.5t-37 -78t-20.5 -117t-4.5 -168q0 -104 5 -171.5t20 -121t37 -82.5t63.5 -48t90.5 -24.5t126 -5.5t126 5.5t90.5 24.5t63.5 48t37 82.5t20 121t5 171.5q0 102 -4.5 168t-20.5 117t-37 78t-63.5 44.5t-90.5 22t-126 4.5zM922 1530l-138 147l-131 -147h-266 l250 264h301l258 -264h-274zM795 -113q85 0 114 -24t29 -107q0 -90 -29.5 -117.5t-113.5 -27.5q-81 0 -110.5 28t-29.5 117q0 83 29 107t111 24z" />
<glyph unicode="&#x1ed9;" d="M602 -29q-131 0 -222.5 27t-157.5 91t-97 172.5t-31 268.5q0 159 31.5 266t98 168.5t157 87t221.5 25.5q133 0 224.5 -25.5t158 -87t98 -168.5t31.5 -266q0 -160 -31 -268.5t-97.5 -172.5t-158.5 -91t-225 -27zM602 831q-60 0 -92.5 -9t-57 -42t-32.5 -92.5t-8 -163.5 q0 -133 18 -198t56 -87t116 -22q80 0 118.5 22t56.5 87t18 198q0 84 -6 137.5t-18 88.5t-37 52t-54 23t-78 6zM733 1163l-135 146l-131 -146h-268l250 264h301l258 -264h-275zM606 -113q86 0 115 -24t29 -107q0 -90 -29.5 -117.5t-114.5 -27.5q-81 0 -110 28t-29 117 q0 83 28.5 107t110.5 24z" />
<glyph unicode="&#x1eda;" horiz-adv-x="1587" d="M1688 1423v-180q0 -57 -37.5 -117.5t-100.5 -91.5h-92q31 -133 31 -305q0 -218 -43 -366t-133.5 -234t-215 -122t-302.5 -36q-179 0 -303.5 36t-215 122t-133.5 234t-43 366q0 173 29 299t83 209.5t141 133.5t193 70.5t249 20.5q139 0 243 -20t189 -66.5t141 -127 t86 -197.5q58 42 81.5 84.5t23.5 93.5h-95v194h224zM795 1159q-78 0 -126 -4.5t-90.5 -22t-63.5 -44.5t-37 -78t-20.5 -117t-4.5 -168q0 -104 5 -171.5t20 -121t37 -82.5t63.5 -48t90.5 -24.5t126 -5.5t126 5.5t90.5 24.5t63.5 48t37 82.5t20 121t5 171.5q0 102 -4.5 168 t-20.5 117t-37 78t-63.5 44.5t-90.5 22t-126 4.5zM813 1530h-264l260 264h326z" />
<glyph unicode="&#x1edb;" d="M1346 1047v-181q0 -57 -37.5 -117.5t-100.5 -91.5h-100q6 -58 6 -127q0 -160 -31 -268.5t-97.5 -172.5t-158.5 -91t-225 -27q-131 0 -222.5 27t-157.5 91t-97 172.5t-31 268.5q0 159 31.5 266t98 168.5t157 87t221.5 25.5q117 0 201 -19.5t149.5 -66t103 -126.5 t50.5 -197q62 44 86.5 87.5t24.5 96.5h-95v195h224zM602 831q-60 0 -92.5 -9t-57 -42t-32.5 -92.5t-8 -163.5q0 -133 18 -198t56 -87t116 -22q80 0 118.5 22t56.5 87t18 198q0 84 -6 137.5t-18 88.5t-37 52t-54 23t-78 6zM653 1163h-266l252 264h322z" />
<glyph unicode="&#x1edc;" horiz-adv-x="1587" d="M1688 1423v-180q0 -57 -37.5 -117.5t-100.5 -91.5h-92q31 -133 31 -305q0 -218 -43 -366t-133.5 -234t-215 -122t-302.5 -36q-179 0 -303.5 36t-215 122t-133.5 234t-43 366q0 173 29 299t83 209.5t141 133.5t193 70.5t249 20.5q139 0 243 -20t189 -66.5t141 -127 t86 -197.5q58 42 81.5 84.5t23.5 93.5h-95v194h224zM795 1159q-78 0 -126 -4.5t-90.5 -22t-63.5 -44.5t-37 -78t-20.5 -117t-4.5 -168q0 -104 5 -171.5t20 -121t37 -82.5t63.5 -48t90.5 -24.5t126 -5.5t126 5.5t90.5 24.5t63.5 48t37 82.5t20 121t5 171.5q0 102 -4.5 168 t-20.5 117t-37 78t-63.5 44.5t-90.5 22t-126 4.5zM1040 1530h-272l-322 264h328z" />
<glyph unicode="&#x1edd;" d="M1346 1047v-181q0 -57 -37.5 -117.5t-100.5 -91.5h-100q6 -58 6 -127q0 -160 -31 -268.5t-97.5 -172.5t-158.5 -91t-225 -27q-131 0 -222.5 27t-157.5 91t-97 172.5t-31 268.5q0 159 31.5 266t98 168.5t157 87t221.5 25.5q117 0 201 -19.5t149.5 -66t103 -126.5 t50.5 -197q62 44 86.5 87.5t24.5 96.5h-95v195h224zM602 831q-60 0 -92.5 -9t-57 -42t-32.5 -92.5t-8 -163.5q0 -133 18 -198t56 -87t116 -22q80 0 118.5 22t56.5 87t18 198q0 84 -6 137.5t-18 88.5t-37 52t-54 23t-78 6zM848 1163h-264l-310 264h324z" />
<glyph unicode="&#x1ede;" horiz-adv-x="1587" d="M1688 1423v-180q0 -57 -37.5 -117.5t-100.5 -91.5h-92q31 -133 31 -305q0 -218 -43 -366t-133.5 -234t-215 -122t-302.5 -36q-179 0 -303.5 36t-215 122t-133.5 234t-43 366q0 173 29 299t83 209.5t141 133.5t193 70.5t249 20.5q139 0 243 -20t189 -66.5t141 -127 t86 -197.5q58 42 81.5 84.5t23.5 93.5h-95v194h224zM795 1159q-78 0 -126 -4.5t-90.5 -22t-63.5 -44.5t-37 -78t-20.5 -117t-4.5 -168q0 -104 5 -171.5t20 -121t37 -82.5t63.5 -48t90.5 -24.5t126 -5.5t126 5.5t90.5 24.5t63.5 48t37 82.5t20 121t5 171.5q0 102 -4.5 168 t-20.5 117t-37 78t-63.5 44.5t-90.5 22t-126 4.5zM823 1491h-96q95 52 125.5 86t30.5 84q0 36 -22.5 50.5t-84.5 14.5q-97 0 -153 -43l-78 132q47 32 120.5 48.5t145.5 16.5q149 0 208.5 -39.5t59.5 -122.5q0 -75 -63.5 -134t-192.5 -93z" />
<glyph unicode="&#x1edf;" d="M1346 1047v-181q0 -57 -37.5 -117.5t-100.5 -91.5h-100q6 -58 6 -127q0 -160 -31 -268.5t-97.5 -172.5t-158.5 -91t-225 -27q-131 0 -222.5 27t-157.5 91t-97 172.5t-31 268.5q0 159 31.5 266t98 168.5t157 87t221.5 25.5q117 0 201 -19.5t149.5 -66t103 -126.5 t50.5 -197q62 44 86.5 87.5t24.5 96.5h-95v195h224zM602 831q-60 0 -92.5 -9t-57 -42t-32.5 -92.5t-8 -163.5q0 -133 18 -198t56 -87t116 -22q80 0 118.5 22t56.5 87t18 198q0 84 -6 137.5t-18 88.5t-37 52t-54 23t-78 6zM627 1122h-97q95 56 125.5 92.5t30.5 90.5 q0 38 -22.5 53.5t-83.5 15.5q-95 0 -152 -47l-78 141q47 33 120 50.5t144 17.5q150 0 208.5 -40.5t58.5 -129.5q0 -80 -62.5 -143.5t-191.5 -100.5z" />
<glyph unicode="&#x1ee0;" horiz-adv-x="1587" d="M1688 1423v-180q0 -57 -37.5 -117.5t-100.5 -91.5h-92q31 -133 31 -305q0 -218 -43 -366t-133.5 -234t-215 -122t-302.5 -36q-179 0 -303.5 36t-215 122t-133.5 234t-43 366q0 173 29 299t83 209.5t141 133.5t193 70.5t249 20.5q139 0 243 -20t189 -66.5t141 -127 t86 -197.5q58 42 81.5 84.5t23.5 93.5h-95v194h224zM795 1159q-78 0 -126 -4.5t-90.5 -22t-63.5 -44.5t-37 -78t-20.5 -117t-4.5 -168q0 -104 5 -171.5t20 -121t37 -82.5t63.5 -48t90.5 -24.5t126 -5.5t126 5.5t90.5 24.5t63.5 48t37 82.5t20 121t5 171.5q0 102 -4.5 168 t-20.5 117t-37 78t-63.5 44.5t-90.5 22t-126 4.5zM1042 1812l148 -118q-30 -84 -97 -138.5t-159 -54.5q-55 0 -107.5 24t-99 48t-86.5 24q-30 0 -52.5 -20.5t-45.5 -71.5l-133 131q91 162 225 162q51 0 97.5 -14.5t76 -31.5t65 -31.5t66.5 -14.5q36 0 57.5 22t44.5 84z" />
<glyph unicode="&#x1ee1;" d="M1346 1047v-181q0 -57 -37.5 -117.5t-100.5 -91.5h-100q6 -58 6 -127q0 -160 -31 -268.5t-97.5 -172.5t-158.5 -91t-225 -27q-131 0 -222.5 27t-157.5 91t-97 172.5t-31 268.5q0 159 31.5 266t98 168.5t157 87t221.5 25.5q117 0 201 -19.5t149.5 -66t103 -126.5 t50.5 -197q62 44 86.5 87.5t24.5 96.5h-95v195h224zM602 831q-60 0 -92.5 -9t-57 -42t-32.5 -92.5t-8 -163.5q0 -133 18 -198t56 -87t116 -22q80 0 118.5 22t56.5 87t18 198q0 84 -6 137.5t-18 88.5t-37 52t-54 23t-78 6zM850 1450l147 -119q-32 -85 -96.5 -138.5 t-157.5 -53.5q-55 0 -106 24t-96.5 48t-85.5 24q-30 0 -53.5 -21t-45.5 -73l-135 133q92 164 228 164q51 0 97.5 -15t74 -32.5t62 -32.5t65.5 -15q36 0 57.5 22.5t44.5 84.5z" />
<glyph unicode="&#x1ee2;" horiz-adv-x="1587" d="M1688 1423v-180q0 -57 -37.5 -117.5t-100.5 -91.5h-92q31 -133 31 -305q0 -218 -43 -366t-133.5 -234t-215 -122t-302.5 -36q-179 0 -303.5 36t-215 122t-133.5 234t-43 366q0 173 29 299t83 209.5t141 133.5t193 70.5t249 20.5q139 0 243 -20t189 -66.5t141 -127 t86 -197.5q58 42 81.5 84.5t23.5 93.5h-95v194h224zM795 1159q-78 0 -126 -4.5t-90.5 -22t-63.5 -44.5t-37 -78t-20.5 -117t-4.5 -168q0 -104 5 -171.5t20 -121t37 -82.5t63.5 -48t90.5 -24.5t126 -5.5t126 5.5t90.5 24.5t63.5 48t37 82.5t20 121t5 171.5q0 102 -4.5 168 t-20.5 117t-37 78t-63.5 44.5t-90.5 22t-126 4.5zM795 -113q85 0 114 -24t29 -107q0 -90 -29.5 -117.5t-113.5 -27.5q-81 0 -110.5 28t-29.5 117q0 83 29 107t111 24z" />
<glyph unicode="&#x1ee3;" d="M1346 1047v-181q0 -57 -37.5 -117.5t-100.5 -91.5h-100q6 -58 6 -127q0 -160 -31 -268.5t-97.5 -172.5t-158.5 -91t-225 -27q-131 0 -222.5 27t-157.5 91t-97 172.5t-31 268.5q0 159 31.5 266t98 168.5t157 87t221.5 25.5q117 0 201 -19.5t149.5 -66t103 -126.5 t50.5 -197q62 44 86.5 87.5t24.5 96.5h-95v195h224zM602 831q-60 0 -92.5 -9t-57 -42t-32.5 -92.5t-8 -163.5q0 -133 18 -198t56 -87t116 -22q80 0 118.5 22t56.5 87t18 198q0 84 -6 137.5t-18 88.5t-37 52t-54 23t-78 6zM606 -113q86 0 115 -24t29 -107q0 -90 -29.5 -117.5 t-114.5 -27.5q-81 0 -110 28t-29 117q0 83 28.5 107t110.5 24z" />
<glyph unicode="&#x1ee4;" horiz-adv-x="1525" d="M1042 463v964h332v-1028q0 -101 -28.5 -176.5t-79 -123t-129 -76.5t-168 -40.5t-207.5 -11.5t-208 11.5t-168.5 40.5t-128.5 76.5t-78.5 123t-28.5 176.5v1028h333v-966q0 -101 63 -141.5t216 -40.5q155 0 217.5 40.5t62.5 143.5zM764 -113q85 0 114 -24t29 -107 q0 -90 -29.5 -117.5t-113.5 -27.5q-81 0 -110 28t-29 117q0 83 28.5 107t110.5 24z" />
<glyph unicode="&#x1ee5;" horiz-adv-x="1222" d="M776 272v777h311v-983q-108 -40 -253 -67.5t-277 -27.5q-150 0 -242 46t-140 156t-48 296v580h311v-557q0 -143 36.5 -191.5t150.5 -48.5q72 0 151 20zM614 -113q86 0 115 -24t29 -107q0 -90 -29.5 -117.5t-114.5 -27.5q-81 0 -110 28t-29 117q0 83 28.5 107t110.5 24z " />
<glyph unicode="&#x1ee6;" horiz-adv-x="1525" d="M1042 463v964h332v-1028q0 -101 -28.5 -176.5t-79 -123t-129 -76.5t-168 -40.5t-207.5 -11.5t-208 11.5t-168.5 40.5t-128.5 76.5t-78.5 123t-28.5 176.5v1028h333v-966q0 -101 63 -141.5t216 -40.5q155 0 217.5 40.5t62.5 143.5zM776 1466h-96q95 52 125.5 86t30.5 84 q0 36 -23 51t-84 15q-98 0 -154 -43l-77 131q47 32 120.5 48.5t145.5 16.5q150 0 209 -39t59 -122q0 -75 -63.5 -134.5t-192.5 -93.5z" />
<glyph unicode="&#x1ee7;" horiz-adv-x="1222" d="M776 272v777h311v-983q-108 -40 -253 -67.5t-277 -27.5q-150 0 -242 46t-140 156t-48 296v580h311v-557q0 -143 36.5 -191.5t150.5 -48.5q72 0 151 20zM623 1122h-97q95 56 125.5 92.5t30.5 90.5q0 38 -23 53.5t-84 15.5q-94 0 -151 -47l-78 141q47 33 120 50.5t144 17.5 q150 0 208.5 -40.5t58.5 -129.5q0 -80 -62.5 -143.5t-191.5 -100.5z" />
<glyph unicode="&#x1ee8;" horiz-adv-x="1525" d="M1042 463v964h332v-1028q0 -101 -28.5 -176.5t-79 -123t-129 -76.5t-168 -40.5t-207.5 -11.5t-208 11.5t-168.5 40.5t-128.5 76.5t-78.5 123t-28.5 176.5v1028h333v-966q0 -101 63 -141.5t216 -40.5q155 0 217.5 40.5t62.5 143.5zM838 1530h-265l261 264h325zM1692 1425 v-180q0 -57 -37.5 -117.5t-100.5 -91.5h-118q71 47 99 93t28 102h-95v194h224z" />
<glyph unicode="&#x1ee9;" horiz-adv-x="1222" d="M776 272v777h311v-983q-108 -40 -253 -67.5t-277 -27.5q-150 0 -242 46t-140 156t-48 296v580h311v-557q0 -143 36.5 -191.5t150.5 -48.5q72 0 151 20zM1384 1047v-181q0 -58 -37 -118t-100 -91h-119q71 47 99 93t28 102h-94v195h223zM645 1163h-266l252 264h321z" />
<glyph unicode="&#x1eea;" horiz-adv-x="1525" d="M1042 463v964h332v-1028q0 -101 -28.5 -176.5t-79 -123t-129 -76.5t-168 -40.5t-207.5 -11.5t-208 11.5t-168.5 40.5t-128.5 76.5t-78.5 123t-28.5 176.5v1028h333v-966q0 -101 63 -141.5t216 -40.5q155 0 217.5 40.5t62.5 143.5zM981 1530h-272l-322 264h328zM1692 1425 v-180q0 -57 -37.5 -117.5t-100.5 -91.5h-118q71 47 99 93t28 102h-95v194h224z" />
<glyph unicode="&#x1eeb;" horiz-adv-x="1222" d="M776 272v777h311v-983q-108 -40 -253 -67.5t-277 -27.5q-150 0 -242 46t-140 156t-48 296v580h311v-557q0 -143 36.5 -191.5t150.5 -48.5q72 0 151 20zM1384 1047v-181q0 -58 -37 -118t-100 -91h-119q71 47 99 93t28 102h-94v195h223zM862 1163h-264l-309 264h323z" />
<glyph unicode="&#x1eec;" horiz-adv-x="1525" d="M1042 463v964h332v-1028q0 -101 -28.5 -176.5t-79 -123t-129 -76.5t-168 -40.5t-207.5 -11.5t-208 11.5t-168.5 40.5t-128.5 76.5t-78.5 123t-28.5 176.5v1028h333v-966q0 -101 63 -141.5t216 -40.5q155 0 217.5 40.5t62.5 143.5zM1692 1425v-180q0 -57 -37.5 -117.5 t-100.5 -91.5h-118q71 47 99 93t28 102h-95v194h224zM782 1477h-96q95 52 125.5 86t30.5 84q0 36 -22.5 50.5t-84.5 14.5q-97 0 -153 -43l-78 131q47 32 121 49t145 17q149 0 208.5 -39.5t59.5 -122.5q0 -75 -63.5 -134t-192.5 -93z" />
</font>
</defs>
</svg>
